<svg width="1500" height="1500" viewBox="0 0 1500 1500" fill="none" xmlns="http://www.w3.org/2000/svg">
<path d="M416.55 884.21C415.682 884.213 414.825 884.022 414.041 883.65C413.257 883.278 412.566 882.734 412.02 882.06L366.45 825.95C366.089 825.504 365.631 825.144 365.112 824.898C364.592 824.653 364.025 824.527 363.45 824.53H181.95C176.92 824.517 172.1 822.51 168.547 818.948C164.995 815.386 163 810.561 163 805.53V498.95C163.013 493.928 165.014 489.116 168.565 485.565C172.116 482.014 176.928 480.013 181.95 480H651.12C656.151 480 660.976 481.995 664.538 485.547C668.099 489.1 670.107 493.92 670.12 498.95V805.61C670.12 810.649 668.118 815.482 664.555 819.045C660.992 822.609 656.159 824.61 651.12 824.61H469.62C469.046 824.608 468.478 824.734 467.959 824.979C467.44 825.225 466.982 825.584 466.62 826.03L421.05 882.15C420.499 882.805 419.809 883.329 419.031 883.685C418.253 884.041 417.406 884.22 416.55 884.21ZM181.97 481.95C177.47 481.963 173.159 483.761 169.982 486.947C166.805 490.134 165.02 494.45 165.02 498.95V805.61C165.02 810.11 166.805 814.427 169.982 817.613C173.159 820.8 177.47 822.597 181.97 822.61H363.47C364.339 822.609 365.197 822.802 365.98 823.176C366.764 823.55 367.454 824.094 368 824.77L413.57 880.89C413.93 881.331 414.384 881.687 414.898 881.931C415.413 882.175 415.976 882.302 416.545 882.302C417.115 882.302 417.677 882.175 418.192 881.931C418.706 881.687 419.16 881.331 419.52 880.89L465.09 824.77C465.636 824.095 466.327 823.551 467.11 823.177C467.894 822.803 468.752 822.61 469.62 822.61H651.11C655.619 822.61 659.943 820.819 663.131 817.631C666.319 814.443 668.11 810.119 668.11 805.61V498.95C668.097 494.45 666.3 490.139 663.113 486.962C659.927 483.785 655.61 482 651.11 482L181.97 481.95Z" fill="#1C3180"/>
<path d="M484.77 533H444.77C444.505 533 444.251 532.895 444.063 532.707C443.875 532.519 443.77 532.265 443.77 532C443.77 531.735 443.875 531.481 444.063 531.293C444.251 531.105 444.505 531 444.77 531H484.77C485.035 531 485.29 531.105 485.477 531.293C485.665 531.481 485.77 531.735 485.77 532C485.77 532.265 485.665 532.519 485.477 532.707C485.29 532.895 485.035 533 484.77 533Z" fill="#1C3180"/>
<path d="M422.75 533H211.02C210.755 533 210.501 532.895 210.313 532.707C210.125 532.519 210.02 532.265 210.02 532C210.02 531.735 210.125 531.481 210.313 531.293C210.501 531.105 210.755 531 211.02 531H422.75C423.015 531 423.27 531.105 423.457 531.293C423.645 531.481 423.75 531.735 423.75 532C423.75 532.265 423.645 532.519 423.457 532.707C423.27 532.895 423.015 533 422.75 533Z" fill="#1C3180"/>
<path d="M484.77 565.758H407.11C406.845 565.758 406.59 565.652 406.403 565.465C406.215 565.277 406.11 565.023 406.11 564.758C406.11 564.493 406.215 564.238 406.403 564.051C406.59 563.863 406.845 563.758 407.11 563.758H484.77C485.035 563.758 485.29 563.863 485.477 564.051C485.665 564.238 485.77 564.493 485.77 564.758C485.77 565.023 485.665 565.277 485.477 565.465C485.29 565.652 485.035 565.758 484.77 565.758Z" fill="#1C3180"/>
<path d="M382.59 565.758H293.83C293.565 565.758 293.311 565.652 293.123 565.465C292.936 565.277 292.83 565.023 292.83 564.758C292.83 564.493 292.936 564.238 293.123 564.051C293.311 563.863 293.565 563.758 293.83 563.758H382.59C382.855 563.758 383.109 563.863 383.297 564.051C383.484 564.238 383.59 564.493 383.59 564.758C383.59 565.023 383.484 565.277 383.297 565.465C383.109 565.652 382.855 565.758 382.59 565.758Z" fill="#1C3180"/>
<path d="M273 565.758H211C210.735 565.758 210.481 565.652 210.293 565.465C210.105 565.277 210 565.023 210 564.758C210 564.493 210.105 564.238 210.293 564.051C210.481 563.863 210.735 563.758 211 563.758H273C273.265 563.758 273.519 563.863 273.707 564.051C273.895 564.238 274 564.493 274 564.758C274 565.023 273.895 565.277 273.707 565.465C273.519 565.652 273.265 565.758 273 565.758Z" fill="#1C3180"/>
<path d="M435.52 598.52H212.12C211.855 598.52 211.601 598.414 211.413 598.227C211.226 598.039 211.12 597.785 211.12 597.52C211.12 597.254 211.226 597 211.413 596.812C211.601 596.625 211.855 596.52 212.12 596.52H435.52C435.785 596.52 436.04 596.625 436.227 596.812C436.415 597 436.52 597.254 436.52 597.52C436.52 597.785 436.415 598.039 436.227 598.227C436.04 598.414 435.785 598.52 435.52 598.52Z" fill="#1C3180"/>
<path d="M668.4 662H165C164.735 662 164.481 661.895 164.293 661.707C164.105 661.519 164 661.265 164 661C164 660.735 164.105 660.481 164.293 660.293C164.481 660.105 164.735 660 165 660H668.4C668.665 660 668.919 660.105 669.107 660.293C669.294 660.481 669.4 660.735 669.4 661C669.4 661.265 669.294 661.519 669.107 661.707C668.919 661.895 668.665 662 668.4 662Z" fill="#1C3180"/>
<path d="M276.847 787.771L248.789 773.371C248.499 773.223 248.177 773.147 247.85 773.15C247.524 773.153 247.204 773.236 246.916 773.39L219.15 788.343C218.82 788.524 218.446 788.608 218.071 788.586C217.695 788.564 217.333 788.437 217.027 788.22C216.72 788.002 216.48 787.703 216.335 787.356C216.191 787.009 216.146 786.628 216.208 786.257L221.228 755.122C221.28 754.801 221.253 754.472 221.149 754.164C221.046 753.855 220.869 753.577 220.635 753.351L197.833 731.564C197.562 731.306 197.368 730.977 197.274 730.615C197.18 730.252 197.189 729.871 197.301 729.514C197.412 729.157 197.621 728.837 197.904 728.593C198.187 728.348 198.533 728.187 198.903 728.129L230.064 723.284C230.385 723.234 230.69 723.107 230.951 722.913C231.213 722.719 231.423 722.465 231.565 722.172L245.239 693.753C245.402 693.415 245.656 693.13 245.972 692.93C246.288 692.729 246.654 692.621 247.029 692.618C247.403 692.614 247.771 692.715 248.091 692.909C248.411 693.104 248.67 693.384 248.84 693.718L263.079 721.859C263.226 722.149 263.441 722.399 263.706 722.588C263.972 722.776 264.278 722.898 264.601 722.942L295.874 727.161C296.245 727.21 296.595 727.363 296.884 727.602C297.173 727.84 297.389 728.154 297.508 728.509C297.628 728.864 297.646 729.245 297.56 729.61C297.474 729.974 297.287 730.307 297.022 730.571L274.656 752.808C274.426 753.038 274.254 753.32 274.157 753.63C274.059 753.941 274.039 754.27 274.097 754.59L279.739 785.62C279.806 785.989 279.77 786.369 279.632 786.718C279.495 787.067 279.263 787.371 278.962 787.595C278.661 787.818 278.303 787.954 277.93 787.985C277.556 788.016 277.181 787.942 276.847 787.771Z" fill="#FECB02"/>
<path d="M400.847 787.771L372.789 773.371C372.499 773.223 372.177 773.147 371.85 773.15C371.524 773.153 371.204 773.236 370.916 773.39L343.15 788.343C342.82 788.524 342.446 788.608 342.071 788.586C341.695 788.564 341.333 788.437 341.027 788.22C340.72 788.002 340.48 787.703 340.335 787.356C340.191 787.009 340.146 786.628 340.208 786.257L345.228 755.122C345.28 754.801 345.253 754.472 345.149 754.164C345.046 753.855 344.869 753.577 344.635 753.351L321.833 731.564C321.562 731.306 321.368 730.977 321.274 730.615C321.18 730.252 321.189 729.871 321.301 729.514C321.412 729.157 321.621 728.837 321.904 728.593C322.187 728.348 322.533 728.187 322.903 728.129L354.064 723.284C354.385 723.234 354.69 723.107 354.951 722.913C355.213 722.719 355.423 722.465 355.565 722.172L369.239 693.753C369.402 693.415 369.656 693.13 369.972 692.93C370.288 692.729 370.654 692.621 371.029 692.618C371.403 692.614 371.771 692.715 372.091 692.909C372.411 693.104 372.67 693.384 372.84 693.718L387.079 721.859C387.226 722.149 387.441 722.399 387.706 722.588C387.972 722.776 388.278 722.898 388.601 722.942L419.874 727.161C420.245 727.21 420.595 727.363 420.884 727.602C421.173 727.84 421.389 728.154 421.508 728.509C421.628 728.864 421.646 729.245 421.56 729.61C421.474 729.974 421.287 730.307 421.022 730.571L398.656 752.808C398.426 753.038 398.254 753.32 398.157 753.63C398.059 753.941 398.039 754.27 398.097 754.59L403.739 785.62C403.806 785.989 403.77 786.369 403.632 786.718C403.495 787.067 403.263 787.371 402.962 787.595C402.661 787.818 402.303 787.954 401.93 787.985C401.556 788.016 401.181 787.942 400.847 787.771Z" fill="#FECB02"/>
<path d="M524.847 787.771L496.789 773.371C496.499 773.223 496.177 773.147 495.85 773.15C495.524 773.153 495.204 773.236 494.916 773.39L467.15 788.343C466.82 788.524 466.446 788.608 466.071 788.586C465.695 788.564 465.333 788.437 465.027 788.22C464.72 788.002 464.48 787.703 464.335 787.356C464.191 787.009 464.146 786.628 464.208 786.257L469.228 755.122C469.28 754.801 469.253 754.472 469.149 754.164C469.046 753.855 468.869 753.577 468.635 753.351L445.833 731.564C445.562 731.306 445.368 730.977 445.274 730.615C445.18 730.252 445.189 729.871 445.301 729.514C445.412 729.157 445.621 728.837 445.904 728.593C446.187 728.348 446.533 728.187 446.903 728.129L478.064 723.284C478.385 723.234 478.69 723.107 478.951 722.913C479.213 722.719 479.423 722.465 479.565 722.172L493.239 693.753C493.402 693.415 493.656 693.13 493.972 692.93C494.288 692.729 494.654 692.621 495.029 692.618C495.403 692.614 495.771 692.715 496.091 692.909C496.411 693.104 496.67 693.384 496.84 693.718L511.079 721.859C511.226 722.149 511.441 722.399 511.706 722.588C511.972 722.776 512.278 722.898 512.601 722.942L543.874 727.161C544.245 727.21 544.595 727.363 544.884 727.602C545.173 727.84 545.389 728.154 545.508 728.509C545.628 728.864 545.646 729.245 545.56 729.61C545.474 729.974 545.287 730.307 545.022 730.571L522.656 752.808C522.426 753.038 522.254 753.32 522.157 753.63C522.059 753.941 522.039 754.27 522.097 754.59L527.739 785.62C527.806 785.989 527.77 786.369 527.632 786.718C527.495 787.067 527.263 787.371 526.962 787.595C526.661 787.818 526.303 787.954 525.93 787.985C525.556 788.016 525.181 787.942 524.847 787.771Z" fill="#FECB02"/>
<path d="M648.847 787.771L620.789 773.371C620.499 773.223 620.177 773.147 619.85 773.15C619.524 773.153 619.204 773.236 618.916 773.39L591.15 788.343C590.82 788.524 590.446 788.608 590.071 788.586C589.695 788.564 589.333 788.437 589.027 788.22C588.72 788.002 588.48 787.703 588.335 787.356C588.191 787.009 588.146 786.628 588.208 786.257L593.228 755.122C593.28 754.801 593.253 754.472 593.149 754.164C593.046 753.855 592.869 753.577 592.635 753.351L569.833 731.564C569.562 731.306 569.368 730.977 569.274 730.615C569.18 730.252 569.189 729.871 569.301 729.514C569.412 729.157 569.621 728.837 569.904 728.593C570.187 728.348 570.533 728.187 570.903 728.129L602.064 723.284C602.385 723.234 602.69 723.107 602.951 722.913C603.213 722.719 603.423 722.465 603.565 722.172L617.239 693.753C617.402 693.415 617.656 693.13 617.972 692.93C618.288 692.729 618.654 692.621 619.029 692.618C619.403 692.614 619.771 692.715 620.091 692.909C620.411 693.104 620.67 693.384 620.84 693.718L635.079 721.859C635.226 722.149 635.441 722.399 635.706 722.588C635.972 722.776 636.278 722.898 636.601 722.942L667.874 727.161C668.245 727.21 668.595 727.363 668.884 727.602C669.173 727.84 669.389 728.154 669.508 728.509C669.628 728.864 669.646 729.245 669.56 729.61C669.474 729.974 669.287 730.307 669.022 730.571L646.656 752.808C646.426 753.038 646.254 753.32 646.157 753.63C646.059 753.941 646.039 754.27 646.097 754.59L651.739 785.62C651.806 785.989 651.77 786.369 651.632 786.718C651.495 787.067 651.263 787.371 650.962 787.595C650.661 787.818 650.303 787.954 649.93 787.985C649.556 788.016 649.181 787.942 648.847 787.771Z" fill="#FECB02"/>
<path d="M1275.78 174.88V199.12H850V174.88C849.999 172.402 850.486 169.948 851.433 167.658C852.38 165.368 853.769 163.287 855.52 161.534C857.271 159.781 859.351 158.39 861.64 157.44C863.929 156.491 866.382 156.001 868.86 156H1256.92C1259.4 156.001 1261.85 156.491 1264.14 157.44C1266.43 158.39 1268.51 159.781 1270.26 161.534C1272.01 163.287 1273.4 165.368 1274.35 167.658C1275.29 169.948 1275.78 172.402 1275.78 174.88Z" fill="#FECB02"/>
<path d="M877.51 187.62C875.637 187.62 873.806 187.064 872.248 186.024C870.691 184.983 869.477 183.504 868.761 181.774C868.044 180.043 867.857 178.139 868.222 176.302C868.587 174.465 869.489 172.778 870.813 171.453C872.138 170.129 873.826 169.227 875.663 168.862C877.5 168.496 879.403 168.684 881.134 169.4C882.864 170.117 884.343 171.331 885.384 172.889C886.424 174.446 886.98 176.277 886.98 178.15C886.977 180.661 885.978 183.068 884.203 184.843C882.428 186.619 880.02 187.617 877.51 187.62ZM877.51 170.68C876.032 170.68 874.588 171.118 873.36 171.939C872.131 172.759 871.174 173.926 870.608 175.291C870.043 176.656 869.895 178.158 870.184 179.607C870.472 181.056 871.183 182.387 872.228 183.432C873.273 184.476 874.604 185.188 876.053 185.476C877.502 185.764 879.004 185.617 880.369 185.051C881.734 184.486 882.9 183.528 883.721 182.3C884.542 181.071 884.98 179.627 884.98 178.15C884.977 176.169 884.189 174.271 882.789 172.87C881.389 171.47 879.49 170.682 877.51 170.68Z" fill="#1C3180"/>
<path d="M909.78 187.62C907.907 187.62 906.076 187.064 904.518 186.024C902.961 184.983 901.747 183.504 901.031 181.774C900.314 180.043 900.127 178.139 900.492 176.302C900.858 174.465 901.759 172.778 903.083 171.453C904.408 170.129 906.096 169.227 907.933 168.862C909.77 168.496 911.673 168.684 913.404 169.4C915.134 170.117 916.613 171.331 917.654 172.889C918.694 174.446 919.25 176.277 919.25 178.15C919.247 180.661 918.248 183.068 916.473 184.843C914.698 186.619 912.29 187.617 909.78 187.62ZM909.78 170.68C908.302 170.68 906.858 171.118 905.63 171.939C904.401 172.759 903.444 173.926 902.878 175.291C902.313 176.656 902.165 178.158 902.454 179.607C902.742 181.056 903.453 182.387 904.498 183.432C905.543 184.476 906.874 185.188 908.323 185.476C909.772 185.764 911.274 185.617 912.639 185.051C914.004 184.486 915.17 183.528 915.991 182.3C916.812 181.071 917.25 179.627 917.25 178.15C917.247 176.169 916.459 174.271 915.059 172.87C913.659 171.47 911.76 170.682 909.78 170.68Z" fill="#1C3180"/>
<path d="M942.05 187.62C940.177 187.62 938.346 187.064 936.788 186.024C935.231 184.983 934.017 183.504 933.301 181.774C932.584 180.043 932.396 178.139 932.762 176.302C933.127 174.465 934.029 172.778 935.353 171.453C936.678 170.129 938.365 169.227 940.202 168.862C942.039 168.496 943.943 168.684 945.674 169.4C947.404 170.117 948.883 171.331 949.924 172.889C950.964 174.446 951.52 176.277 951.52 178.15C951.517 180.661 950.518 183.068 948.743 184.843C946.968 186.619 944.56 187.617 942.05 187.62ZM942.05 170.68C940.572 170.68 939.128 171.118 937.9 171.939C936.671 172.759 935.714 173.926 935.148 175.291C934.583 176.656 934.435 178.158 934.723 179.607C935.012 181.056 935.723 182.387 936.768 183.432C937.813 184.476 939.144 185.188 940.593 185.476C942.042 185.764 943.544 185.617 944.908 185.051C946.273 184.486 947.44 183.528 948.261 182.3C949.082 181.071 949.52 179.627 949.52 178.15C949.517 176.169 948.729 174.271 947.329 172.87C945.929 171.47 944.03 170.682 942.05 170.68Z" fill="#1C3180"/>
<path d="M1249.83 187.619C1249.57 187.618 1249.32 187.514 1249.13 187.329L1228.69 167.159C1228.5 166.972 1228.4 166.718 1228.4 166.454C1228.4 166.19 1228.5 165.936 1228.69 165.749C1228.78 165.655 1228.89 165.581 1229.02 165.53C1229.14 165.479 1229.27 165.453 1229.4 165.453C1229.53 165.453 1229.66 165.479 1229.78 165.53C1229.91 165.581 1230.02 165.655 1230.11 165.749L1250.54 185.919C1250.73 186.106 1250.83 186.36 1250.83 186.624C1250.83 186.888 1250.73 187.141 1250.54 187.329C1250.45 187.422 1250.34 187.495 1250.21 187.545C1250.09 187.594 1249.96 187.62 1249.83 187.619Z" fill="#1C3180"/>
<path d="M1229.39 187.618C1229.26 187.618 1229.13 187.591 1229 187.54C1228.88 187.488 1228.77 187.413 1228.68 187.318C1228.49 187.131 1228.39 186.877 1228.39 186.613C1228.39 186.349 1228.49 186.096 1228.68 185.908L1249.12 165.738C1249.21 165.634 1249.32 165.55 1249.45 165.491C1249.57 165.432 1249.71 165.399 1249.84 165.395C1249.98 165.391 1250.12 165.415 1250.25 165.466C1250.37 165.517 1250.49 165.594 1250.59 165.692C1250.68 165.791 1250.76 165.907 1250.81 166.036C1250.86 166.165 1250.88 166.302 1250.87 166.44C1250.87 166.578 1250.83 166.713 1250.77 166.836C1250.71 166.96 1250.63 167.07 1250.52 167.158L1230.1 187.358C1229.91 187.535 1229.65 187.628 1229.39 187.618Z" fill="#1C3180"/>
<path d="M1256.92 539.68H868.86C863.593 539.672 858.545 537.576 854.822 533.851C851.099 530.126 849.005 525.077 849 519.81V174.88C849.003 169.612 851.095 164.56 854.818 160.833C858.542 157.106 863.592 155.008 868.86 155H1256.92C1262.19 155.008 1267.24 157.106 1270.96 160.833C1274.68 164.56 1276.78 169.612 1276.78 174.88V519.81C1276.77 525.077 1274.68 530.126 1270.96 533.851C1267.23 537.576 1262.19 539.672 1256.92 539.68ZM868.86 157C864.122 157.008 859.581 158.895 856.233 162.247C852.885 165.599 851.003 170.142 851 174.88V519.81C851.005 524.546 852.888 529.087 856.236 532.437C859.584 535.787 864.124 537.672 868.86 537.68H1256.92C1261.66 537.672 1266.2 535.787 1269.54 532.437C1272.89 529.087 1274.77 524.546 1274.78 519.81V174.88C1274.78 170.142 1272.9 165.599 1269.55 162.247C1266.2 158.895 1261.66 157.008 1256.92 157H868.86Z" fill="#1C3180"/>
<path opacity="0.15" d="M1190.24 278.95H919V304.3H1190.24V278.95Z" fill="#1C3180"/>
<path opacity="0.15" d="M1208.7 314.44H919V339.569H1208.7V314.44Z" fill="#1C3180"/>
<path opacity="0.15" d="M1153.9 349.8H919V375.15H1153.9V349.8Z" fill="#1C3180"/>
<path opacity="0.15" d="M1190.24 385.55H919V410.25H1190.24V385.55Z" fill="#1C3180"/>
<path opacity="0.15" d="M1105.23 420.65H919V446H1105.23V420.65Z" fill="#1C3180"/>
<path d="M1086.98 278.95H919V304.079H1086.98V278.95Z" fill="#25ECB7"/>
<path d="M1174.28 314.44H919V339.569H1174.28V314.44Z" fill="#1C3180"/>
<path d="M1046.64 349.936H919V375.065H1046.64V349.936Z" fill="#00B7F0"/>
<path d="M1131.91 385.433H919V410.562H1131.91V385.433Z" fill="#FE0297"/>
<path d="M1049.43 420.923H919V446.052H1049.43V420.923Z" fill="#FECB02"/>
<path d="M692.45 331V470.61H823.45V331C823.45 331 801.29 329.83 793.34 311.28C792.778 309.691 792.441 308.032 792.34 306.35C792.008 302.71 791.934 299.051 792.12 295.4C792.22 292.84 792.39 290.4 792.58 288.24C798.877 285.523 804.242 281.023 808.013 275.294C811.783 269.565 813.795 262.858 813.8 256L812.512 228.617C814.105 228.03 815.584 227.128 816.867 226.016C823.447 220.296 823.433 209.654 816.913 202.154C815.266 200.242 813.3 198.639 811.062 197.473L811.035 196.66C810.597 190.077 809.759 183.63 808.466 177.16C803.186 148.8 782.76 134.17 758.3 134.17C729.83 134.17 706.76 153.94 706.76 192.17C706.771 196.136 707.302 200.083 708.34 203.91C705.138 204.059 702.078 205.277 699.65 207.37C693.07 213.08 693.03 223.8 699.56 231.31C704.2 236.65 710.614 238.769 716.672 237.664C717.532 248.514 720.09 280.92 720.31 297.3C720.31 299.55 720.31 301.51 720.31 303.06C720.18 327.56 692.45 331 692.45 331Z" fill="#FFBBC7"/>
<path d="M758.26 136.17C744.18 136.17 732.07 141.03 723.26 150.22C713.75 160.13 708.72 174.64 708.72 192.16C708.733 195.953 709.241 199.728 710.23 203.39C710.306 203.677 710.318 203.977 710.263 204.269C710.209 204.561 710.091 204.837 709.916 205.077C709.742 205.317 709.516 205.516 709.256 205.658C708.995 205.801 708.707 205.883 708.41 205.9C705.648 206.033 703.011 207.09 700.92 208.9C699.668 210.014 698.65 211.365 697.923 212.876C697.197 214.387 696.778 216.026 696.69 217.7C696.454 222.207 698.003 226.626 701 230C702.544 231.853 704.468 233.353 706.642 234.398C708.816 235.444 711.189 236.01 713.6 236.06C714.5 236.061 715.398 235.971 716.28 235.79C716.413 235.781 716.547 235.781 716.68 235.79C717.186 235.788 717.673 235.978 718.044 236.322C718.415 236.665 718.642 237.136 718.68 237.64C719.68 250.26 722.04 281.36 722.25 297.32C722.25 298.74 722.25 300.05 722.25 301.2C722.25 301.89 722.25 302.53 722.25 303.11C722.25 313.89 717.07 322.51 707.33 328.02C703.313 330.254 698.975 331.856 694.47 332.77V468.61H821.47V332.84C815.71 332.1 798.56 328.53 791.52 312.1C790.894 310.328 790.52 308.476 790.41 306.6C790.063 302.864 789.986 299.107 790.18 295.36C790.27 292.99 790.43 290.57 790.64 288.15C790.662 287.779 790.787 287.422 791.001 287.118C791.215 286.814 791.509 286.576 791.85 286.43C797.783 283.868 802.837 279.627 806.39 274.229C809.944 268.831 811.842 262.512 811.85 256.05L810.6 228.73C810.573 228.301 810.685 227.875 810.919 227.515C811.154 227.155 811.497 226.879 811.9 226.73C813.27 226.224 814.537 225.476 815.64 224.52C817.018 223.292 818.113 221.78 818.85 220.088C819.587 218.396 819.949 216.565 819.91 214.72C819.876 210.544 818.323 206.523 815.54 203.41C814.063 201.683 812.267 200.257 810.25 199.21C809.937 199.048 809.673 198.807 809.483 198.51C809.293 198.213 809.185 197.872 809.17 197.52V196.85C808.744 190.377 807.892 183.94 806.62 177.58V177.46C804.2 164.46 798.24 153.72 789.41 146.53C780.95 139.77 770.21 136.17 758.26 136.17ZM758.2 134.11C782.66 134.11 803.2 148.77 808.48 177.17C809.773 183.64 810.642 190.187 811.08 196.77V197.47C813.318 198.637 815.313 200.218 816.96 202.13C823.48 209.63 823.44 220.35 816.86 226.07C815.577 227.182 814.103 228.053 812.51 228.64L813.8 256C813.801 262.859 811.794 269.569 808.027 275.302C804.259 281.034 798.897 285.539 792.6 288.26C792.41 290.4 792.24 292.86 792.14 295.42C791.954 299.07 792.028 302.73 792.36 306.37C792.461 308.052 792.798 309.711 793.36 311.3C801.27 329.86 823.43 331 823.43 331V470.61H692.43V331C692.43 331 720.16 327.53 720.21 303C720.21 301.45 720.28 299.49 720.21 297.24C719.99 280.86 717.51 248.54 716.65 237.69C715.637 237.898 714.605 238.002 713.57 238C710.874 237.941 708.221 237.308 705.788 236.144C703.356 234.98 701.198 233.312 699.46 231.25C692.93 223.74 692.97 213.02 699.55 207.31C701.978 205.217 705.038 203.999 708.24 203.85C707.202 200.022 706.671 196.075 706.66 192.11C706.66 153.89 729.73 134.11 758.2 134.11Z" fill="#1C3180"/>
<path d="M811.78 235.15C812.045 235.15 812.3 235.044 812.487 234.857C812.675 234.669 812.78 234.415 812.78 234.15L811.13 197.76C811.118 197.495 811.002 197.245 810.806 197.066C810.61 196.887 810.35 196.793 810.085 196.805C809.82 196.817 809.57 196.933 809.391 197.129C809.212 197.325 809.118 197.585 809.13 197.85L810.78 234.24C810.803 234.489 810.918 234.721 811.103 234.889C811.288 235.058 811.53 235.151 811.78 235.15Z" fill="#1C3180"/>
<path d="M754.32 288.72C754.92 289.07 770.54 298.01 779.67 301.5C788.97 305.07 792.35 306.39 792.35 306.39C792.018 302.75 791.944 299.091 792.13 295.44C792.23 292.89 792.4 290.44 792.59 288.29L792.15 287.42C792.15 287.42 786.53 290.42 769.27 290.92C764.195 291.092 759.131 290.347 754.32 288.72Z" fill="#1C3180"/>
<path d="M770.62 292.05C778.237 291.959 785.786 290.607 792.96 288.05C793.088 288.006 793.206 287.937 793.306 287.847C793.406 287.756 793.487 287.646 793.543 287.524C793.6 287.401 793.631 287.269 793.635 287.134C793.639 286.999 793.616 286.865 793.567 286.739C793.517 286.613 793.443 286.499 793.348 286.403C793.254 286.307 793.141 286.231 793.016 286.179C792.891 286.128 792.757 286.103 792.622 286.104C792.487 286.106 792.354 286.135 792.23 286.19C791.86 286.33 755.08 300.41 741.23 273.98C741.171 273.861 741.089 273.754 740.988 273.667C740.887 273.58 740.77 273.514 740.643 273.473C740.516 273.432 740.382 273.417 740.249 273.428C740.117 273.439 739.987 273.477 739.869 273.539C739.751 273.601 739.647 273.686 739.562 273.789C739.478 273.892 739.414 274.011 739.376 274.138C739.338 274.266 739.326 274.4 739.34 274.533C739.355 274.665 739.396 274.794 739.46 274.91C746.59 288.53 759.35 292.05 770.62 292.05Z" fill="#1C3180"/>
<path d="M718.85 223.41C718.986 223.41 719.12 223.383 719.245 223.329C719.37 223.276 719.482 223.198 719.576 223.099C719.669 223.001 719.742 222.885 719.789 222.758C719.836 222.631 719.857 222.495 719.85 222.36C719.85 222.08 719.45 215.63 714.95 212.36C712.32 210.45 708.89 210.05 704.75 211.16C704.616 211.187 704.49 211.24 704.377 211.318C704.265 211.396 704.17 211.495 704.098 211.611C704.025 211.727 703.978 211.856 703.957 211.991C703.937 212.126 703.944 212.264 703.979 212.396C704.014 212.528 704.076 212.651 704.16 212.759C704.244 212.866 704.35 212.955 704.47 213.02C704.59 213.085 704.722 213.125 704.858 213.137C704.994 213.149 705.131 213.133 705.26 213.09C708.79 212.15 711.66 212.45 713.77 213.98C717.51 216.7 717.85 222.41 717.85 222.47C717.866 222.725 717.978 222.964 718.164 223.138C718.35 223.313 718.595 223.41 718.85 223.41Z" fill="#1C3180"/>
<path d="M718.83 223.4C719.019 223.401 719.205 223.348 719.365 223.247C719.525 223.146 719.654 223.002 719.736 222.832C719.817 222.661 719.849 222.471 719.827 222.283C719.804 222.095 719.729 221.917 719.61 221.77C717.86 219.63 713.27 216.56 708.46 220.22C708.354 220.3 708.266 220.399 708.199 220.514C708.132 220.628 708.088 220.754 708.071 220.885C708.053 221.016 708.061 221.15 708.096 221.278C708.13 221.405 708.189 221.525 708.27 221.63C708.431 221.841 708.668 221.979 708.931 222.015C709.193 222.05 709.459 221.98 709.67 221.82C714.14 218.41 717.9 222.82 718.06 223.04C718.154 223.153 718.272 223.244 718.405 223.306C718.538 223.368 718.683 223.4 718.83 223.4Z" fill="#1C3180"/>
<path d="M724.2 218.64H724.41C724.539 218.612 724.662 218.56 724.77 218.485C724.879 218.41 724.971 218.315 725.043 218.205C725.114 218.094 725.163 217.97 725.187 217.841C725.211 217.711 725.208 217.578 725.18 217.45C722 202 707.555 203.909 707.415 203.909C707.149 203.948 706.901 204.14 706.741 204.354C706.581 204.569 706.512 204.839 706.551 205.104C706.589 205.369 706.731 205.608 706.946 205.769C707.161 205.929 707.43 205.997 707.696 205.959C708.216 205.879 720.41 204.28 723.22 217.88C723.274 218.098 723.401 218.292 723.578 218.43C723.756 218.568 723.975 218.642 724.2 218.64Z" fill="#1C3180"/>
<path d="M772.62 232.81C775.74 232.81 779.39 232.27 780.29 229.86C781.72 226.05 778.83 196.75 778.5 193.42C778.487 193.289 778.447 193.163 778.385 193.047C778.322 192.932 778.237 192.83 778.135 192.747C778.033 192.664 777.915 192.603 777.789 192.565C777.663 192.528 777.531 192.516 777.4 192.53C777.138 192.558 776.898 192.688 776.731 192.892C776.564 193.096 776.485 193.358 776.51 193.62C777.75 206.02 779.37 226.62 778.42 229.15C777.74 230.96 772.04 231.03 768.42 230.51C768.159 230.473 767.894 230.54 767.682 230.697C767.471 230.855 767.33 231.089 767.29 231.35C767.27 231.481 767.277 231.614 767.309 231.742C767.341 231.871 767.398 231.991 767.477 232.097C767.556 232.203 767.656 232.293 767.77 232.36C767.883 232.428 768.009 232.472 768.14 232.49C769.625 232.697 771.121 232.804 772.62 232.81Z" fill="#1C3180"/>
<path d="M773.52 252.27C777.368 252.199 781.181 251.524 784.82 250.27C785.069 250.179 785.272 249.992 785.383 249.751C785.495 249.51 785.506 249.235 785.415 248.985C785.323 248.736 785.137 248.533 784.896 248.422C784.655 248.31 784.379 248.299 784.13 248.39C783.97 248.44 768.49 253.97 763.13 245.75C762.985 245.527 762.758 245.371 762.498 245.316C762.239 245.261 761.967 245.311 761.745 245.455C761.522 245.6 761.366 245.827 761.31 246.087C761.255 246.346 761.305 246.617 761.45 246.84C764.23 251.07 769 252.27 773.52 252.27Z" fill="#1C3180"/>
<path d="M745.29 187.42C745.522 187.425 745.749 187.349 745.932 187.205C746.114 187.061 746.241 186.858 746.29 186.63C746.462 185.509 746.869 184.437 747.484 183.484C748.099 182.531 748.909 181.719 749.86 181.1C751.916 180.062 754.282 179.813 756.51 180.4C756.636 180.437 756.768 180.449 756.898 180.434C757.029 180.42 757.155 180.38 757.27 180.317C757.386 180.254 757.487 180.169 757.569 180.066C757.652 179.964 757.713 179.846 757.75 179.72C757.786 179.594 757.798 179.462 757.784 179.332C757.769 179.201 757.73 179.075 757.666 178.959C757.603 178.844 757.518 178.743 757.416 178.66C757.313 178.578 757.196 178.517 757.07 178.48C754.315 177.732 751.38 178.05 748.85 179.37C747.657 180.125 746.637 181.124 745.858 182.301C745.079 183.478 744.558 184.807 744.33 186.2C744.273 186.459 744.321 186.729 744.464 186.952C744.606 187.175 744.831 187.333 745.09 187.39C745.155 187.408 745.222 187.418 745.29 187.42Z" fill="#1C3180"/>
<path d="M803.9 187.42H804.12C804.377 187.36 804.6 187.202 804.74 186.979C804.88 186.756 804.927 186.487 804.87 186.23C804.643 184.838 804.124 183.509 803.346 182.332C802.569 181.155 801.551 180.156 800.36 179.4C797.826 178.08 794.888 177.762 792.13 178.51C791.878 178.586 791.665 178.759 791.54 178.992C791.414 179.224 791.386 179.497 791.461 179.75C791.535 180.004 791.707 180.219 791.94 180.347C792.172 180.474 792.446 180.504 792.701 180.43C794.932 179.842 797.3 180.091 799.36 181.13C800.306 181.753 801.112 182.566 801.725 183.519C802.338 184.471 802.745 185.541 802.92 186.66C802.974 186.878 803.101 187.072 803.278 187.21C803.456 187.348 803.675 187.422 803.9 187.42Z" fill="#1C3180"/>
<path d="M754.35 210.02C755.67 210.02 756.739 207.889 756.739 205.26C756.739 202.631 755.67 200.5 754.35 200.5C753.03 200.5 751.959 202.631 751.959 205.26C751.959 207.889 753.03 210.02 754.35 210.02Z" fill="#1C3180"/>
<path d="M789.99 210.02C791.31 210.02 792.38 207.889 792.38 205.26C792.38 202.631 791.31 200.5 789.99 200.5C788.67 200.5 787.6 202.631 787.6 205.26C787.6 207.889 788.67 210.02 789.99 210.02Z" fill="#1C3180"/>
<path d="M751.046 220.665C759.396 220.665 766.196 209.795 766.196 196.425C766.196 196.16 766.091 195.906 765.904 195.718C765.716 195.531 765.462 195.425 765.196 195.425H736.896C736.631 195.425 736.377 195.531 736.189 195.718C736.002 195.906 735.896 196.16 735.896 196.425C735.946 209.795 742.736 220.665 751.046 220.665ZM764.186 197.425C763.876 209.225 758.096 218.665 751.046 218.665C743.996 218.665 738.216 209.225 737.906 197.425H764.186Z" fill="#1C3180"/>
<path d="M795.546 220.665C803.896 220.665 810.696 209.795 810.696 196.425C810.696 196.16 810.591 195.906 810.404 195.718C810.216 195.531 809.962 195.425 809.696 195.425H781.386C781.121 195.425 780.867 195.531 780.679 195.718C780.492 195.906 780.386 196.16 780.386 196.425C780.386 209.795 787.186 220.665 795.546 220.665ZM808.686 197.425C808.376 209.225 802.596 218.665 795.546 218.665C788.496 218.665 782.716 209.225 782.406 197.425H808.686Z" fill="#1C3180"/>
<path d="M781.926 203.745C782.174 203.745 782.413 203.652 782.597 203.485C782.791 203.306 782.906 203.057 782.918 202.793C782.929 202.528 782.835 202.27 782.657 202.075C780.597 199.919 777.794 198.629 774.816 198.465H774.736C770.446 198.465 764.666 201.015 764.426 201.125C764.306 201.178 764.198 201.255 764.107 201.35C764.017 201.445 763.945 201.557 763.898 201.68C763.851 201.802 763.828 201.933 763.831 202.064C763.834 202.196 763.863 202.325 763.917 202.445C763.97 202.565 764.046 202.674 764.141 202.765C764.236 202.855 764.348 202.926 764.471 202.974C764.593 203.021 764.724 203.044 764.856 203.041C764.987 203.037 765.116 203.009 765.236 202.955C765.296 202.955 770.876 200.465 774.736 200.465H774.806C778.426 200.465 781.156 203.395 781.186 203.465C781.284 203.56 781.4 203.633 781.528 203.682C781.655 203.73 781.79 203.751 781.926 203.745Z" fill="#1C3180"/>
<path fill-rule="evenodd" clip-rule="evenodd" d="M724.054 200.409C729.12 200.166 733.897 200.517 736.727 200.912C737.274 200.989 737.78 200.607 737.856 200.06C737.932 199.513 737.551 199.008 737.004 198.932C734.059 198.521 729.158 198.162 723.958 198.411C718.78 198.659 713.19 199.514 708.944 201.603C708.448 201.847 708.244 202.447 708.488 202.942C708.732 203.438 709.331 203.642 709.827 203.398C713.704 201.49 718.967 200.653 724.054 200.409Z" fill="#1C3180"/>
<path d="M659.957 212.773C660.707 225.283 685.457 234.123 685.457 234.123C685.457 234.123 680.207 246.023 692.457 256.123C699.917 262.303 710.877 260.943 718.297 258.943C717.687 249.993 717.067 242.083 716.717 237.683C710.867 238.863 704.167 236.583 699.527 231.243C692.997 223.733 693.037 213.013 699.617 207.303C700.836 206.244 702.23 205.405 703.737 204.823C705.223 204.34 706.754 204.005 708.307 203.823C711.993 203.619 715.647 204.608 718.727 206.643C721.477 202.153 725.457 195.303 727.107 190.843C729.727 183.723 721.857 167.973 721.857 167.973C721.857 167.973 727.477 171.723 736.477 167.973C745.477 164.223 748.107 152.973 748.107 152.973C748.107 152.973 749.227 155.973 762.257 159.723C764.552 160.4 766.951 160.654 769.337 160.473H769.497H769.877C778.707 159.573 784.417 153.013 784.417 153.013C785.236 155.907 786.373 158.7 787.807 161.343C789.017 163.648 790.553 165.766 792.367 167.633C797.127 172.393 804.367 171.523 806.447 171.133L807.057 171.013C807.617 172.96 808.094 174.987 808.487 177.093C809.78 183.563 810.648 190.11 811.087 196.693V197.393C814.523 199.201 817.369 201.957 819.287 205.333C819.287 205.333 821.947 203.603 823.397 197.693C824.847 191.783 818.567 184.473 818.567 184.473C818.567 184.473 826.447 180.723 825.697 170.333C825.601 168.871 825.263 167.435 824.697 166.083C822.067 159.773 815.167 159.343 815.167 159.343C815.167 159.343 822.667 146.593 817.787 139.473C812.907 132.353 804.287 128.473 804.287 128.473C804.521 127.667 804.675 126.84 804.747 126.003C804.992 123.751 804.742 121.473 804.015 119.328C803.288 117.183 802.101 115.222 800.537 113.583C794.167 106.833 778.717 110.783 778.717 110.783C778.717 110.783 778.417 98.2034 766.387 93.5534C754.357 88.9034 744.077 102.333 744.077 102.333C744.077 102.333 733.407 92.2034 721.407 93.7034C709.407 95.2034 709.047 115.543 709.047 115.543C709.047 115.543 691.457 110.673 682.827 120.793C674.197 130.913 680.967 147.423 680.967 147.423C680.967 147.423 667.077 146.303 662.577 162.423C658.077 178.543 667.827 190.903 667.827 190.903C667.827 190.903 659.207 200.273 659.957 212.773Z" fill="#1C3180"/>
<path d="M767.618 235.927L776.752 235.865C786.047 238.152 786.877 239.622 796.941 239.514C792.877 244.854 780.025 243.902 777.037 241.519C776.86 241.528 774.725 240.369 767.86 240.716C762.658 244.646 749.965 242.887 747.482 238.611C754.125 241.907 763.049 236.557 767.618 235.927Z" fill="#1C3180"/>
<path d="M768.078 273.439C772.179 274.681 777.257 274.286 779.739 273.439C778.554 275.377 775.824 279.217 773.928 279.307C771.558 279.42 768.625 275.64 768.078 273.439Z" fill="#1C3180"/>
<path d="M756.197 129.544C756.292 129.542 756.386 129.525 756.476 129.494C756.603 129.457 756.72 129.396 756.823 129.313C756.925 129.231 757.01 129.13 757.073 129.014C757.136 128.899 757.176 128.773 757.191 128.642C757.205 128.512 757.193 128.38 757.157 128.254C757.157 128.154 753.957 117.804 744.157 117.434C742.91 117.329 741.655 117.486 740.472 117.894C739.289 118.302 738.204 118.953 737.287 119.804C733.887 123.024 733.767 128.304 733.767 128.524C733.767 128.789 733.872 129.043 734.059 129.231C734.247 129.418 734.501 129.524 734.767 129.524C735.032 129.524 735.286 129.418 735.474 129.231C735.661 129.043 735.767 128.789 735.767 128.524C735.767 128.524 735.887 123.844 738.667 121.224C739.395 120.566 740.252 120.064 741.182 119.751C742.113 119.438 743.098 119.32 744.077 119.404C752.417 119.714 755.076 128.404 755.226 128.794C755.282 129.009 755.407 129.199 755.583 129.335C755.759 129.471 755.975 129.544 756.197 129.544Z" fill="white"/>
<path d="M798.426 148.203C798.66 148.208 798.888 148.131 799.071 147.985C799.254 147.838 799.379 147.633 799.426 147.403C799.486 147.103 800.766 140.143 794.626 136.343C792.878 135.228 790.774 134.814 788.734 135.185C786.694 135.556 784.869 136.684 783.626 138.343C783.463 138.553 783.39 138.819 783.423 139.082C783.455 139.346 783.592 139.585 783.801 139.748C784.011 139.912 784.276 139.985 784.54 139.952C784.803 139.919 785.043 139.783 785.206 139.573C785.346 139.393 788.796 135.123 793.576 138.063C798.526 141.123 797.506 146.793 797.466 147.063C797.416 147.323 797.471 147.592 797.619 147.812C797.768 148.031 797.996 148.183 798.256 148.233C798.314 148.231 798.371 148.221 798.426 148.203Z" fill="white"/>
<path d="M688.376 140.634C688.563 140.633 688.745 140.581 688.904 140.482C689.062 140.383 689.189 140.242 689.271 140.074C689.354 139.907 689.387 139.719 689.369 139.534C689.35 139.348 689.28 139.171 689.166 139.024C688.956 138.744 683.926 132.074 689.016 127.894C694.306 123.534 702.016 127.944 702.116 127.984C702.23 128.056 702.357 128.105 702.49 128.126C702.623 128.148 702.76 128.143 702.891 128.111C703.022 128.079 703.145 128.021 703.253 127.94C703.36 127.859 703.451 127.757 703.518 127.64C703.586 127.523 703.629 127.394 703.645 127.26C703.662 127.126 703.651 126.991 703.613 126.861C703.575 126.732 703.512 126.611 703.427 126.507C703.341 126.402 703.236 126.316 703.116 126.254C702.756 126.044 694.116 121.104 687.726 126.354C682.466 130.684 685.326 137.354 687.576 140.244C687.67 140.366 687.792 140.465 687.93 140.533C688.069 140.6 688.222 140.635 688.376 140.634Z" fill="white"/>
<path d="M689.077 183.864C689.208 183.873 689.34 183.857 689.465 183.816C689.59 183.775 689.706 183.71 689.806 183.624C690.007 183.45 690.132 183.204 690.152 182.939C690.172 182.673 690.085 182.411 689.912 182.209C689.738 182.008 689.492 181.883 689.227 181.864C688.416 181.645 687.721 181.122 687.287 180.404C686.287 178.864 686.067 176.404 686.727 173.184C687.127 171.294 687.937 170.104 689.217 169.544C692.547 168.074 697.887 171.204 697.947 171.234C698.059 171.322 698.189 171.385 698.328 171.419C698.467 171.453 698.611 171.457 698.752 171.431C698.892 171.404 699.025 171.348 699.142 171.265C699.259 171.183 699.357 171.076 699.429 170.953C699.501 170.829 699.546 170.692 699.56 170.55C699.575 170.408 699.559 170.264 699.513 170.128C699.468 169.993 699.393 169.869 699.296 169.765C699.198 169.66 699.079 169.578 698.947 169.524C698.687 169.364 692.667 165.834 688.397 167.714C686.507 168.534 685.287 170.244 684.747 172.774C683.957 176.594 684.257 179.564 685.647 181.584C686.395 182.731 687.561 183.541 688.897 183.844L689.077 183.864Z" fill="white"/>
<path d="M677.333 1290.75L750.583 1297.18L749.193 1178.18H676.973L677.333 1290.75Z" fill="#FFBBC7"/>
<path d="M750.572 1298.18C750.823 1298.18 751.066 1298.08 751.252 1297.92C751.355 1297.82 751.437 1297.7 751.492 1297.57C751.547 1297.45 751.574 1297.31 751.572 1297.17L750.192 1178.17C750.192 1177.9 750.087 1177.65 749.899 1177.46C749.712 1177.27 749.457 1177.17 749.192 1177.17H676.972C676.707 1177.17 676.453 1177.27 676.265 1177.46C676.077 1177.65 675.972 1177.9 675.972 1178.17L676.332 1290.74C676.331 1290.99 676.424 1291.23 676.593 1291.41C676.761 1291.6 676.993 1291.71 677.242 1291.74L750.492 1298.18H750.572ZM748.202 1179.18L749.562 1296.09L678.322 1289.83L677.982 1179.18H748.202Z" fill="#1C3180"/>
<path d="M769.353 1352H657.802L674.472 1273.38C686.551 1279.62 699.974 1282.82 713.572 1282.7C727.129 1282.45 740.471 1279.27 752.682 1273.38L769.353 1352Z" fill="#00B7F0"/>
<path d="M769.353 1352H657.802L660.782 1337.91H766.362L769.353 1352Z" fill="#1C3180"/>
<path d="M917.622 1257.25L985.362 1228.65L917.982 1099.39L854.722 1134.52L917.622 1257.25Z" fill="#FFBBC7"/>
<path d="M917.623 1258.25C917.754 1258.25 917.884 1258.22 918.003 1258.17L985.753 1229.58C985.881 1229.52 985.995 1229.44 986.09 1229.34C986.185 1229.24 986.257 1229.12 986.303 1228.99C986.349 1228.86 986.367 1228.72 986.357 1228.58C986.346 1228.44 986.307 1228.31 986.243 1228.19L918.863 1098.93C918.802 1098.81 918.717 1098.7 918.614 1098.61C918.511 1098.53 918.391 1098.46 918.263 1098.43C918.135 1098.39 918.001 1098.38 917.869 1098.39C917.737 1098.41 917.609 1098.45 917.493 1098.52L854.233 1133.64C854.007 1133.76 853.839 1133.97 853.764 1134.22C853.69 1134.47 853.715 1134.74 853.833 1134.97L916.723 1257.71C916.808 1257.87 916.937 1258.01 917.096 1258.1C917.255 1258.2 917.437 1258.25 917.623 1258.25ZM983.973 1228.16L918.083 1255.97L856.083 1134.97L917.603 1100.81L983.973 1228.16Z" fill="#1C3180"/>
<path d="M974.383 1291.62C969.383 1301.03 964.963 1309.01 961.043 1315.77C942.733 1347.28 934.553 1352.18 919.593 1352C913.075 1352.01 906.655 1350.41 900.913 1347.33C889.913 1341.12 881.913 1327.85 884.973 1302.52C885.563 1297.64 886.303 1292.99 887.143 1288.6C892.993 1258.24 903.833 1240.04 903.833 1240.04C903.833 1240.04 927.693 1243.2 946.603 1227.97C965.513 1212.74 964.233 1182.32 964.233 1182.32C964.233 1182.32 984.363 1204.56 995.563 1217.72C999.403 1222.24 1002.15 1225.62 1002.56 1226.59C1004.3 1230.36 1002.86 1238.29 974.383 1291.62Z" fill="#00B7F0"/>
<path d="M961.043 1315.77C942.733 1347.28 934.553 1352.18 919.593 1352C913.075 1352.01 906.655 1350.41 900.913 1347.33C889.913 1341.12 881.913 1327.85 884.973 1302.52C885.563 1297.64 886.303 1292.99 887.143 1288.6C893.453 1286.89 906.043 1284.76 919.243 1289.98C934.323 1295.92 953.933 1310.33 961.043 1315.77Z" fill="#FE0297"/>
<path d="M974.383 1291.62C945.933 1344.94 937.753 1352.22 919.593 1352C913.075 1352.01 906.655 1350.41 900.913 1347.33C907.993 1346.45 917.653 1343.7 929.173 1336.52C949.093 1324.15 982.363 1248.98 995.563 1217.72C999.403 1222.24 1002.15 1225.62 1002.56 1226.59C1004.3 1230.36 1002.86 1238.29 974.383 1291.62Z" fill="#1C3180"/>
<path d="M710.412 1290.97C710.551 1290.97 710.689 1290.94 710.816 1290.88C710.943 1290.83 711.058 1290.75 711.152 1290.65C711.289 1290.5 711.377 1290.31 711.406 1290.11C711.434 1289.91 711.402 1289.71 711.313 1289.53C710.893 1288.68 701.042 1268.8 691.862 1266.84C690.862 1266.6 689.82 1266.62 688.824 1266.87C687.828 1267.12 686.905 1267.6 686.132 1268.28C685.399 1268.8 684.825 1269.52 684.472 1270.35C684.119 1271.18 684.002 1272.09 684.132 1272.99C685.432 1280.99 707.543 1289.91 710.063 1290.9C710.173 1290.94 710.292 1290.97 710.412 1290.97ZM690.412 1268.68C690.769 1268.68 691.124 1268.72 691.472 1268.8C697.962 1270.18 705.372 1282.65 708.282 1288C700.652 1284.73 686.962 1277.87 686.132 1272.67C686.067 1272.12 686.154 1271.56 686.385 1271.06C686.617 1270.55 686.982 1270.12 687.443 1269.82C688.255 1269.1 689.298 1268.69 690.382 1268.68H690.412Z" fill="#FE0297"/>
<path d="M710.412 1290.97C710.528 1290.97 710.643 1290.94 710.752 1290.91C713.452 1289.91 737.132 1281.07 738.182 1273.06C738.352 1271.79 738.042 1269.93 735.632 1268.23C734.913 1267.72 734.095 1267.38 733.232 1267.22C732.369 1267.07 731.482 1267.1 730.632 1267.32C721.472 1269.32 710.022 1288.64 709.542 1289.47C709.439 1289.64 709.392 1289.85 709.408 1290.05C709.424 1290.25 709.502 1290.45 709.632 1290.61C709.727 1290.72 709.846 1290.81 709.981 1290.87C710.116 1290.94 710.263 1290.97 710.412 1290.97ZM732.182 1269.14C733.009 1269.13 733.816 1269.39 734.492 1269.87C735.782 1270.78 736.342 1271.74 736.202 1272.8C735.532 1277.92 721.002 1284.72 712.832 1287.97C716.242 1282.67 724.582 1270.68 731.062 1269.27C731.43 1269.18 731.805 1269.14 732.182 1269.14Z" fill="#FE0297"/>
<path d="M911.202 1253.73C911.371 1253.72 911.537 1253.68 911.684 1253.6C911.832 1253.51 911.956 1253.39 912.045 1253.25C912.134 1253.11 912.185 1252.94 912.193 1252.77C912.201 1252.61 912.166 1252.44 912.092 1252.29C911.682 1251.44 901.832 1231.56 892.652 1229.6C891.651 1229.36 890.61 1229.38 889.614 1229.63C888.617 1229.88 887.695 1230.36 886.922 1231.04C886.187 1231.56 885.612 1232.28 885.259 1233.11C884.906 1233.94 884.789 1234.85 884.922 1235.75C886.212 1243.75 908.322 1252.67 910.842 1253.66C910.956 1253.7 911.079 1253.73 911.202 1253.73ZM891.202 1231.44C891.562 1231.44 891.921 1231.48 892.272 1231.56C898.752 1232.94 906.162 1245.41 909.072 1250.76C901.452 1247.49 887.762 1240.63 886.922 1235.43C886.857 1234.87 886.946 1234.32 887.179 1233.81C887.412 1233.31 887.78 1232.88 888.242 1232.58C889.048 1231.86 890.084 1231.45 891.162 1231.44H891.202Z" fill="#FE0297"/>
<path d="M911.202 1253.73C911.318 1253.73 911.433 1253.71 911.542 1253.67C914.242 1252.67 937.912 1243.83 938.972 1235.81C939.142 1234.55 938.832 1232.68 936.422 1230.99C935.705 1230.48 934.886 1230.14 934.022 1229.98C933.159 1229.82 932.272 1229.86 931.422 1230.08C922.252 1232.08 910.812 1251.4 910.332 1252.22C910.227 1252.39 910.179 1252.6 910.195 1252.8C910.211 1253.01 910.29 1253.21 910.422 1253.37C910.517 1253.48 910.636 1253.57 910.771 1253.63C910.906 1253.7 911.053 1253.73 911.202 1253.73ZM932.972 1231.9C933.797 1231.89 934.603 1232.14 935.272 1232.63C936.572 1233.54 937.132 1234.49 936.992 1235.55C936.312 1240.68 921.782 1247.48 913.622 1250.73C917.032 1245.43 925.372 1233.44 931.852 1232.03C932.22 1231.94 932.595 1231.9 932.972 1231.9Z" fill="#FE0297"/>
<path d="M660.782 1337.91C660.782 1337.91 675.372 1302.55 710.412 1302.53C750.572 1302.53 766.362 1337.91 766.362 1337.91H660.782Z" fill="#FE0297"/>
<path d="M647.262 606.816L858.522 606.036C858.522 606.036 874.522 906.936 877.692 920.166C880.862 933.396 964.072 1170.01 964.072 1170.01L884.312 1217.72C884.312 1217.72 775.122 955.956 771.812 933.906C768.503 911.856 753.992 733.996 753.992 733.996L761.762 1244.79H666.442L647.262 606.816Z" fill="#00B7F0"/>
<path d="M645.942 759.945H683.732V881.645H645.942V759.945Z" fill="#00B7F0"/>
<path d="M645.942 882.646H683.732C683.998 882.646 684.252 882.54 684.439 882.353C684.627 882.165 684.732 881.911 684.732 881.646V759.936C684.732 759.67 684.627 759.416 684.439 759.228C684.252 759.041 683.998 758.936 683.732 758.936H645.942C645.677 758.936 645.423 759.041 645.235 759.228C645.048 759.416 644.942 759.67 644.942 759.936V881.646C644.942 881.911 645.048 882.165 645.235 882.353C645.423 882.54 645.677 882.646 645.942 882.646ZM682.732 880.646H646.942V760.936H682.732V880.646Z" fill="#1C3180"/>
<path d="M835.653 761.24L873.397 759.388L879.364 880.941L841.619 882.794L835.653 761.24Z" fill="#00B7F0"/>
<path d="M841.543 883.506L879.293 881.656C879.556 881.644 879.804 881.529 879.983 881.336C880.073 881.237 880.142 881.122 880.186 880.997C880.231 880.871 880.25 880.738 880.243 880.605L874.243 759.046C874.236 758.914 874.204 758.785 874.148 758.666C874.092 758.548 874.012 758.441 873.915 758.353C873.817 758.264 873.703 758.196 873.579 758.152C873.456 758.108 873.324 758.089 873.193 758.096L835.453 759.946C835.317 759.945 835.183 759.973 835.058 760.026C834.933 760.08 834.821 760.158 834.727 760.256C834.634 760.354 834.561 760.47 834.514 760.597C834.467 760.725 834.446 760.86 834.453 760.996L840.453 882.556C840.467 882.82 840.586 883.068 840.783 883.246C840.884 883.339 841.005 883.41 841.136 883.455C841.266 883.5 841.405 883.517 841.543 883.506ZM878.243 879.706L842.493 881.466L836.642 761.896L872.383 760.146L878.243 879.706Z" fill="#1C3180"/>
<path d="M836.972 790.225L874.733 788.685C874.864 788.68 874.993 788.649 875.112 788.594C875.231 788.539 875.339 788.461 875.428 788.364C875.517 788.268 875.586 788.154 875.632 788.031C875.677 787.908 875.698 787.777 875.693 787.645C875.687 787.514 875.656 787.385 875.601 787.266C875.546 787.146 875.468 787.039 875.371 786.95C875.275 786.861 875.162 786.792 875.038 786.746C874.915 786.701 874.784 786.68 874.653 786.685L836.892 788.225C836.627 788.225 836.373 788.331 836.185 788.518C835.998 788.706 835.892 788.96 835.892 789.225C835.892 789.491 835.998 789.745 836.185 789.933C836.373 790.12 836.627 790.225 836.892 790.225H836.972Z" fill="#1C3180"/>
<path d="M646.362 788.846H683.732C683.998 788.846 684.252 788.74 684.439 788.553C684.627 788.365 684.732 788.111 684.732 787.846C684.732 787.58 684.627 787.326 684.439 787.139C684.252 786.951 683.998 786.846 683.732 786.846H646.362C646.097 786.846 645.843 786.951 645.655 787.139C645.468 787.326 645.362 787.58 645.362 787.846C645.362 788.111 645.468 788.365 645.655 788.553C645.843 788.74 646.097 788.846 646.362 788.846Z" fill="#1C3180"/>
<path d="M646.362 783.885C648.309 783.885 650.176 783.112 651.552 781.736C652.929 780.359 653.702 778.492 653.702 776.545C653.702 774.599 652.929 772.732 651.552 771.355C650.176 769.979 648.309 769.205 646.362 769.205C646.176 769.195 645.989 769.195 645.802 769.205C645.562 769.239 645.342 769.36 645.184 769.544C645.026 769.728 644.94 769.963 644.942 770.205V782.845C644.94 783.088 645.026 783.323 645.184 783.507C645.342 783.691 645.562 783.811 645.802 783.845C645.988 783.874 646.175 783.887 646.362 783.885ZM646.942 771.235C648.253 771.375 649.466 771.995 650.348 772.975C651.229 773.955 651.717 775.227 651.717 776.545C651.717 777.864 651.229 779.136 650.348 780.116C649.466 781.096 648.253 781.716 646.942 781.855V771.235Z" fill="#1C3180"/>
<path d="M874.552 784.925C874.684 784.925 874.815 784.898 874.937 784.847C875.059 784.795 875.169 784.72 875.262 784.625C875.358 784.528 875.434 784.413 875.484 784.285C875.534 784.158 875.557 784.022 875.552 783.885L874.932 771.265C874.924 771.129 874.888 770.995 874.826 770.873C874.764 770.751 874.678 770.643 874.572 770.555C874.467 770.466 874.344 770.399 874.211 770.36C874.079 770.32 873.939 770.308 873.802 770.325C871.969 770.556 870.29 771.471 869.102 772.886C867.915 774.302 867.305 776.114 867.396 777.959C867.487 779.805 868.272 781.548 869.594 782.839C870.915 784.131 872.675 784.876 874.522 784.925H874.552ZM872.992 772.555L873.492 782.795C872.369 782.526 871.363 781.9 870.626 781.011C869.889 780.121 869.46 779.017 869.403 777.863C869.347 776.709 869.666 775.568 870.313 774.611C870.96 773.654 871.9 772.933 872.992 772.555Z" fill="#1C3180"/>
<path d="M676.972 726.106H720.372C720.637 726.106 720.892 726 721.08 725.813C721.267 725.625 721.372 725.371 721.372 725.106V658.826C721.372 658.56 721.267 658.306 721.08 658.119C720.892 657.931 720.637 657.826 720.372 657.826H676.972C676.707 657.826 676.453 657.931 676.265 658.119C676.078 658.306 675.972 658.56 675.972 658.826V725.106C675.972 725.371 676.078 725.625 676.265 725.813C676.453 726 676.707 726.106 676.972 726.106ZM719.372 724.106H677.972V659.826H719.372V724.106Z" fill="#1C3180"/>
<path d="M676.972 674.945H720.372C720.637 674.945 720.892 674.84 721.08 674.652C721.267 674.465 721.372 674.211 721.372 673.945C721.372 673.68 721.267 673.426 721.08 673.238C720.892 673.051 720.637 672.945 720.372 672.945H676.972C676.707 672.945 676.453 673.051 676.265 673.238C676.078 673.426 675.972 673.68 675.972 673.945C675.972 674.211 676.078 674.465 676.265 674.652C676.453 674.84 676.707 674.945 676.972 674.945Z" fill="#1C3180"/>
<path d="M698.672 672.225C699.632 672.227 700.571 671.945 701.369 671.413C702.168 670.881 702.791 670.124 703.16 669.238C703.529 668.352 703.626 667.377 703.44 666.435C703.254 665.494 702.793 664.629 702.115 663.949C701.437 663.27 700.573 662.807 699.632 662.619C698.691 662.431 697.715 662.527 696.828 662.894C695.942 663.26 695.184 663.882 694.65 664.68C694.117 665.478 693.832 666.416 693.832 667.375C693.835 668.659 694.345 669.89 695.252 670.798C696.159 671.707 697.388 672.22 698.672 672.225ZM698.672 664.535C699.237 664.533 699.789 664.699 700.259 665.012C700.729 665.324 701.096 665.769 701.313 666.29C701.53 666.811 701.588 667.385 701.478 667.939C701.368 668.493 701.097 669.001 700.698 669.401C700.298 669.8 699.789 670.071 699.236 670.181C698.682 670.291 698.108 670.233 697.587 670.016C697.066 669.8 696.621 669.433 696.308 668.963C695.996 668.492 695.83 667.94 695.832 667.375C695.83 667 695.901 666.628 696.042 666.281C696.184 665.933 696.392 665.617 696.656 665.351C696.92 665.084 697.234 664.872 697.58 664.727C697.926 664.582 698.297 664.507 698.672 664.505V664.535Z" fill="#1C3180"/>
<path d="M814.512 321C814.512 321 788.852 348.87 752.802 346.72C716.752 344.57 701.202 321 701.202 321C701.202 321 668.512 329.31 640.112 352.6C585.922 397.01 552.812 482.2 552.812 482.2L633.142 484.21L621.892 674.7L877.522 670.95L855.302 481.21L944.982 476.12C944.982 476.12 916.102 387.52 882.342 357.44C853.952 332.15 814.512 321 814.512 321Z" fill="#FE0297"/>
<path d="M929.684 476.98C929.684 476.98 935.924 546.17 929.684 591.98C923.444 637.79 905.934 722.26 892.764 748.73C879.594 775.2 869.464 787.97 865.904 786.25C862.344 784.53 867.224 776.51 867.224 776.51C867.224 776.51 859.324 785.51 856.164 783.23C853.004 780.95 862.874 763.47 862.874 763.47C862.874 763.47 849.444 777.17 845.874 774.4C842.304 771.63 855.284 757.81 855.284 757.81C855.284 757.81 843.104 766.11 840.604 763.47C838.104 760.83 867.464 722.2 865.814 719.62C864.874 718.14 850.354 741.93 843.374 737.53C841.924 736.62 862.324 686.73 863.784 677.75C867.334 655.9 865.434 567.95 863.924 555.01L855.284 481.25L929.684 476.98Z" fill="#FFBBC7"/>
<path d="M866.582 787.36C874.032 787.36 889.052 758.36 893.662 749.13C906.792 722.74 924.352 638.49 930.662 592.13C936.842 546.77 930.802 478.39 930.742 477.7C930.718 477.435 930.59 477.19 930.386 477.019C930.181 476.849 929.917 476.766 929.652 476.79C929.387 476.814 929.142 476.942 928.972 477.147C928.801 477.351 928.718 477.615 928.742 477.88C928.802 478.57 934.832 546.72 928.682 591.88C922.382 638.15 904.902 722.1 891.862 748.31C876.862 778.4 868.192 786.31 866.332 785.38C866.173 785.31 866.032 785.204 865.921 785.071C865.81 784.937 865.732 784.779 865.692 784.61C865.162 782.84 866.872 779.04 868.062 777.06C868.186 776.847 868.227 776.596 868.177 776.355C868.127 776.114 867.989 775.899 867.791 775.753C867.593 775.607 867.348 775.539 867.102 775.563C866.857 775.586 866.629 775.699 866.462 775.88C863.512 779.22 858.382 783.62 856.732 782.44C855.462 781.54 858.802 772.75 863.732 763.99C863.855 763.778 863.895 763.529 863.846 763.289C863.797 763.049 863.662 762.836 863.466 762.689C863.27 762.542 863.027 762.473 862.783 762.493C862.539 762.514 862.311 762.623 862.142 762.8C855.952 769.11 848.192 774.97 846.482 773.64C846.408 773.578 846.35 773.5 846.312 773.411C846.274 773.323 846.257 773.226 846.262 773.13C846.032 770.3 852.122 762.67 856.012 758.53C856.178 758.346 856.27 758.108 856.27 757.86C856.27 757.613 856.178 757.374 856.012 757.19C855.851 757.002 855.626 756.881 855.38 756.849C855.134 756.818 854.886 756.879 854.682 757.02C848.772 761.02 842.682 763.7 841.412 762.91C841.472 760.57 849.522 748.4 854.892 740.29C865.172 724.78 867.622 720.67 866.632 719.11C866.535 718.957 866.403 718.828 866.246 718.736C866.09 718.644 865.914 718.59 865.732 718.58C864.732 718.58 863.992 719.45 860.842 723.35C856.482 728.73 848.512 738.57 844.302 736.94C844.742 734.29 849.212 722.27 853.182 711.6C858.492 697.34 863.982 682.6 864.732 677.94C868.422 655.22 866.312 567.18 864.882 554.94C863.382 542.15 851.882 442.23 851.782 441.22C851.752 440.955 851.617 440.713 851.408 440.547C851.199 440.381 850.932 440.305 850.667 440.335C850.402 440.366 850.16 440.5 849.994 440.709C849.828 440.919 849.752 441.185 849.782 441.45C849.892 442.45 861.382 542.38 862.882 555.17C864.292 567.17 866.302 655.76 862.752 677.63C862.032 682.08 856.332 697.4 851.302 710.92C841.392 737.54 841.632 737.69 842.792 738.42C848.362 741.93 856.792 731.51 862.382 724.62C862.622 724.31 862.872 724.01 863.122 723.7C860.862 727.7 856.742 733.87 853.212 739.2C841.402 757.04 838.212 762.49 839.842 764.2C841.642 766.1 846.302 764.2 850.262 762.08C847.322 765.75 844.012 770.54 844.262 773.3C844.283 773.674 844.383 774.04 844.555 774.372C844.728 774.705 844.969 774.997 845.262 775.23C848.062 777.41 854.422 772.67 859.072 768.52C856.072 774.6 852.972 782.24 855.572 784.08C857.802 785.66 861.312 783.44 864.072 781.08C863.594 782.403 863.49 783.832 863.772 785.21C863.897 785.644 864.112 786.046 864.403 786.391C864.694 786.736 865.055 787.015 865.462 787.21C865.82 787.34 866.202 787.392 866.582 787.36Z" fill="#1C3180"/>
<path d="M867.223 777.47C867.381 777.47 867.536 777.434 867.677 777.362C867.818 777.291 867.94 777.187 868.033 777.06C868.633 776.23 882.723 756.79 885.693 749.23C885.741 749.107 885.764 748.976 885.762 748.844C885.759 748.713 885.73 748.583 885.677 748.462C885.624 748.341 885.548 748.232 885.453 748.141C885.358 748.05 885.246 747.978 885.123 747.93C885 747.882 884.869 747.859 884.738 747.862C884.606 747.864 884.476 747.893 884.355 747.946C884.234 747.999 884.125 748.075 884.034 748.17C883.943 748.265 883.871 748.377 883.823 748.5C880.953 755.82 866.563 775.68 866.413 775.88C866.335 775.986 866.279 776.107 866.248 776.235C866.217 776.363 866.212 776.496 866.232 776.626C866.253 776.756 866.299 776.881 866.367 776.993C866.436 777.105 866.526 777.203 866.633 777.28C866.805 777.404 867.011 777.471 867.223 777.47Z" fill="#1C3180"/>
<path d="M862.872 764.43C863.011 764.431 863.149 764.403 863.276 764.348C863.403 764.293 863.518 764.212 863.612 764.11C864.092 763.58 875.382 751.11 879.012 745.36C879.093 745.249 879.151 745.123 879.181 744.989C879.211 744.855 879.213 744.716 879.187 744.581C879.161 744.446 879.108 744.318 879.03 744.205C878.953 744.091 878.853 743.995 878.736 743.922C878.62 743.849 878.49 743.801 878.354 743.781C878.218 743.76 878.08 743.768 877.947 743.803C877.814 743.839 877.69 743.901 877.583 743.987C877.475 744.072 877.387 744.179 877.322 744.3C873.782 749.94 862.252 762.63 862.132 762.76C861.955 762.956 861.863 763.215 861.876 763.479C861.889 763.744 862.006 763.992 862.202 764.17C862.386 764.337 862.624 764.429 862.872 764.43Z" fill="#1C3180"/>
<path d="M855.303 758.77C855.438 758.77 855.571 758.742 855.695 758.689C855.819 758.635 855.93 758.558 856.023 758.46C856.483 757.98 867.403 746.64 870.833 742.07C870.992 741.858 871.061 741.591 871.023 741.329C870.986 741.066 870.845 740.829 870.633 740.67C870.421 740.511 870.154 740.443 869.892 740.48C869.629 740.518 869.392 740.658 869.233 740.87C865.873 745.34 854.693 756.96 854.583 757.08C854.397 757.268 854.292 757.521 854.292 757.785C854.292 758.049 854.397 758.303 854.583 758.49C854.679 758.582 854.792 758.654 854.915 758.702C855.039 758.751 855.171 758.774 855.303 758.77Z" fill="#1C3180"/>
<path d="M853.783 467.93C853.876 467.941 853.97 467.941 854.063 467.93C854.19 467.895 854.308 467.834 854.412 467.752C854.515 467.671 854.602 467.569 854.666 467.454C854.73 467.339 854.771 467.212 854.786 467.081C854.8 466.95 854.789 466.817 854.753 466.69L848.513 445.29C848.439 445.036 848.266 444.821 848.034 444.694C847.801 444.566 847.527 444.536 847.273 444.61C847.018 444.685 846.803 444.857 846.676 445.089C846.548 445.322 846.518 445.596 846.593 445.85L852.823 467.25C852.89 467.451 853.02 467.624 853.192 467.746C853.365 467.869 853.571 467.933 853.783 467.93Z" fill="#1C3180"/>
<path d="M561.254 482.42C561.254 482.42 528.204 551.15 575.974 561.96C623.744 572.77 698.844 462.82 710.264 450.81C721.684 438.8 758.634 429.81 760.434 419.56C762.234 409.31 756.434 408.75 756.434 408.75C756.434 408.75 764.044 403.64 763.434 398.23C763.335 396.75 762.873 395.318 762.088 394.06C761.303 392.802 760.22 391.758 758.934 391.02C758.934 391.02 764.404 384.71 763.474 379.61C762.544 374.51 755.594 372.7 755.594 372.7C755.594 372.7 759.314 366.7 756.424 361.88C753.534 357.06 744.214 355.88 735.194 360.38C726.174 364.88 718.544 371.24 716.744 368.84C714.944 366.44 708.323 341.35 699.323 344.69C699.323 344.69 701.224 380.44 691.614 392.76C682.004 405.08 584.984 483.01 584.984 483.01L561.254 482.42Z" fill="#FFBBC7"/>
<path d="M582.834 563.71C623.094 563.71 677.184 494.4 701.054 463.81C705.784 457.76 709.194 453.38 710.984 451.5C716.094 446.12 726.564 441.31 736.694 436.65C749.384 430.82 760.354 425.78 761.414 419.74C762.184 415.42 761.744 412.14 760.114 409.99C759.659 409.381 759.092 408.865 758.444 408.47C760.764 406.58 764.924 402.53 764.444 398.12C764.329 396.683 763.914 395.286 763.224 394.02C762.535 392.754 761.588 391.646 760.444 390.77C761.974 388.77 765.284 383.77 764.444 379.43C763.604 375.09 759.204 372.92 757.024 372.12C758.024 370.03 759.694 365.39 757.264 361.37C753.914 355.79 743.804 354.95 734.744 359.49C731.664 361.02 728.744 362.77 726.194 364.31C722.814 366.31 718.194 369.11 717.534 368.24C716.838 366.855 716.237 365.425 715.734 363.96C712.624 355.87 706.854 340.82 698.964 343.75C698.762 343.825 698.59 343.962 698.473 344.142C698.356 344.322 698.3 344.535 698.314 344.75C698.314 345.11 700.084 380.27 690.814 392.15C681.384 404.24 575.134 489.73 574.064 490.59C573.857 490.757 573.725 490.999 573.697 491.264C573.668 491.528 573.747 491.793 573.914 492C574.081 492.207 574.323 492.339 574.587 492.367C574.852 492.395 575.117 492.317 575.324 492.15C579.704 488.62 682.814 405.65 692.394 393.38C701.394 381.81 700.584 350.98 700.394 345.45C706.144 344.45 711.394 358.04 713.904 364.68C714.435 366.334 715.129 367.932 715.974 369.45C717.714 371.77 721.504 369.45 727.264 366.03C729.794 364.51 732.664 362.79 735.674 361.28C744.524 356.86 753.114 358.28 755.594 362.41C758.074 366.54 754.804 372.13 754.774 372.18C754.69 372.313 754.64 372.464 754.626 372.62C754.612 372.777 754.635 372.934 754.694 373.08C754.753 373.224 754.845 373.353 754.963 373.456C755.082 373.558 755.222 373.631 755.374 373.67C755.434 373.67 761.714 375.39 762.514 379.8C763.354 384.38 758.254 390.32 758.204 390.38C758.103 390.497 758.03 390.636 757.993 390.786C757.955 390.937 757.952 391.093 757.985 391.245C758.018 391.396 758.086 391.537 758.182 391.658C758.279 391.779 758.403 391.875 758.544 391.94C759.678 392.6 760.631 393.531 761.317 394.649C762.003 395.768 762.4 397.04 762.474 398.35C763.004 403.09 755.964 407.88 755.894 407.93C755.725 408.045 755.595 408.209 755.523 408.399C755.45 408.59 755.437 408.798 755.486 408.996C755.535 409.194 755.643 409.373 755.797 409.507C755.95 409.642 756.141 409.727 756.344 409.75C757.254 409.946 758.056 410.482 758.584 411.25C759.814 412.92 760.124 415.74 759.474 419.4C758.594 424.4 747.054 429.71 735.884 434.84C725.584 439.58 714.944 444.47 709.564 450.13C707.704 452.13 704.274 456.49 699.564 462.59C675.884 492.93 622.194 561.73 583.014 561.73C580.747 561.735 578.486 561.49 576.274 561C565.874 558.64 558.604 553.3 554.654 545.12C543.584 522.22 561.654 484.12 561.844 483.71C561.905 483.591 561.942 483.461 561.953 483.328C561.963 483.195 561.947 483.061 561.905 482.934C561.862 482.807 561.795 482.69 561.707 482.59C561.619 482.489 561.511 482.408 561.391 482.349C561.271 482.291 561.14 482.258 561.006 482.251C560.873 482.244 560.739 482.264 560.614 482.31C560.488 482.356 560.373 482.426 560.275 482.517C560.177 482.608 560.098 482.718 560.044 482.84C559.274 484.44 541.364 522.21 552.854 545.99C557.074 554.75 564.854 560.45 575.854 562.99C578.147 563.484 580.488 563.726 582.834 563.71Z" fill="#1C3180"/>
<path d="M756.803 358.14C798.853 358.14 824.113 326.2 824.363 325.87C824.526 325.661 824.599 325.395 824.567 325.131C824.534 324.868 824.397 324.628 824.188 324.465C823.978 324.302 823.713 324.229 823.449 324.262C823.186 324.294 822.946 324.431 822.783 324.64C822.533 324.96 797.843 356.14 756.783 356.14H755.533C713.743 355.5 691.583 325.32 691.363 325.01C691.289 324.898 691.192 324.801 691.08 324.727C690.967 324.653 690.841 324.602 690.708 324.578C690.576 324.554 690.44 324.557 690.308 324.587C690.177 324.616 690.053 324.672 689.943 324.751C689.834 324.83 689.742 324.93 689.673 325.046C689.603 325.161 689.557 325.289 689.539 325.423C689.52 325.556 689.529 325.692 689.564 325.822C689.599 325.952 689.66 326.074 689.743 326.18C689.963 326.49 712.673 357.48 755.503 358.18L756.803 358.14Z" fill="#1C3180"/>
<path d="M623.504 666.21L865.184 662.14C865.449 662.14 865.703 662.035 865.891 661.847C866.078 661.66 866.184 661.405 866.184 661.14C866.184 660.875 866.078 660.621 865.891 660.433C865.703 660.246 865.449 660.14 865.184 660.14L623.484 664.21C623.218 664.21 622.964 664.316 622.776 664.503C622.589 664.691 622.484 664.945 622.484 665.21C622.484 665.475 622.589 665.73 622.776 665.917C622.964 666.105 623.218 666.21 623.484 666.21H623.504Z" fill="#1C3180"/>
<path d="M854.403 473.21H854.463L940.533 467.88C940.795 467.862 941.039 467.742 941.213 467.545C941.387 467.349 941.477 467.092 941.463 466.83C941.456 466.699 941.422 466.57 941.365 466.452C941.307 466.333 941.227 466.227 941.129 466.14C941.03 466.053 940.915 465.986 940.791 465.943C940.666 465.9 940.535 465.882 940.403 465.89L854.343 471.21C854.078 471.218 853.827 471.331 853.645 471.524C853.463 471.717 853.365 471.975 853.373 472.24C853.381 472.505 853.494 472.757 853.688 472.938C853.881 473.12 854.138 473.218 854.403 473.21Z" fill="#1C3180"/>
<path d="M594.383 476.42C594.648 476.42 594.902 476.315 595.09 476.127C595.277 475.94 595.383 475.686 595.383 475.42C595.383 475.155 595.277 474.901 595.09 474.713C594.902 474.526 594.648 474.42 594.383 474.42L557.723 472.96C557.592 472.955 557.46 472.976 557.337 473.021C557.214 473.066 557.1 473.136 557.004 473.225C556.907 473.314 556.829 473.421 556.774 473.541C556.719 473.66 556.688 473.789 556.683 473.92C556.678 474.052 556.698 474.183 556.744 474.306C556.789 474.429 556.858 474.543 556.948 474.639C557.037 474.736 557.144 474.814 557.263 474.869C557.382 474.924 557.512 474.955 557.643 474.96L594.303 476.42H594.383Z" fill="#1C3180"/>
<path d="M1085.5 832.69C1165.68 832.69 1230.67 785.969 1230.67 728.336C1230.67 670.703 1165.68 623.983 1085.5 623.983C1005.32 623.983 940.329 670.703 940.329 728.336C940.329 760.096 960.067 788.542 991.206 807.682C990.914 821.483 981.724 832.642 972.111 837.115C960.468 841.217 1004.7 851.426 1023.43 822.697C1042.25 829.105 1063.29 832.69 1085.5 832.69Z" fill="#FECB02"/>
<path d="M1084.29 780.437C1088.23 780.437 1091.43 777.241 1091.43 773.299C1091.43 769.357 1088.23 766.161 1084.29 766.161C1080.34 766.161 1077.15 769.357 1077.15 773.299C1077.15 777.241 1080.34 780.437 1084.29 780.437Z" fill="#FE0297"/>
<path d="M1086.42 758.813C1086.34 759.315 1086.09 759.773 1085.7 760.104C1085.32 760.436 1084.83 760.618 1084.32 760.618C1083.81 760.618 1083.32 760.436 1082.94 760.104C1082.55 759.773 1082.3 759.315 1082.22 758.813C1077.57 728.725 1068.09 656.399 1084.33 656.399C1100.33 656.415 1090.97 728.717 1086.42 758.813Z" fill="#FE0297"/>
<path d="M1115.74 791.655C1119.68 791.655 1122.88 788.459 1122.88 784.517C1122.88 780.575 1119.68 777.379 1115.74 777.379C1111.79 777.379 1108.59 780.575 1108.59 784.517C1108.59 788.459 1111.79 791.655 1115.74 791.655Z" fill="#FE0297"/>
<path d="M1121.35 770.987C1121.16 771.458 1120.8 771.843 1120.34 772.072C1119.89 772.301 1119.37 772.359 1118.87 772.235C1118.38 772.11 1117.94 771.812 1117.65 771.395C1117.36 770.978 1117.23 770.469 1117.28 769.963C1120.17 739.658 1128.74 667.223 1144.49 671.211C1160.01 675.137 1133.16 742.947 1121.35 770.987Z" fill="#FE0297"/>
<path d="M1049.52 791.655C1053.47 791.655 1056.67 788.459 1056.67 784.517C1056.67 780.575 1053.47 777.379 1049.52 777.379C1045.58 777.379 1042.38 780.575 1042.38 784.517C1042.38 788.459 1045.58 791.655 1049.52 791.655Z" fill="#FE0297"/>
<path d="M1043.95 770.987C1044.15 771.451 1044.51 771.83 1044.96 772.054C1045.41 772.278 1045.93 772.334 1046.42 772.21C1046.91 772.087 1047.34 771.792 1047.63 771.38C1047.92 770.968 1048.06 770.465 1048.01 769.963C1045.13 739.658 1036.55 667.223 1020.84 671.211C1005.25 675.137 1032.07 742.947 1043.95 770.987Z" fill="#FE0297"/>
<path d="M483.54 1156.67C483.54 1156.67 428.901 1185.28 422.091 1212.81C415.281 1240.34 445.54 1247.81 445.54 1247.81C445.54 1247.81 457.251 1253.39 471.241 1245.72C485.231 1238.05 483.54 1156.67 483.54 1156.67Z" fill="#00B7F0"/>
<path d="M549.08 1158.14C549.08 1158.14 536.59 1144.93 508.65 1147.28C480.71 1149.63 468.081 1169.94 464.021 1195.66C459.961 1221.38 446.421 1228.83 445.511 1241.8C444.601 1254.77 450.511 1267.8 450.511 1267.8C450.511 1267.8 396.33 1262.01 370.17 1273.73C344.01 1285.45 321.901 1312.09 317.381 1337.81C312.861 1363.53 315.381 1379.33 315.381 1379.33C315.381 1379.33 297.511 1382.03 297.511 1390.16C297.511 1398.29 305.181 1408.57 305.181 1408.57H718.7C718.7 1408.57 732.53 1386.57 710.42 1382.49C688.31 1378.41 665.281 1387 649.271 1383.84C633.26 1380.68 612.941 1366.84 611.591 1358.21C610.241 1349.58 607.981 1317.45 589.931 1298.98C571.881 1280.51 554.16 1273.2 554.16 1273.2C554.16 1273.2 587.51 1177.47 549.08 1158.14Z" fill="#FE0297"/>
<path d="M332.24 1408.57H191C191 1408.57 218.47 1401.99 247.2 1394.88C257.93 1392.22 268.831 1389.49 278.551 1387C308.021 1379.43 323.221 1344.58 323.221 1344.58L332.24 1408.57Z" fill="#FE0297"/>
<path d="M247.2 1394.88L245.69 1408.57H191C191 1408.57 218.47 1401.99 247.2 1394.88Z" fill="#00B7F0"/>
<path d="M549.08 1158.14C549.08 1158.14 589.52 1180.32 602.36 1214.14C615.2 1247.96 599.36 1264.5 576.57 1263.91C553.78 1263.32 549.08 1158.14 549.08 1158.14Z" fill="#00B7F0"/>
<path d="M495.82 1239.36C502.326 1239.36 507.601 1237.56 507.601 1235.33C507.601 1233.11 502.326 1231.3 495.82 1231.3C489.314 1231.3 484.04 1233.11 484.04 1235.33C484.04 1237.56 489.314 1239.36 495.82 1239.36Z" fill="#1C3180"/>
<path d="M522.271 1218.66C523.745 1218.66 524.94 1215.58 524.94 1211.77C524.94 1207.97 523.745 1204.88 522.271 1204.88C520.796 1204.88 519.601 1207.97 519.601 1211.77C519.601 1215.58 520.796 1218.66 522.271 1218.66Z" fill="#1C3180"/>
<path d="M482.16 1217.94C483.635 1217.94 484.83 1214.86 484.83 1211.05C484.83 1207.25 483.635 1204.16 482.16 1204.16C480.686 1204.16 479.49 1207.25 479.49 1211.05C479.49 1214.86 480.686 1217.94 482.16 1217.94Z" fill="#1C3180"/>
<path d="M510.431 1270.36C508.138 1270.39 505.886 1269.74 503.96 1268.5C499.28 1265.5 496.961 1259.19 495.841 1253.23C494.701 1258.86 492.4 1264.76 487.78 1267.97C483.16 1271.18 476.87 1271.13 469.25 1267.71C469.122 1267.66 469.006 1267.59 468.908 1267.49C468.81 1267.4 468.733 1267.28 468.681 1267.16C468.629 1267.03 468.603 1266.9 468.605 1266.76C468.607 1266.62 468.636 1266.49 468.692 1266.36C468.749 1266.24 468.83 1266.13 468.931 1266.04C469.032 1265.94 469.15 1265.87 469.279 1265.83C469.409 1265.79 469.545 1265.77 469.681 1265.78C469.817 1265.79 469.95 1265.83 470.07 1265.89C477 1269 482.581 1269.14 486.641 1266.33C493.201 1261.77 494.641 1250.51 494.841 1244.09C494.731 1241.41 494.841 1239.56 494.841 1239.31C494.841 1239.05 494.945 1238.79 495.133 1238.6C495.32 1238.42 495.576 1238.31 495.841 1238.31C496.096 1238.31 496.342 1238.41 496.527 1238.58C496.713 1238.76 496.826 1239 496.841 1239.25C496.841 1239.5 496.971 1241.37 496.841 1244.08C497.121 1250.74 498.56 1262.58 505.03 1266.78C508.58 1269.09 513.331 1268.78 519.131 1265.87C519.364 1265.77 519.625 1265.77 519.861 1265.86C520.098 1265.94 520.293 1266.12 520.407 1266.34C520.521 1266.57 520.546 1266.83 520.476 1267.07C520.406 1267.31 520.247 1267.52 520.03 1267.65C517.083 1269.28 513.797 1270.21 510.431 1270.36Z" fill="#1C3180"/>
<path d="M432.761 1409.57C432.638 1409.57 432.516 1409.54 432.4 1409.5C432.277 1409.45 432.165 1409.38 432.069 1409.29C431.974 1409.2 431.898 1409.09 431.845 1408.97C431.792 1408.85 431.763 1408.72 431.761 1408.59C431.758 1408.45 431.782 1408.32 431.83 1408.2C433.78 1403.2 437.6 1389.62 431.92 1387.2C427.4 1385.29 423.92 1386.2 419.5 1387.41C416.358 1388.35 413.122 1388.94 409.851 1389.16C400.271 1389.63 375.281 1384.64 374.221 1384.43C373.955 1384.43 373.701 1384.33 373.514 1384.14C373.326 1383.95 373.221 1383.7 373.221 1383.43C373.221 1383.17 373.326 1382.91 373.514 1382.72C373.701 1382.54 373.955 1382.43 374.221 1382.43C386.47 1378.79 398.26 1373.76 409.36 1367.43C427.86 1356.98 428.49 1310.69 428.49 1310.23C428.49 1309.97 428.596 1309.71 428.783 1309.52C428.971 1309.34 429.225 1309.23 429.49 1309.23C429.755 1309.23 430.01 1309.34 430.197 1309.52C430.385 1309.71 430.49 1309.97 430.49 1310.23C430.49 1312.23 429.851 1358.14 410.341 1369.16C400.255 1374.85 389.637 1379.54 378.641 1383.16C386.241 1384.58 402.701 1387.45 409.801 1387.1C412.93 1386.88 416.025 1386.31 419.03 1385.41C423.63 1384.18 427.59 1383.12 432.74 1385.29C441.37 1388.93 434.06 1408.03 433.74 1408.84C433.681 1409.05 433.552 1409.24 433.375 1409.37C433.198 1409.5 432.982 1409.57 432.761 1409.57Z" fill="#1C3180"/>
<path d="M570.901 1409.57H469.411C469.292 1409.57 469.175 1409.55 469.061 1409.51C468.511 1409.31 455.541 1404.51 448.851 1397.37C441.941 1389.96 448.341 1365.82 448.611 1364.8C448.638 1364.67 448.691 1364.54 448.769 1364.43C448.847 1364.32 448.946 1364.22 449.062 1364.15C449.178 1364.08 449.308 1364.03 449.443 1364.01C449.578 1363.99 449.715 1364 449.847 1364.03C449.979 1364.07 450.102 1364.13 450.209 1364.21C450.317 1364.3 450.406 1364.4 450.471 1364.52C450.536 1364.64 450.575 1364.77 450.587 1364.91C450.599 1365.04 450.583 1365.18 450.54 1365.31C450.48 1365.55 444.151 1389.41 450.311 1396C456.311 1402.41 468.071 1407 469.591 1407.57H570.261C571.261 1405.23 574.901 1396.21 571.981 1391.22C570.781 1389.16 568.52 1388.01 565.25 1387.81C559.25 1387.43 552.61 1387.41 546.25 1387.39C536.25 1387.39 526.86 1387.33 522 1385.84C517.14 1384.35 511.001 1376.4 508.481 1368.15C506.631 1362.15 506.981 1357.15 509.481 1354.05C515.481 1346.5 509.35 1322.59 509.29 1322.35C509.224 1322.09 509.263 1321.82 509.398 1321.59C509.533 1321.36 509.754 1321.2 510.011 1321.13C510.268 1321.07 510.541 1321.1 510.77 1321.24C510.999 1321.37 511.165 1321.59 511.231 1321.85C511.491 1322.85 517.66 1346.97 511.04 1355.29C508.98 1357.89 508.751 1362.24 510.401 1367.56C512.751 1375.12 518.331 1382.62 522.591 1383.93C527.171 1385.33 536.441 1385.36 546.261 1385.39C552.681 1385.39 559.261 1385.39 565.411 1385.81C569.411 1386.06 572.181 1387.54 573.741 1390.21C577.631 1396.87 572.071 1408.51 571.831 1409C571.747 1409.18 571.616 1409.32 571.451 1409.42C571.286 1409.53 571.094 1409.58 570.901 1409.57Z" fill="#1C3180"/>
<path d="M450.48 1267.8C450.48 1267.8 470.941 1291.54 505.301 1288.11C539.661 1284.68 558.841 1270.31 558.841 1270.31L568.74 1277.78C568.74 1277.78 533.29 1302.15 494.65 1298.36C456.01 1294.57 436.83 1266.8 436.83 1266.8L450.48 1267.8Z" fill="#1C3180"/>
<path d="M538.53 1305.7C539.353 1305.7 540.021 1302.59 540.021 1298.76C540.021 1294.93 539.353 1291.82 538.53 1291.82C537.707 1291.82 537.04 1294.93 537.04 1298.76C537.04 1302.59 537.707 1305.7 538.53 1305.7Z" fill="#1C3180"/>
<path d="M538.53 1344.58C544.749 1344.58 549.79 1335.88 549.79 1325.14C549.79 1314.4 544.749 1305.7 538.53 1305.7C532.312 1305.7 527.271 1314.4 527.271 1325.14C527.271 1335.88 532.312 1344.58 538.53 1344.58Z" fill="#FECB02"/>
<path d="M596.127 142.835V307.442C596.127 312.284 592.745 316.179 588.568 316.179C584.391 316.179 581.008 320.104 581.008 324.917V352.586C581.008 360.391 572.866 364.294 568.099 358.782L533.561 318.735C532.909 317.95 532.094 317.315 531.173 316.874C530.252 316.433 529.247 316.196 528.225 316.179H330.746C326.569 316.179 323.187 312.262 323.187 307.442V142.835C323.187 137.993 326.569 134.097 330.746 134.097H588.568C592.745 134.068 596.127 137.993 596.127 142.835Z" fill="white"/>
<path d="M573.377 362.109C572.256 362.09 571.153 361.825 570.146 361.335C569.138 360.844 568.251 360.14 567.545 359.27L533 319.223C532.42 318.514 531.692 317.939 530.868 317.539C530.043 317.139 529.142 316.924 528.225 316.907H330.746C326.176 316.907 322.458 312.655 322.458 307.442V142.834C322.458 137.599 326.176 133.369 330.746 133.369H588.568C593.138 133.369 596.856 137.628 596.856 142.834V307.442C596.856 312.677 593.138 316.907 588.568 316.907C584.799 316.907 581.738 320.511 581.738 324.917V352.585C581.738 356.772 579.477 360.318 575.986 361.614C575.153 361.936 574.27 362.104 573.377 362.109ZM330.746 134.796C326.978 134.796 323.916 138.436 323.916 142.805V307.442C323.916 311.876 326.978 315.451 330.746 315.451H528.225C529.354 315.471 530.465 315.734 531.482 316.221C532.5 316.709 533.4 317.41 534.123 318.276L568.668 358.323C569.453 359.328 570.537 360.058 571.764 360.409C572.992 360.759 574.299 360.712 575.497 360.274C578.413 359.189 580.294 356.182 580.294 352.607V324.938C580.294 319.703 584.012 315.473 588.582 315.473C592.351 315.473 595.413 311.876 595.413 307.463V142.834C595.413 138.4 592.351 134.825 588.582 134.825L330.746 134.796Z" fill="#1C3180"/>
<path d="M395.897 229.018C395.547 210.978 396.914 197.11 416.221 174.836C435.527 152.562 440.609 140.877 441.859 124.111C443.11 107.345 442.364 98.2078 444.4 97.4464C446.435 96.685 467.77 95.1547 467.513 118.268C467.257 141.382 460.855 157.378 465.96 166.787C473.581 180.733 497.2 173.313 515.745 174.836C534.29 176.359 534.795 181.518 533.777 188.121C533.09 192.164 531.026 195.845 527.935 198.54C530.505 199.91 532.517 202.134 533.622 204.829C534.727 207.525 534.856 210.521 533.987 213.301C531.237 223.712 525.394 226.004 525.394 226.004C525.394 226.004 533.272 232.095 530.732 240.478C529.956 242.962 528.676 245.26 526.972 247.226C525.267 249.193 523.175 250.786 520.826 251.906C521.901 253.772 522.569 255.845 522.788 257.987C523.006 260.129 522.769 262.293 522.092 264.337C519.808 271.454 512.699 275.261 501.519 275.517C490.339 275.774 484.505 275.517 484.505 275.517C484.505 275.517 450.794 283.185 427.331 275.307C406.82 268.385 396.433 255.177 395.897 229.018Z" fill="#FFBBC7"/>
<path d="M484.551 276.31H484.474C484.342 276.31 471.072 274.935 471.072 265.635C471.072 257.555 491.272 253.888 506.033 252.288C493.035 251.511 475.384 249.46 469.565 243.695C468.936 243.128 468.43 242.439 468.077 241.669C467.724 240.9 467.533 240.066 467.513 239.22C467.513 233.276 477.357 229.12 496.78 226.89C499.725 226.548 502.677 226.276 505.513 226.067C488.856 224.893 468.018 221.832 467.521 213.869C467.497 213.187 467.612 212.508 467.86 211.872C468.107 211.236 468.481 210.657 468.958 210.171C474.148 204.367 493.439 201.119 508.582 199.426C491.87 198.897 470.66 196.551 470.062 188.067C469.526 180.368 496.213 174.859 499.258 174.277C499.359 174.256 499.463 174.256 499.563 174.276C499.664 174.296 499.76 174.336 499.845 174.393C499.93 174.45 500.003 174.523 500.06 174.609C500.117 174.694 500.156 174.79 500.175 174.89C500.214 175.092 500.171 175.301 500.056 175.472C499.941 175.642 499.763 175.76 499.562 175.799C488.576 177.967 471.282 183.18 471.592 187.958C472.292 197.903 512.497 198.439 527.935 197.802C528.141 197.802 528.338 197.884 528.484 198.029C528.63 198.175 528.712 198.373 528.712 198.579C528.712 198.785 528.63 198.983 528.484 199.128C528.338 199.274 528.141 199.356 527.935 199.356C527.438 199.356 478.282 201.959 470.023 211.204C469.684 211.538 469.417 211.938 469.238 212.379C469.059 212.819 468.972 213.292 468.982 213.768C469.572 223.169 509.879 225.235 525.355 225.235C525.561 225.235 525.759 225.317 525.905 225.463C526.05 225.608 526.132 225.806 526.132 226.012C526.132 226.218 526.05 226.416 525.905 226.562C525.759 226.707 525.561 226.789 525.355 226.789C515.832 226.862 506.318 227.411 496.85 228.436C478.872 230.51 468.974 234.34 468.974 239.22C468.988 239.858 469.134 240.487 469.401 241.067C469.668 241.647 470.052 242.166 470.528 242.592C479.463 251.433 520.329 251.138 520.74 251.138C520.946 251.138 521.144 251.22 521.29 251.365C521.435 251.511 521.517 251.709 521.517 251.915C521.517 252.121 521.435 252.318 521.29 252.464C521.144 252.61 520.946 252.692 520.74 252.692C507.315 253.267 472.462 256.716 472.462 265.635C472.462 273.536 484.342 274.756 484.458 274.764C484.664 274.773 484.858 274.864 484.997 275.016C485.136 275.168 485.209 275.37 485.2 275.576C485.191 275.782 485.1 275.976 484.948 276.115C484.796 276.254 484.594 276.327 484.388 276.318L484.551 276.31Z" fill="#1C3180"/>
<path d="M451.323 257.896C451.159 257.896 450.999 257.844 450.867 257.747C450.734 257.651 450.635 257.515 450.584 257.36C442.233 231.799 454.042 206.168 454.166 205.912C454.208 205.818 454.269 205.733 454.344 205.662C454.419 205.591 454.508 205.537 454.605 205.501C454.702 205.465 454.805 205.448 454.908 205.453C455.011 205.457 455.112 205.482 455.206 205.526C455.299 205.57 455.383 205.632 455.452 205.708C455.521 205.785 455.574 205.874 455.609 205.972C455.643 206.069 455.657 206.173 455.651 206.276C455.645 206.379 455.618 206.48 455.572 206.572C455.456 206.821 443.918 231.916 452.061 256.878C452.124 257.074 452.108 257.287 452.015 257.47C451.921 257.654 451.759 257.793 451.563 257.857C451.486 257.885 451.405 257.899 451.323 257.896Z" fill="#1C3180"/>
<path d="M414.364 225.032C414.158 225.046 413.955 224.977 413.8 224.841C413.645 224.704 413.55 224.512 413.537 224.306C413.523 224.1 413.592 223.897 413.729 223.742C413.865 223.587 414.057 223.492 414.263 223.479C444.361 219.532 459.838 187.981 459.993 187.67C460.032 187.571 460.091 187.481 460.166 187.405C460.242 187.33 460.332 187.271 460.431 187.231C460.53 187.192 460.637 187.174 460.743 187.178C460.85 187.182 460.955 187.207 461.051 187.253C461.147 187.299 461.233 187.364 461.303 187.445C461.373 187.526 461.425 187.62 461.457 187.722C461.489 187.823 461.5 187.931 461.489 188.037C461.477 188.143 461.444 188.246 461.391 188.338C461.236 188.665 445.41 220.969 414.465 225.017L414.364 225.032Z" fill="#1C3180"/>
<path d="M1242.25 1388.67C1217.59 1403.86 1182.47 1391.62 1182.47 1391.62C1182.47 1391.62 1187.33 1354.75 1211.99 1339.56C1236.65 1324.37 1271.76 1336.56 1271.76 1336.56C1271.76 1336.56 1266.9 1373.43 1242.25 1388.67Z" fill="#25ECB7"/>
<path d="M1152.02 1286.1C1173.93 1297.71 1180.14 1328.94 1180.14 1328.94C1180.14 1328.94 1150.82 1341.36 1128.9 1329.75C1106.98 1318.14 1100.78 1286.91 1100.78 1286.91C1100.78 1286.91 1130.1 1274.5 1152.02 1286.1Z" fill="#25ECB7"/>
<path d="M1182.16 1413.07C1181.9 1413.07 1181.64 1412.96 1181.45 1412.78C1181.27 1412.59 1181.16 1412.34 1181.16 1412.07C1181.16 1411.52 1183.04 1356.3 1177.3 1298.83C1169.74 1223.1 1152.53 1177.88 1127.54 1168.07C1127.29 1167.97 1127.1 1167.78 1126.99 1167.54C1126.89 1167.29 1126.88 1167.02 1126.98 1166.77C1127.08 1166.52 1127.27 1166.33 1127.51 1166.22C1127.76 1166.12 1128.03 1166.11 1128.28 1166.21C1154.38 1176.45 1171.54 1221.01 1179.28 1298.65C1185.03 1356.25 1183.17 1411.59 1183.15 1412.14C1183.13 1412.39 1183.02 1412.63 1182.84 1412.8C1182.65 1412.97 1182.41 1413.07 1182.16 1413.07Z" fill="#1C3180"/>
<path d="M1180.14 1321.43H1180.02C1179.78 1321.4 1179.55 1321.28 1179.39 1321.1C1179.23 1320.91 1179.14 1320.68 1179.14 1320.43C1179.22 1314.35 1181.38 1171.04 1207.14 1128.9C1207.19 1128.77 1207.28 1128.65 1207.38 1128.55C1207.49 1128.45 1207.61 1128.38 1207.74 1128.33C1207.88 1128.29 1208.02 1128.27 1208.17 1128.29C1208.31 1128.3 1208.45 1128.35 1208.57 1128.42C1208.69 1128.49 1208.8 1128.59 1208.88 1128.7C1208.96 1128.82 1209.02 1128.95 1209.05 1129.1C1209.07 1129.24 1209.07 1129.38 1209.04 1129.52C1209 1129.66 1208.94 1129.79 1208.85 1129.9C1187.05 1165.57 1182.28 1278.64 1181.35 1311.43C1185.19 1297 1189.98 1282.85 1195.7 1269.06C1210.53 1233.79 1227.77 1212.89 1246.96 1206.94C1247.21 1206.86 1247.48 1206.89 1247.72 1207.01C1247.95 1207.13 1248.13 1207.34 1248.21 1207.59C1248.25 1207.72 1248.26 1207.85 1248.25 1207.98C1248.24 1208.11 1248.2 1208.24 1248.14 1208.36C1248.08 1208.47 1248 1208.58 1247.9 1208.66C1247.79 1208.75 1247.68 1208.81 1247.55 1208.85C1203.09 1222.64 1181.33 1319.64 1181.12 1320.61C1181.08 1320.84 1180.96 1321.05 1180.78 1321.2C1180.6 1321.35 1180.37 1321.43 1180.14 1321.43Z" fill="#1C3180"/>
<path d="M1110.43 1195.25C1135.52 1195.25 1155.86 1174.91 1155.86 1149.82C1155.86 1124.73 1135.52 1104.39 1110.43 1104.39C1085.34 1104.39 1065 1124.73 1065 1149.82C1065 1174.91 1085.34 1195.25 1110.43 1195.25Z" fill="#FECB02"/>
<path d="M1112.04 1168.87C1111.78 1168.9 1111.51 1168.82 1111.3 1168.66C1111.09 1168.49 1110.96 1168.25 1110.93 1167.98C1110.89 1167.72 1110.97 1167.45 1111.14 1167.24C1111.3 1167.03 1111.55 1166.9 1111.81 1166.87C1111.92 1166.87 1122.95 1164.18 1125.47 1157.55C1126.61 1154.55 1125.83 1151.12 1123.16 1147.32C1121.54 1145.02 1119.91 1143.8 1118.16 1143.6C1115.03 1143.24 1111.61 1146.3 1108.3 1149.26C1103.35 1153.69 1097.74 1158.7 1092.06 1152.73C1089.01 1149.52 1087.81 1146.2 1088.5 1142.86C1090.09 1135.16 1101.25 1130.32 1101.72 1130.12C1101.96 1130.02 1102.24 1130.01 1102.48 1130.11C1102.73 1130.21 1102.92 1130.4 1103.03 1130.64C1103.08 1130.76 1103.11 1130.89 1103.11 1131.02C1103.12 1131.15 1103.09 1131.28 1103.04 1131.41C1103 1131.53 1102.92 1131.64 1102.83 1131.74C1102.74 1131.83 1102.63 1131.91 1102.51 1131.96C1102.4 1131.96 1091.83 1136.59 1090.46 1143.27C1089.91 1145.93 1090.94 1148.65 1093.51 1151.35C1097.56 1155.61 1101.3 1152.84 1106.97 1147.77C1110.61 1144.51 1114.37 1141.15 1118.39 1141.61C1120.73 1141.88 1122.82 1143.37 1124.79 1146.17C1127.86 1150.55 1128.72 1154.62 1127.33 1158.26C1124.42 1165.89 1112.75 1168.7 1112.25 1168.81C1112.18 1168.84 1112.11 1168.86 1112.04 1168.87Z" fill="#1C3180"/>
<path d="M1129.63 1170.19C1129.38 1170.19 1129.14 1170.1 1128.96 1169.93L1084.79 1130.35C1084.59 1130.17 1084.47 1129.92 1084.46 1129.66C1084.45 1129.39 1084.54 1129.13 1084.72 1128.93C1084.89 1128.74 1085.14 1128.62 1085.41 1128.6C1085.67 1128.59 1085.93 1128.68 1086.13 1128.86L1130.35 1168.44C1130.45 1168.53 1130.53 1168.63 1130.59 1168.75C1130.64 1168.87 1130.67 1169 1130.68 1169.13C1130.69 1169.27 1130.67 1169.4 1130.62 1169.52C1130.58 1169.65 1130.51 1169.76 1130.42 1169.86C1130.32 1169.97 1130.2 1170.06 1130.06 1170.11C1129.93 1170.17 1129.78 1170.2 1129.63 1170.19Z" fill="#1C3180"/>
<path d="M1211.04 1161.86C1236.13 1161.86 1256.47 1141.52 1256.47 1116.43C1256.47 1091.34 1236.13 1071 1211.04 1071C1185.95 1071 1165.61 1091.34 1165.61 1116.43C1165.61 1141.52 1185.95 1161.86 1211.04 1161.86Z" fill="#FECB02"/>
<path d="M1208.24 1135.01C1207.91 1135.01 1207.57 1134.99 1207.24 1134.95C1199.12 1134.12 1193.39 1123.57 1193.15 1123.12C1193.09 1123 1193.05 1122.88 1193.03 1122.74C1193.02 1122.61 1193.03 1122.48 1193.07 1122.35C1193.11 1122.23 1193.17 1122.11 1193.26 1122.01C1193.34 1121.91 1193.44 1121.82 1193.56 1121.76C1193.79 1121.64 1194.07 1121.61 1194.32 1121.69C1194.57 1121.76 1194.78 1121.94 1194.91 1122.17C1194.97 1122.27 1200.39 1132.24 1207.45 1132.96C1210.63 1133.3 1213.75 1131.65 1216.73 1128.09C1218.54 1125.93 1219.29 1124.04 1219.04 1122.31C1218.58 1119.2 1214.74 1116.68 1211.04 1114.25C1205.49 1110.61 1199.2 1106.49 1203.5 1099.45C1205.81 1095.68 1208.7 1093.66 1212.11 1093.45C1219.94 1093 1227.52 1102.52 1227.84 1102.93C1228 1103.14 1228.08 1103.4 1228.04 1103.67C1228.01 1103.93 1227.87 1104.17 1227.66 1104.33C1227.46 1104.5 1227.19 1104.57 1226.93 1104.54C1226.66 1104.5 1226.42 1104.37 1226.26 1104.16C1226.19 1104.07 1219.01 1095.06 1212.26 1095.44C1209.55 1095.6 1207.19 1097.29 1205.26 1100.44C1202.19 1105.44 1205.84 1108.35 1212.2 1112.52C1216.28 1115.19 1220.5 1117.96 1221.1 1121.96C1221.44 1124.28 1220.54 1126.69 1218.34 1129.32C1215.11 1133.12 1211.79 1135.01 1208.24 1135.01Z" fill="#1C3180"/>
<path d="M1197.28 1140.98C1197.12 1140.98 1196.97 1140.94 1196.83 1140.87C1196.59 1140.75 1196.42 1140.54 1196.33 1140.29C1196.25 1140.04 1196.27 1139.77 1196.39 1139.53L1223.21 1086.59C1223.27 1086.47 1223.35 1086.37 1223.45 1086.28C1223.55 1086.19 1223.67 1086.13 1223.79 1086.09C1223.92 1086.05 1224.05 1086.03 1224.18 1086.04C1224.31 1086.05 1224.44 1086.09 1224.56 1086.15C1224.8 1086.27 1224.97 1086.48 1225.06 1086.73C1225.14 1086.98 1225.12 1087.25 1225 1087.49L1198.18 1140.43C1198.1 1140.6 1197.97 1140.74 1197.81 1140.83C1197.65 1140.93 1197.47 1140.98 1197.28 1140.98Z" fill="#1C3180"/>
<path d="M1259.13 1252.73C1284.22 1252.73 1304.56 1232.39 1304.56 1207.3C1304.56 1182.21 1284.22 1161.87 1259.13 1161.87C1234.04 1161.87 1213.7 1182.21 1213.7 1207.3C1213.7 1232.39 1234.04 1252.73 1259.13 1252.73Z" fill="#FECB02"/>
<path d="M1252.66 1223.18C1250.35 1223.24 1248.08 1222.52 1246.23 1221.13C1239.73 1216.19 1240.33 1204.2 1240.36 1203.69C1240.37 1203.42 1240.49 1203.18 1240.69 1203C1240.89 1202.82 1241.15 1202.73 1241.41 1202.75C1241.68 1202.76 1241.93 1202.88 1242.11 1203.08C1242.28 1203.28 1242.37 1203.54 1242.36 1203.8C1242.36 1203.92 1241.79 1215.25 1247.44 1219.54C1249.99 1221.47 1253.51 1221.7 1257.9 1220.21C1260.57 1219.3 1262.2 1218.08 1262.9 1216.47C1264.13 1213.57 1262.16 1209.47 1260.26 1205.42C1257.41 1199.42 1254.18 1192.62 1261.51 1188.85C1265.45 1186.85 1268.97 1186.62 1271.98 1188.22C1278.92 1191.92 1280.42 1203.99 1280.48 1204.5C1280.5 1204.63 1280.49 1204.76 1280.45 1204.89C1280.41 1205.02 1280.35 1205.14 1280.27 1205.24C1280.19 1205.35 1280.09 1205.43 1279.97 1205.5C1279.86 1205.56 1279.73 1205.6 1279.6 1205.62C1279.47 1205.64 1279.34 1205.63 1279.21 1205.59C1279.08 1205.55 1278.96 1205.49 1278.86 1205.41C1278.75 1205.33 1278.67 1205.23 1278.6 1205.11C1278.54 1205 1278.5 1204.87 1278.48 1204.74C1278.48 1204.62 1277.05 1193.19 1271.02 1189.99C1268.63 1188.71 1265.73 1188.93 1262.41 1190.63C1257.18 1193.32 1258.79 1197.69 1262.05 1204.56C1264.15 1208.97 1266.31 1213.56 1264.73 1217.25C1263.82 1219.42 1261.8 1221 1258.55 1222.1C1256.66 1222.78 1254.67 1223.14 1252.66 1223.18Z" fill="#1C3180"/>
<path d="M1235.13 1221.25C1234.96 1221.25 1234.79 1221.21 1234.64 1221.13C1234.5 1221.04 1234.37 1220.92 1234.28 1220.78C1234.21 1220.67 1234.16 1220.54 1234.14 1220.41C1234.12 1220.29 1234.12 1220.15 1234.15 1220.02C1234.18 1219.9 1234.24 1219.77 1234.31 1219.67C1234.39 1219.56 1234.49 1219.47 1234.6 1219.4L1285.06 1188.15C1285.29 1188.02 1285.55 1187.99 1285.8 1188.06C1286.05 1188.12 1286.26 1188.28 1286.4 1188.5C1286.53 1188.72 1286.58 1188.98 1286.53 1189.23C1286.47 1189.48 1286.32 1189.71 1286.11 1189.85L1235.66 1221.1C1235.5 1221.2 1235.32 1221.25 1235.13 1221.25Z" fill="#1C3180"/>
<path d="M1235.13 1413.07H1129.63C1129.37 1413.07 1129.11 1412.96 1128.92 1412.78C1128.74 1412.59 1128.63 1412.34 1128.63 1412.07C1128.63 1411.81 1128.74 1411.55 1128.92 1411.36C1129.11 1411.18 1129.37 1411.07 1129.63 1411.07H1235.13C1235.4 1411.07 1235.65 1411.18 1235.84 1411.36C1236.02 1411.55 1236.13 1411.81 1236.13 1412.07C1236.13 1412.34 1236.02 1412.59 1235.84 1412.78C1235.65 1412.96 1235.4 1413.07 1235.13 1413.07Z" fill="#1C3180"/>
</svg>
