<?xml version="1.0" encoding="UTF-8"?>
<svg id="Layer_1" data-name="Layer 1" xmlns="http://www.w3.org/2000/svg" viewBox="0 0 405.63 118.6">
  <defs>
    <style>
      .cls-1 {
        fill: #fff;
      }

      .cls-2 {
        fill: #a92d32;
      }

      .cls-3 {
        fill: #222221;
      }
    </style>
  </defs>
  <g>
    <path class="cls-1" d="M306.84,89.86c-.2.32-.42.64-.64.94-.33.43-.66.86-1.04,1.25-.05-.01-.1-.03-.15-.05-.19-.06-.41,0-.53.16l-1.42,1.8c-.36.46-1.02.58-1.53.27l-1.65-1.01c-.51-.31-.7-.95-.46-1.48l.95-2.09c.09-.19.04-.4-.1-.54-.6-.59-1.13-1.24-1.6-1.93-.11-.17-.32-.25-.51-.2l-2.23.54c-.58.14-1.17-.17-1.37-.73l-.68-1.81c-.21-.55.03-1.18.55-1.45l2.04-1.07c.18-.09.28-.29.25-.49-.01-.12-.03-.25-.04-.37-.02-.2-.16-.37-.36-.42l-2.22-.57c-.58-.15-.95-.7-.87-1.28l.25-1.92c.07-.59.58-1.02,1.17-1.02h.58c.69.99,1.76,1.63,2.75,2.27.45.27.92.51,1.4.74-.04.36-.07.74-.07,1.11,0,4.59,3.23,8.43,7.55,9.36Z"/>
    <path class="cls-1" d="M320.53,90.82l-1.38,1.36c-.42.42-1.09.45-1.55.09l-1.8-1.43c-.16-.12-.38-.13-.55-.03-.71.44-1.47.8-2.26,1.09-.19.07-.32.25-.32.45v2.29c-.01.59-.46,1.09-1.05,1.16l-1.92.22c-.59.07-1.14-.31-1.28-.89l-.54-2.23c-.05-.2-.22-.34-.42-.36-.33-.04-.65-.09-.97-.15.22-.32.43-.65.63-.97.27-.45.51-.92.74-1.39.33.04.67.05,1.01.05,4.61,0,8.46-3.26,9.37-7.6.36.22.7.45,1.04.7.48.37.97.75,1.39,1.18-.16.04-.29.15-.35.31-.3.79-.67,1.55-1.12,2.25-.11.17-.1.39.02.55l1.4,1.82c.36.47.32,1.14-.1,1.55Z"/>
    <path class="cls-1" d="M324.49,81.41l-.25,1.92c-.07.59-.58,1.02-1.17,1.02h-.54c-.69-.9-1.7-1.51-2.64-2.12-.48-.28-.98-.55-1.5-.78.04-.32.05-.64.05-.96,0-4.58-3.21-8.41-7.51-9.35.22-.36.46-.71.71-1.06.35-.46.72-.92,1.13-1.34h0c.17.02.33-.04.44-.17l.48-.61.24-.31.7-.88c.37-.46,1.03-.58,1.53-.27l1.65,1.01c.51.31.7.95.46,1.49l-.95,2.09c-.09.19-.04.4.1.54.6.59,1.13,1.24,1.6,1.94.11.17.31.25.51.2l2.23-.54c.58-.14,1.17.17,1.37.72l.68,1.81c.21.55-.03,1.18-.55,1.45l-2.04,1.06c-.18.09-.28.29-.25.49.01.12.03.25.04.37.02.2.16.37.36.42l2.22.57c.58.15.95.7.87,1.28Z"/>
    <path class="cls-1" d="M311.43,68.39c-.25.36-.48.73-.71,1.09-.28.49-.55.98-.79,1.5-.35-.04-.71-.06-1.07-.06-4.56,0-8.37,3.19-9.34,7.45-.33-.2-.65-.42-.96-.65-.54-.41-1.08-.84-1.54-1.34.16-.03.29-.15.35-.3.3-.79.67-1.55,1.12-2.25.11-.17.1-.39-.02-.55l-1.4-1.82c-.36-.47-.32-1.14.1-1.55l1.38-1.36c.42-.42,1.09-.45,1.55-.09l1.8,1.43c.16.12.38.14.55.03.71-.44,1.47-.8,2.26-1.09.19-.07.32-.25.32-.45v-2.3c.01-.59.46-1.09,1.05-1.16l1.92-.22c.59-.07,1.14.31,1.27.89l.54,2.23c.05.2.22.34.42.36.41.04.8.11,1.2.19Z"/>
    <path class="cls-2" d="M308.87,84.81c-.26,1.32-.71,2.61-1.33,3.82h0c-3.57-.6-6.46-3.51-6.86-7.29-.05-.47-.06-.94-.03-1.41,1.27.48,2.6.79,3.94.91,0,.02,0,.05,0,.08.24,2.22,2.1,3.87,4.28,3.9Z"/>
    <path class="cls-2" d="M309.44,72.16c-.47,1.27-.79,2.6-.9,3.94h0s-.05,0-.08,0c-2.22.24-3.87,2.1-3.9,4.28-1.32-.26-2.61-.71-3.82-1.33.6-3.57,3.52-6.46,7.3-6.87.47-.05.94-.06,1.4-.03Z"/>
    <path class="cls-2" d="M317.11,81.83c-.6,3.57-3.51,6.46-7.29,6.87-.47.05-.95.06-1.41.03.48-1.27.8-2.6.91-3.94.03,0,.05,0,.08,0,2.22-.24,3.88-2.11,3.9-4.29,1.32.26,2.61.72,3.82,1.33Z"/>
    <path class="cls-2" d="M317.21,80.96c-1.27-.48-2.6-.8-3.94-.91,0-.03,0-.05,0-.08-.24-2.22-2.11-3.87-4.29-3.9.26-1.32.72-2.61,1.33-3.82,3.57.6,6.46,3.51,6.87,7.29.05.47.06.95.03,1.41Z"/>
  </g>
  <g>
    <path class="cls-1" d="M78.66,89.86c-.2.32-.42.64-.64.94-.33.43-.66.86-1.04,1.25-.05-.01-.1-.03-.15-.05-.19-.06-.41,0-.53.16l-1.42,1.8c-.36.46-1.02.58-1.53.27l-1.65-1.01c-.51-.31-.7-.95-.46-1.48l.95-2.09c.09-.19.04-.4-.1-.54-.6-.59-1.13-1.24-1.6-1.93-.11-.17-.32-.25-.51-.2l-2.23.54c-.58.14-1.17-.17-1.37-.73l-.68-1.81c-.21-.55.03-1.18.55-1.45l2.04-1.07c.18-.09.28-.29.25-.49-.01-.12-.03-.25-.04-.37-.02-.2-.16-.37-.36-.42l-2.22-.57c-.58-.15-.95-.7-.87-1.28l.25-1.92c.07-.59.58-1.02,1.17-1.02h.58c.69.99,1.76,1.63,2.75,2.27.45.27.92.51,1.4.74-.04.36-.07.74-.07,1.11,0,4.59,3.23,8.43,7.55,9.36Z"/>
    <path class="cls-1" d="M92.35,90.82l-1.38,1.36c-.42.42-1.09.45-1.55.09l-1.8-1.43c-.16-.12-.38-.13-.55-.03-.71.44-1.47.8-2.26,1.09-.19.07-.32.25-.32.45v2.29c-.01.59-.46,1.09-1.05,1.16l-1.92.22c-.59.07-1.14-.31-1.28-.89l-.54-2.23c-.05-.2-.22-.34-.42-.36-.33-.04-.65-.09-.97-.15.22-.32.43-.65.63-.97.27-.45.51-.92.74-1.39.33.04.67.05,1.01.05,4.61,0,8.46-3.26,9.37-7.6.36.22.7.45,1.04.7.48.37.97.75,1.39,1.18-.16.04-.29.15-.35.31-.3.79-.67,1.55-1.12,2.25-.11.17-.1.39.02.55l1.4,1.82c.36.47.32,1.14-.1,1.55Z"/>
    <path class="cls-1" d="M96.31,81.41l-.25,1.92c-.07.59-.58,1.02-1.17,1.02h-.54c-.69-.9-1.7-1.51-2.64-2.12-.48-.28-.98-.55-1.5-.78.04-.32.05-.64.05-.96,0-4.58-3.21-8.41-7.51-9.35.22-.36.46-.71.71-1.06.35-.46.72-.92,1.13-1.34h0c.17.02.33-.04.44-.17l.48-.61.24-.31.7-.88c.37-.46,1.03-.58,1.53-.27l1.65,1.01c.51.31.7.95.46,1.49l-.95,2.09c-.09.19-.04.4.1.54.6.59,1.13,1.24,1.6,1.94.11.17.31.25.51.2l2.23-.54c.58-.14,1.17.17,1.37.72l.68,1.81c.21.55-.03,1.18-.55,1.45l-2.04,1.06c-.18.09-.28.29-.25.49.01.12.03.25.04.37.02.2.16.37.36.42l2.22.57c.58.15.95.7.87,1.28Z"/>
    <path class="cls-1" d="M83.25,68.39c-.25.36-.48.73-.71,1.09-.28.49-.55.98-.79,1.5-.35-.04-.71-.06-1.07-.06-4.56,0-8.37,3.19-9.34,7.45-.33-.2-.65-.42-.96-.65-.54-.41-1.08-.84-1.54-1.34.16-.03.29-.15.35-.3.3-.79.67-1.55,1.12-2.25.11-.17.1-.39-.02-.55l-1.4-1.82c-.36-.47-.32-1.14.1-1.55l1.38-1.36c.42-.42,1.09-.45,1.55-.09l1.8,1.43c.16.12.38.14.55.03.71-.44,1.47-.8,2.26-1.09.19-.07.32-.25.32-.45v-2.3c.01-.59.46-1.09,1.05-1.16l1.92-.22c.59-.07,1.14.31,1.27.89l.54,2.23c.05.2.22.34.42.36.41.04.8.11,1.2.19Z"/>
    <path class="cls-2" d="M80.69,84.81c-.26,1.32-.71,2.61-1.33,3.82h0c-3.57-.6-6.46-3.51-6.86-7.29-.05-.47-.06-.94-.03-1.41,1.27.48,2.6.79,3.94.91,0,.02,0,.05,0,.08.24,2.22,2.1,3.87,4.28,3.9Z"/>
    <path class="cls-2" d="M81.26,72.16c-.47,1.27-.79,2.6-.9,3.94h0s-.05,0-.08,0c-2.22.24-3.87,2.1-3.9,4.28-1.32-.26-2.61-.71-3.82-1.33.6-3.57,3.52-6.46,7.3-6.87.47-.05.94-.06,1.4-.03Z"/>
    <path class="cls-2" d="M88.93,81.83c-.6,3.57-3.51,6.46-7.29,6.87-.47.05-.95.06-1.41.03.48-1.27.8-2.6.91-3.94.03,0,.05,0,.08,0,2.22-.24,3.88-2.11,3.9-4.29,1.32.26,2.61.72,3.82,1.33Z"/>
    <path class="cls-2" d="M89.03,80.96c-1.27-.48-2.6-.8-3.94-.91,0-.03,0-.05,0-.08-.24-2.22-2.11-3.87-4.29-3.9.26-1.32.72-2.61,1.33-3.82,3.57.6,6.46,3.51,6.87,7.29.05.47.06.95.03,1.41Z"/>
  </g>
  <g>
    <path class="cls-1" d="M59.57,94.83h-4.81v-22.79h-6.82v-4.85h18.05v4.85h-6.42v22.79Z"/>
    <path class="cls-1" d="M146.64,67.19c8.34,0,12.52,4.59,12.52,13.76v.12c-.08,9.17-4.27,13.76-12.56,13.76h-11.39v-27.64h11.43ZM140.06,90.02h7.74c2.19,0,3.82-.73,4.89-2.19,1.07-1.46,1.6-3.76,1.6-6.92,0-5.91-2.15-8.87-6.46-8.87h-7.78v17.97Z"/>
    <path class="cls-1" d="M181.42,75.53c.45-.21.84-.51,1.14-.88.31-.37.46-.75.46-1.12,0-.43-.15-.78-.44-1.06-.29-.28-.75-.42-1.36-.42h-18.46v-4.85h18.29c2.25,0,3.92.59,5.04,1.77,1.11,1.18,1.66,2.7,1.66,4.57,0,.35-.03.78-.08,1.3-.05.52-.22,1.08-.5,1.66-.28.59-.72,1.18-1.32,1.77-.6.59-1.44,1.12-2.51,1.6l-15.21,6.62c-.54.24-.93.54-1.18.88-.25.35-.38.71-.38,1.08,0,.51.17.9.52,1.16.35.27.76.4,1.24.4h18.78v4.81h-18.66c-2.25,0-3.93-.59-5.06-1.77-1.12-1.18-1.68-2.69-1.68-4.53,0-.48.05-1.01.16-1.58.11-.57.32-1.15.64-1.73.32-.57.78-1.13,1.36-1.66.59-.53,1.36-1,2.33-1.4l15.21-6.62Z"/>
    <path class="cls-1" d="M206.45,71.4c.48-1.36,1.28-2.42,2.39-3.17,1.11-.75,2.39-1.12,3.83-1.12.99,0,1.92.16,2.79.48.87.32,1.62.78,2.27,1.36.64.59,1.15,1.3,1.53,2.15.37.84.56,1.77.56,2.79v13.92c0,1.6.68,2.41,2.05,2.41.45,0,.8-.14,1.04-.42.24-.28.45-.7.64-1.26l5.54-17.13c.45-1.36,1.25-2.42,2.39-3.17,1.14-.75,2.41-1.12,3.83-1.12.99,0,1.92.16,2.79.48.87.32,1.63.78,2.27,1.36.64.59,1.15,1.3,1.52,2.15.37.84.56,1.77.56,2.79v20.94h-5.14v-20.46c0-1.6-.7-2.41-2.09-2.41-.46,0-.8.15-1.02.46-.23.31-.44.74-.62,1.3l-5.62,17.09c-.37,1.36-1.14,2.43-2.31,3.19s-2.45,1.14-3.87,1.14c-1.02,0-1.95-.16-2.81-.48-.86-.32-1.6-.78-2.25-1.36-.64-.59-1.14-1.3-1.5-2.15s-.54-1.77-.54-2.79v-14c0-1.6-.7-2.41-2.09-2.41-.45,0-.79.15-1,.46-.21.31-.43.74-.64,1.3l-7.38,21.1h-5.46l8.35-23.43Z"/>
    <path class="cls-1" d="M261.53,67.19c8.32,0,12.52,4.57,12.6,13.72v.12c0,9.2-4.19,13.8-12.56,13.8h-2.17c-8.37,0-12.56-4.6-12.56-13.8v-.12c.03-9.15,4.23-13.72,12.6-13.72h2.09ZM258.2,72.04c-2.19,0-3.83.72-4.91,2.17s-1.62,3.73-1.62,6.86c0,5.96,2.17,8.95,6.5,8.95h4.65c4.33,0,6.5-2.98,6.5-8.95,0-3.13-.55-5.42-1.64-6.86-1.1-1.44-2.73-2.17-4.89-2.17h-4.57Z"/>
    <path class="cls-1" d="M287.08,94.83h-4.81v-22.79h-6.82v-4.85h18.05v4.85h-6.42v22.79Z"/>
    <path class="cls-1" d="M377.77,86.77c0,2.67-.77,4.69-2.31,6.04-1.54,1.35-3.68,2.03-6.44,2.03h-14.2v-4.81h15.13c.86,0,1.56-.33,2.13-.98.56-.66.84-1.45.84-2.39,0-.88-.28-1.65-.84-2.31-.56-.66-1.27-.98-2.13-.98h-7.78c-1.6,0-2.96-.24-4.07-.72-1.11-.48-2.01-1.11-2.69-1.89-.68-.78-1.18-1.64-1.48-2.59-.31-.95-.46-1.89-.46-2.83,0-1.12.16-2.17.48-3.15.32-.98.84-1.84,1.54-2.59.71-.75,1.61-1.34,2.71-1.77,1.1-.43,2.42-.64,3.97-.64h13.8v4.85h-14.56c-.43,0-.83.09-1.2.26-.37.17-.7.41-.98.7-.28.29-.51.64-.68,1.02-.17.39-.26.8-.26,1.22,0,.91.31,1.68.92,2.31.62.63,1.36.94,2.25.94h7.66c2.67,0,4.79.68,6.34,2.03,1.55,1.35,2.33,3.36,2.33,6.04v.2Z"/>
  </g>
  <path class="cls-1" d="M122.05,75.33c0,.96-.15,1.93-.46,2.89-.31.96-.81,1.82-1.5,2.59-.7.76-1.6,1.38-2.71,1.85-1.07.45-2.36.69-3.86.7-.06,0-.11,0-.17,0h-8.16c-.44,0-.79.35-.79.79v10.68h-4.85v-13.96c0-1.31,1.06-2.37,2.37-2.37h12.15c.88,0,1.63-.31,2.25-.94.62-.63.92-1.4.92-2.31,0-.43-.09-.84-.26-1.22-.18-.39-.4-.73-.68-1.02-.28-.29-.61-.53-.98-.7-.37-.17-.77-.26-1.2-.26h-14.56v-4.85h13.8c1.52,0,2.83.21,3.93.64,1.1.43,2,1.02,2.71,1.77.71.75,1.23,1.61,1.56,2.59.34.98.5,2.02.5,3.15Z"/>
  <path class="cls-3" d="M113.51,83.35h0s-.17,0-.17,0c.06,0,.11,0,.17,0Z"/>
  <path class="cls-1" d="M350.06,94.4l-6.37-11.37c.41-.1.8-.23,1.17-.38,1.11-.47,2.01-1.08,2.71-1.85.69-.76,1.2-1.63,1.5-2.59.31-.96.46-1.93.46-2.89,0-1.12-.17-2.17-.5-3.15-.34-.98-.85-1.84-1.56-2.59-.71-.75-1.61-1.33-2.71-1.77-1.1-.43-2.41-.64-3.93-.64h-13.8v4.85h14.56c.43,0,.83.09,1.2.26.37.18.7.41.98.7.28.29.51.63.68,1.02.17.39.26.8.26,1.22,0,.91-.31,1.68-.92,2.31-.61.63-1.36.94-2.25.94h-12.15c-1.31,0-2.37,1.06-2.37,2.37v13.96h4.85v-10.68c0-.44.35-.79.79-.79h6l6.19,11.04h5.2Z"/>
  <g>
    <path class="cls-2" d="M317.92,52.49c-3.65-.72-7.31-1.38-10.99-1.96-14.88-2.33-29.75-3.33-44.76-2.84-.61.02-1.6.03-2.21-.01-.73-.05-1.46-.13-2.19-.24-2.55-.41-5.03-1.25-7.48-2.4-2.45-1.14-4.86-2.57-7.33-4.02-3.09-1.81-6.03-3.79-9.27-5.33s-6.7-3.01-10.14-4.31c-14.1-5.32-29.09-8.25-44.15-8.74-5.17-.17-10.35-.05-15.51.37-10.58.85-21,3.06-31.28,5.63-5.64,1.41-11.21,3.07-16.77,4.73-2.77.86-5.55,1.71-8.3,2.63-1.38.46-2.76.88-4.14,1.35l-4.12,1.39-2.06.7-2.05.72-4.11,1.43-8.19,2.92s-2.5.84-7.41,1.26c-4.91.42-15.56-1.08-47.6-7.16,8.41,11.65,26.38,16.23,26.38,16.23l-14.81.25c.75,3.74,5.16,10.57,5.16,10.57,43.11-14.9,79.39-4.41,79.39-4.41-7.91-9.32-41.11-9.9-41.11-9.9l2.18-1.34,3.97-1.69c1.32-.56,2.64-1.14,3.98-1.67l3.99-1.62,2-.81,2.01-.78c14.05-5.53,28.5-10.35,43.22-13.78,9.4-2.19,19-3.66,28.67-3.69,14.57-.05,28.98,3.19,42.58,8.26,8.59,3.2,16.65,7.2,24.58,11.77,2.52,1.45,5.13,2.89,7.94,4.13,2.8,1.23,5.86,2.22,9.04,2.6,1.58.19,3.18.26,4.76.18.79-.04,1.57-.11,2.35-.21l2.12-.27c2.78-.34,5.6-.54,8.44-.65,2.84-.11,5.69-.14,8.55-.1,5.72.07,11.45.46,17.16,1.04,5.71.59,11.41,1.34,17.1,2.24,2.84.44,5.68.94,8.5,1.47,2.83.52,5.65,1.09,8.47,1.67,2.82.59,5.63,1.22,8.43,1.89,2.8.66,5.59,1.36,8.38,2.1l-1.46-.94c-1.99-1.28-4.19-2.22-6.5-2.77-9.23-2.19-15.24-3.88-25.39-5.89Z"/>
    <polygon class="cls-2" points="227.16 55.48 159.54 58.09 236.21 58.09 218.49 42.93 227.16 55.48"/>
  </g>
</svg>