<?xml version="1.0" encoding="UTF-8"?>
<svg id="Layer_1" data-name="Layer 1" xmlns="http://www.w3.org/2000/svg" viewBox="0 0 405.63 118.6">
  <defs>
    <style>
      .cls-1 {
        fill: #a92d32;
      }

      .cls-2 {
        fill: #222221;
      }
    </style>
  </defs>
  <g>
    <path class="cls-1" d="M307.38,90.01c-.2.33-.42.64-.64.95-.33.43-.67.86-1.04,1.26-.05-.01-.1-.03-.15-.05-.19-.06-.41,0-.53.16l-1.43,1.81c-.37.47-1.03.58-1.54.27l-1.66-1.01c-.51-.31-.71-.95-.46-1.49l.95-2.1c.09-.19.04-.4-.1-.55-.6-.59-1.14-1.24-1.61-1.94-.11-.17-.32-.25-.52-.21l-2.24.55c-.58.14-1.17-.17-1.38-.73l-.69-1.82c-.21-.56.03-1.18.56-1.46l2.05-1.07c.18-.09.28-.29.25-.49-.01-.13-.03-.25-.04-.38-.02-.2-.16-.37-.36-.42l-2.23-.57c-.58-.15-.95-.7-.88-1.29l.25-1.93c.07-.59.58-1.03,1.17-1.03h.58c.69.99,1.77,1.64,2.77,2.28.46.27.92.52,1.41.74-.04.37-.07.74-.07,1.12,0,4.62,3.25,8.47,7.59,9.41Z"/>
    <path class="cls-1" d="M321.14,90.99l-1.39,1.37c-.42.42-1.09.46-1.56.09l-1.81-1.43c-.16-.13-.38-.13-.55-.03-.72.44-1.48.81-2.28,1.09-.19.07-.32.25-.33.45v2.31c-.01.59-.46,1.09-1.06,1.16l-1.93.22c-.59.07-1.14-.31-1.28-.89l-.54-2.24c-.05-.2-.22-.34-.42-.37-.33-.04-.65-.09-.97-.15.22-.33.43-.66.64-.98.27-.45.52-.92.74-1.4.33.04.67.05,1.01.05,4.64,0,8.51-3.28,9.42-7.64.36.22.71.46,1.04.7.49.37.97.75,1.4,1.19-.16.04-.29.15-.35.31-.3.8-.67,1.55-1.12,2.26-.11.17-.1.39.02.55l1.41,1.82c.36.47.32,1.14-.1,1.56Z"/>
    <path class="cls-1" d="M325.12,81.53l-.25,1.93c-.07.59-.58,1.03-1.17,1.03h-.54c-.69-.91-1.71-1.52-2.65-2.13-.49-.29-.99-.55-1.51-.79.04-.32.05-.64.05-.97,0-4.6-3.23-8.45-7.55-9.4.22-.36.47-.72.72-1.06.35-.46.72-.93,1.13-1.34h0c.17.02.33-.04.44-.17l.48-.61.24-.31.7-.89c.37-.47,1.03-.58,1.54-.27l1.66,1.01c.51.31.71.95.46,1.49l-.95,2.1c-.09.19-.04.4.1.55.6.59,1.14,1.24,1.61,1.95.11.17.32.25.52.2l2.24-.54c.58-.14,1.17.17,1.38.73l.69,1.82c.21.56-.03,1.18-.56,1.46l-2.05,1.07c-.18.09-.28.29-.25.49.01.13.03.25.04.38.02.2.16.37.36.42l2.24.57c.58.15.95.7.88,1.29Z"/>
    <path class="cls-1" d="M312,68.43c-.25.36-.48.73-.71,1.09-.29.49-.55.99-.79,1.51-.35-.04-.71-.06-1.07-.06-4.58,0-8.42,3.2-9.39,7.49-.33-.21-.65-.43-.97-.66-.54-.41-1.09-.85-1.55-1.34.16-.03.29-.15.35-.3.3-.8.67-1.55,1.12-2.26.11-.17.1-.39-.02-.55l-1.41-1.82c-.36-.47-.32-1.14.1-1.56l1.39-1.37c.42-.42,1.09-.46,1.56-.09l1.81,1.43c.16.13.38.14.55.03.72-.44,1.48-.81,2.28-1.09.19-.07.32-.25.33-.45v-2.31c.01-.59.46-1.09,1.06-1.16l1.93-.22c.59-.07,1.14.32,1.28.89l.54,2.24c.05.2.22.34.42.37.41.04.81.11,1.2.19Z"/>
    <path class="cls-2" d="M309.42,84.94c-.26,1.33-.72,2.62-1.34,3.83h0c-3.59-.61-6.49-3.53-6.9-7.33-.05-.48-.06-.95-.03-1.41,1.28.48,2.61.8,3.96.91,0,.02,0,.05,0,.08.24,2.24,2.11,3.89,4.31,3.92Z"/>
    <path class="cls-2" d="M310,72.22c-.48,1.28-.8,2.61-.91,3.96h0s-.05,0-.08,0c-2.23.24-3.89,2.11-3.92,4.31-1.33-.26-2.63-.72-3.84-1.34.61-3.59,3.53-6.49,7.34-6.9.48-.05.95-.06,1.41-.03Z"/>
    <path class="cls-2" d="M317.7,81.95c-.61,3.59-3.53,6.49-7.33,6.9-.48.05-.95.06-1.41.03.48-1.28.8-2.61.91-3.96.03,0,.05,0,.08,0,2.24-.24,3.9-2.12,3.92-4.31,1.33.26,2.62.72,3.83,1.34Z"/>
    <path class="cls-2" d="M317.8,81.07c-1.28-.48-2.61-.8-3.96-.91,0-.03,0-.05,0-.08-.24-2.23-2.12-3.89-4.31-3.92.26-1.33.72-2.63,1.34-3.84,3.59.6,6.49,3.53,6.9,7.33.05.48.06.95.03,1.41Z"/>
  </g>
  <g>
    <path class="cls-1" d="M78.01,90.01c-.2.33-.42.64-.64.95-.33.43-.67.86-1.04,1.26-.05-.01-.1-.03-.15-.05-.19-.06-.41,0-.53.16l-1.43,1.81c-.37.47-1.03.58-1.54.27l-1.66-1.01c-.51-.31-.71-.95-.46-1.49l.95-2.1c.09-.19.04-.4-.1-.55-.6-.59-1.14-1.24-1.61-1.94-.11-.17-.32-.25-.52-.21l-2.24.55c-.58.14-1.17-.17-1.38-.73l-.69-1.82c-.21-.56.03-1.18.56-1.46l2.05-1.07c.18-.09.28-.29.25-.49-.01-.13-.03-.25-.04-.38-.02-.2-.16-.37-.36-.42l-2.23-.57c-.58-.15-.95-.7-.88-1.29l.25-1.93c.07-.59.58-1.03,1.17-1.03h.58c.69.99,1.77,1.64,2.77,2.28.46.27.92.52,1.41.74-.04.37-.07.74-.07,1.12,0,4.62,3.25,8.47,7.59,9.41Z"/>
    <path class="cls-1" d="M91.78,90.99l-1.39,1.37c-.42.42-1.09.46-1.56.09l-1.81-1.43c-.16-.13-.38-.13-.55-.03-.72.44-1.48.81-2.28,1.09-.19.07-.32.25-.33.45v2.31c-.01.59-.46,1.09-1.06,1.16l-1.93.22c-.59.07-1.14-.31-1.28-.89l-.54-2.24c-.05-.2-.22-.34-.42-.37-.33-.04-.65-.09-.97-.15.22-.33.43-.66.64-.98.27-.45.52-.92.74-1.4.33.04.67.05,1.01.05,4.64,0,8.51-3.28,9.42-7.64.36.22.71.46,1.04.7.49.37.97.75,1.4,1.19-.16.04-.29.15-.35.31-.3.8-.67,1.55-1.12,2.26-.11.17-.1.39.02.55l1.41,1.82c.36.47.32,1.14-.1,1.56Z"/>
    <path class="cls-1" d="M95.76,81.53l-.25,1.93c-.07.59-.58,1.03-1.17,1.03h-.54c-.69-.91-1.71-1.52-2.65-2.13-.49-.29-.99-.55-1.51-.79.04-.32.05-.64.05-.97,0-4.6-3.23-8.45-7.55-9.4.22-.36.47-.72.72-1.06.35-.46.72-.93,1.13-1.34h0c.17.02.33-.04.44-.17l.48-.61.24-.31.7-.89c.37-.47,1.03-.58,1.54-.27l1.66,1.01c.51.31.71.95.46,1.49l-.95,2.1c-.09.19-.04.4.1.55.6.59,1.14,1.24,1.61,1.95.11.17.32.25.52.2l2.24-.54c.58-.14,1.17.17,1.38.73l.69,1.82c.21.56-.03,1.18-.56,1.46l-2.05,1.07c-.18.09-.28.29-.25.49.01.13.03.25.04.38.02.2.16.37.36.42l2.24.57c.58.15.95.7.88,1.29Z"/>
    <path class="cls-1" d="M82.63,68.43c-.25.36-.48.73-.71,1.09-.29.49-.55.99-.79,1.51-.35-.04-.71-.06-1.07-.06-4.58,0-8.42,3.2-9.39,7.49-.33-.21-.65-.43-.97-.66-.54-.41-1.09-.85-1.55-1.34.16-.03.29-.15.35-.3.3-.8.67-1.55,1.12-2.26.11-.17.1-.39-.02-.55l-1.41-1.82c-.36-.47-.32-1.14.1-1.56l1.39-1.37c.42-.42,1.09-.46,1.56-.09l1.81,1.43c.16.13.38.14.55.03.72-.44,1.48-.81,2.28-1.09.19-.07.32-.25.33-.45v-2.31c.01-.59.46-1.09,1.06-1.16l1.93-.22c.59-.07,1.14.32,1.28.89l.54,2.24c.05.2.22.34.42.37.41.04.81.11,1.2.19Z"/>
    <path class="cls-2" d="M80.06,84.94c-.26,1.33-.72,2.62-1.34,3.83h0c-3.59-.61-6.49-3.53-6.9-7.33-.05-.48-.06-.95-.03-1.41,1.28.48,2.61.8,3.96.91,0,.02,0,.05,0,.08.24,2.24,2.11,3.89,4.31,3.92Z"/>
    <path class="cls-2" d="M80.63,72.22c-.48,1.28-.8,2.61-.91,3.96h0s-.05,0-.08,0c-2.23.24-3.89,2.11-3.92,4.31-1.33-.26-2.63-.72-3.84-1.34.61-3.59,3.53-6.49,7.34-6.9.48-.05.95-.06,1.41-.03Z"/>
    <path class="cls-2" d="M88.34,81.95c-.61,3.59-3.53,6.49-7.33,6.9-.48.05-.95.06-1.41.03.48-1.28.8-2.61.91-3.96.03,0,.05,0,.08,0,2.24-.24,3.9-2.12,3.92-4.31,1.33.26,2.62.72,3.83,1.34Z"/>
    <path class="cls-2" d="M88.44,81.07c-1.28-.48-2.61-.8-3.96-.91,0-.03,0-.05,0-.08-.24-2.23-2.12-3.89-4.31-3.92.26-1.33.72-2.63,1.34-3.84,3.59.6,6.49,3.53,6.9,7.33.05.48.06.95.03,1.41Z"/>
  </g>
  <g>
    <path class="cls-2" d="M58.83,95.01h-4.84v-22.91h-6.86v-4.88h18.15v4.88h-6.45v22.91Z"/>
    <path class="cls-2" d="M146.35,67.23c8.39,0,12.58,4.61,12.58,13.83v.12c-.08,9.22-4.29,13.83-12.62,13.83h-11.45v-27.79h11.49ZM139.74,90.18h7.78c2.2,0,3.84-.73,4.92-2.2,1.08-1.47,1.61-3.78,1.61-6.96,0-5.94-2.16-8.91-6.49-8.91h-7.82v18.07Z"/>
    <path class="cls-2" d="M181.31,75.62c.46-.21.84-.51,1.15-.89.31-.38.46-.75.46-1.13,0-.43-.15-.79-.44-1.07-.3-.28-.75-.42-1.37-.42h-18.55v-4.88h18.39c2.26,0,3.95.59,5.06,1.77,1.12,1.18,1.67,2.72,1.67,4.6,0,.35-.03.79-.08,1.31-.05.52-.22,1.08-.5,1.67-.28.59-.73,1.18-1.33,1.77-.6.59-1.45,1.13-2.52,1.61l-15.28,6.65c-.54.24-.93.54-1.19.89-.26.35-.38.71-.38,1.09,0,.51.17.9.52,1.17.35.27.77.4,1.25.4h18.87v4.84h-18.75c-2.26,0-3.95-.59-5.08-1.77-1.13-1.18-1.69-2.7-1.69-4.56,0-.48.05-1.01.16-1.59.11-.58.32-1.16.65-1.73.32-.58.78-1.14,1.37-1.67.59-.54,1.37-1.01,2.34-1.41l15.28-6.65Z"/>
    <path class="cls-2" d="M206.47,71.46c.48-1.37,1.28-2.43,2.4-3.19,1.12-.75,2.4-1.13,3.85-1.13.99,0,1.93.16,2.8.48.87.32,1.63.78,2.28,1.37.65.59,1.16,1.31,1.53,2.16.38.85.56,1.78.56,2.8v13.99c0,1.61.69,2.42,2.06,2.42.46,0,.81-.14,1.05-.42.24-.28.46-.71.64-1.27l5.57-17.22c.46-1.37,1.26-2.43,2.4-3.19,1.14-.75,2.43-1.13,3.85-1.13.99,0,1.93.16,2.8.48.87.32,1.63.78,2.28,1.37.64.59,1.16,1.31,1.53,2.16.38.85.56,1.78.56,2.8v21.05h-5.16v-20.57c0-1.61-.7-2.42-2.1-2.42-.46,0-.8.15-1.03.46-.23.31-.44.75-.62,1.31l-5.65,17.18c-.38,1.37-1.15,2.44-2.32,3.21s-2.47,1.15-3.89,1.15c-1.02,0-1.96-.16-2.82-.48-.86-.32-1.61-.78-2.26-1.37-.65-.59-1.15-1.31-1.51-2.16s-.54-1.78-.54-2.8v-14.07c0-1.61-.7-2.42-2.1-2.42-.46,0-.79.15-1.01.46-.22.31-.43.75-.64,1.31l-7.42,21.21h-5.48l8.39-23.55Z"/>
    <path class="cls-2" d="M261.83,67.23c8.36,0,12.58,4.6,12.66,13.79v.12c0,9.25-4.21,13.87-12.62,13.87h-2.18c-8.42,0-12.62-4.62-12.62-13.87v-.12c.03-9.19,4.25-13.79,12.66-13.79h2.1ZM258.49,72.11c-2.2,0-3.85.73-4.94,2.18s-1.63,3.75-1.63,6.9c0,6,2.18,8.99,6.53,8.99h4.68c4.36,0,6.53-3,6.53-8.99,0-3.15-.55-5.44-1.65-6.9-1.1-1.45-2.74-2.18-4.92-2.18h-4.6Z"/>
    <path class="cls-2" d="M287.52,95.01h-4.84v-22.91h-6.86v-4.88h18.15v4.88h-6.45v22.91Z"/>
    <path class="cls-2" d="M378.68,86.91c0,2.69-.77,4.71-2.32,6.07-1.55,1.36-3.7,2.04-6.47,2.04h-14.28v-4.84h15.2c.86,0,1.57-.33,2.14-.99.56-.66.85-1.46.85-2.4,0-.89-.28-1.66-.85-2.32-.56-.66-1.28-.99-2.14-.99h-7.82c-1.61,0-2.98-.24-4.09-.73-1.12-.48-2.02-1.12-2.7-1.9-.69-.78-1.18-1.65-1.49-2.6-.31-.95-.46-1.9-.46-2.84,0-1.13.16-2.18.48-3.17.32-.98.84-1.85,1.55-2.6.71-.75,1.62-1.34,2.72-1.77,1.1-.43,2.43-.65,3.99-.65h13.87v4.88h-14.64c-.43,0-.83.09-1.21.26-.38.18-.71.41-.99.71-.28.3-.51.64-.69,1.03-.18.39-.26.8-.26,1.23,0,.91.31,1.69.93,2.32.62.63,1.37.95,2.26.95h7.7c2.69,0,4.81.68,6.37,2.04,1.56,1.36,2.34,3.38,2.34,6.07v.2Z"/>
  </g>
  <path class="cls-2" d="M121.63,75.41c0,.97-.16,1.94-.46,2.9-.31.97-.81,1.83-1.51,2.6-.7.77-1.61,1.39-2.72,1.85-1.08.45-2.37.69-3.88.7-.06,0-.11,0-.17,0h-8.2c-.44,0-.8.36-.8.8v10.74h-4.88v-14.04c0-1.31,1.07-2.38,2.38-2.38h12.22c.89,0,1.64-.31,2.26-.95.62-.63.93-1.4.93-2.32,0-.43-.09-.84-.26-1.23-.18-.39-.41-.73-.69-1.03-.28-.3-.61-.53-.99-.71-.38-.17-.78-.26-1.21-.26h-14.64v-4.88h13.87c1.53,0,2.85.21,3.95.64,1.1.43,2.01,1.02,2.72,1.77.71.75,1.23,1.62,1.57,2.6.34.98.5,2.03.5,3.16Z"/>
  <path class="cls-2" d="M113.05,83.48h0s-.17,0-.17,0c.06,0,.11,0,.17,0Z"/>
  <path class="cls-2" d="M350.82,94.58l-6.4-11.42c.41-.1.81-.23,1.17-.38,1.12-.47,2.02-1.09,2.72-1.85.7-.77,1.2-1.63,1.51-2.6.31-.97.46-1.94.46-2.9,0-1.13-.17-2.18-.5-3.16-.34-.98-.86-1.85-1.57-2.6-.71-.75-1.62-1.34-2.72-1.77-1.1-.43-2.42-.64-3.95-.64h-13.87v4.88h14.64c.43,0,.83.09,1.21.26.38.18.71.41.99.71.28.3.51.64.69,1.03.17.39.26.8.26,1.23,0,.92-.31,1.69-.93,2.32-.62.63-1.37.95-2.26.95h-12.22c-1.31,0-2.38,1.07-2.38,2.38v14.04h4.88v-10.74c0-.44.36-.8.8-.8h6.03l6.22,11.1h5.23Z"/>
  <g>
    <path class="cls-2" d="M318.51,52.45c-3.66-.72-7.35-1.39-11.05-1.97-14.95-2.34-29.9-3.35-44.99-2.85-.61.02-1.61.03-2.22-.01-.74-.05-1.47-.13-2.2-.24-2.56-.41-5.06-1.25-7.52-2.41-2.46-1.15-4.89-2.58-7.37-4.04-3.1-1.82-6.06-3.81-9.32-5.36s-6.74-3.03-10.19-4.33c-14.17-5.34-29.25-8.29-44.38-8.78-5.2-.17-10.4-.05-15.59.37-10.63.86-21.11,3.08-31.44,5.66-5.67,1.41-11.27,3.08-16.86,4.75-2.78.87-5.58,1.72-8.34,2.65-1.38.46-2.78.89-4.16,1.36l-4.14,1.4-2.07.7-2.06.72-4.13,1.44-8.24,2.94s-2.51.85-7.45,1.26c-4.94.42-15.64-1.09-47.85-7.19,8.45,11.71,26.52,16.31,26.52,16.31l-14.89.25c.75,3.76,5.19,10.62,5.19,10.62,43.33-14.97,79.8-4.43,79.8-4.43-7.95-9.37-41.32-9.95-41.32-9.95l2.19-1.35,3.99-1.7c1.33-.57,2.66-1.14,4-1.68l4.01-1.63,2.01-.81,2.02-.78c14.12-5.56,28.65-10.41,43.45-13.85,9.45-2.2,19.1-3.67,28.82-3.7,14.64-.05,29.13,3.2,42.8,8.31,8.63,3.22,16.73,7.24,24.71,11.84,2.53,1.46,5.16,2.9,7.98,4.15,2.82,1.24,5.89,2.23,9.08,2.62,1.59.19,3.2.26,4.79.18.79-.04,1.58-.11,2.36-.21l2.13-.27c2.79-.34,5.63-.54,8.48-.65,2.85-.11,5.72-.14,8.59-.11,5.75.07,11.51.46,17.25,1.05,5.74.59,11.47,1.35,17.18,2.25,2.86.44,5.71.94,8.55,1.47,2.84.52,5.68,1.1,8.51,1.68,2.83.6,5.66,1.23,8.47,1.9,2.82.66,5.62,1.37,8.42,2.11l-1.47-.94c-2-1.29-4.21-2.23-6.53-2.78-9.28-2.2-15.32-3.9-25.53-5.92Z"/>
    <polygon class="cls-2" points="227.28 55.46 159.32 58.09 236.38 58.09 218.57 42.84 227.28 55.46"/>
  </g>
</svg>