<?xml version="1.0" encoding="UTF-8"?>
<svg xmlns="http://www.w3.org/2000/svg" xmlns:xlink="http://www.w3.org/1999/xlink" width="1920px" height="490px" viewBox="0 0 1920 490" version="1.1">
<g id="surface1">
<path style=" stroke:none;fill-rule:nonzero;fill:rgb(66.274512%,17.647059%,19.607843%);fill-opacity:1;" d="M 1454.945312 371.566406 C 1454 372.929688 1452.957031 374.207031 1451.917969 375.484375 C 1450.355469 377.253906 1448.746094 379.027344 1446.992188 380.675781 C 1446.757812 380.636719 1446.519531 380.554688 1446.285156 380.46875 C 1445.382812 380.222656 1444.34375 380.46875 1443.773438 381.128906 L 1437.007812 388.589844 C 1435.253906 390.527344 1432.128906 390.980469 1429.714844 389.703125 L 1421.859375 385.539062 C 1419.445312 384.261719 1418.5 381.625 1419.683594 379.398438 L 1424.179688 370.742188 C 1424.605469 369.960938 1424.367188 369.09375 1423.707031 368.476562 C 1420.867188 366.046875 1418.308594 363.367188 1416.085938 360.480469 C 1415.5625 359.78125 1414.570312 359.453125 1413.625 359.617188 L 1403.019531 361.882812 C 1400.273438 362.460938 1397.480469 361.183594 1396.488281 358.875 L 1393.222656 351.375 C 1392.226562 349.066406 1393.363281 346.511719 1395.875 345.355469 L 1405.578125 340.945312 C 1406.429688 340.574219 1406.902344 339.75 1406.761719 338.925781 C 1406.710938 338.390625 1406.617188 337.894531 1406.570312 337.359375 C 1406.476562 336.535156 1405.8125 335.835938 1404.867188 335.628906 L 1394.3125 333.28125 C 1391.566406 332.664062 1389.8125 330.394531 1390.144531 327.964844 L 1391.328125 320.007812 C 1391.660156 317.578125 1394.074219 315.765625 1396.867188 315.765625 L 1399.613281 315.765625 C 1402.878906 319.84375 1407.992188 322.523438 1412.722656 325.160156 C 1414.902344 326.273438 1417.078125 327.304688 1419.398438 328.210938 C 1419.207031 329.734375 1419.066406 331.261719 1419.066406 332.828125 C 1419.066406 351.867188 1434.449219 367.734375 1454.992188 371.609375 Z M 1454.945312 371.566406 "/>
<path style=" stroke:none;fill-rule:nonzero;fill:rgb(66.274512%,17.647059%,19.607843%);fill-opacity:1;" d="M 1520.078125 375.605469 L 1513.496094 381.253906 C 1511.507812 382.984375 1508.339844 383.148438 1506.113281 381.625 L 1497.546875 375.730469 C 1496.789062 375.195312 1495.746094 375.195312 1494.941406 375.605469 C 1491.535156 377.421875 1487.9375 378.945312 1484.152344 380.097656 C 1483.25 380.386719 1482.636719 381.128906 1482.589844 381.953125 L 1482.589844 391.476562 C 1482.542969 393.90625 1480.410156 395.96875 1477.570312 396.253906 L 1468.4375 397.164062 C 1465.644531 397.449219 1463.039062 395.882812 1462.378906 393.496094 L 1459.820312 384.261719 C 1459.585938 383.4375 1458.78125 382.859375 1457.832031 382.738281 C 1456.269531 382.574219 1454.757812 382.367188 1453.242188 382.117188 C 1454.28125 380.757812 1455.277344 379.398438 1456.269531 378.082031 C 1457.550781 376.226562 1458.730469 374.289062 1459.773438 372.308594 C 1461.335938 372.476562 1462.945312 372.515625 1464.554688 372.515625 C 1486.515625 372.515625 1504.835938 358.996094 1509.144531 341.027344 C 1510.847656 341.933594 1512.503906 342.925781 1514.066406 343.914062 C 1516.386719 345.4375 1518.65625 347.003906 1520.691406 348.816406 C 1519.933594 348.984375 1519.320312 349.4375 1519.035156 350.097656 C 1517.617188 353.394531 1515.863281 356.484375 1513.734375 359.410156 C 1513.214844 360.109375 1513.261719 361.015625 1513.828125 361.675781 L 1520.503906 369.179688 C 1522.207031 371.113281 1522.019531 373.875 1520.03125 375.605469 Z M 1520.078125 375.605469 "/>
<path style=" stroke:none;fill-rule:nonzero;fill:rgb(66.274512%,17.647059%,19.607843%);fill-opacity:1;" d="M 1538.914062 336.617188 L 1537.730469 344.574219 C 1537.402344 347.003906 1534.988281 348.816406 1532.195312 348.816406 L 1529.636719 348.816406 C 1526.371094 345.066406 1521.542969 342.554688 1517.09375 340.039062 C 1514.777344 338.84375 1512.410156 337.773438 1509.949219 336.785156 C 1510.136719 335.464844 1510.183594 334.144531 1510.183594 332.785156 C 1510.183594 313.828125 1494.894531 297.960938 1474.445312 294.042969 C 1475.488281 292.5625 1476.671875 291.078125 1477.855469 289.675781 C 1479.511719 287.78125 1481.261719 285.84375 1483.203125 284.152344 C 1484.007812 284.234375 1484.765625 283.988281 1485.285156 283.453125 L 1487.558594 280.9375 L 1488.695312 279.660156 L 1492.007812 275.992188 C 1493.757812 274.054688 1496.882812 273.601562 1499.296875 274.878906 L 1507.15625 279.042969 C 1509.570312 280.320312 1510.515625 282.957031 1509.332031 285.183594 L 1504.835938 293.839844 C 1504.410156 294.621094 1504.644531 295.488281 1505.308594 296.105469 C 1508.148438 298.535156 1510.703125 301.214844 1512.929688 304.140625 C 1513.449219 304.84375 1514.445312 305.171875 1515.390625 304.964844 L 1525.992188 302.742188 C 1528.738281 302.164062 1531.53125 303.441406 1532.527344 305.75 L 1535.792969 313.25 C 1536.785156 315.558594 1535.648438 318.113281 1533.140625 319.269531 L 1523.4375 323.675781 C 1522.585938 324.046875 1522.113281 324.871094 1522.253906 325.695312 C 1522.300781 326.234375 1522.394531 326.726562 1522.445312 327.261719 C 1522.539062 328.085938 1523.199219 328.789062 1524.148438 328.996094 L 1534.75 331.34375 C 1537.496094 331.960938 1539.246094 334.226562 1538.914062 336.660156 Z M 1538.914062 336.617188 "/>
<path style=" stroke:none;fill-rule:nonzero;fill:rgb(66.274512%,17.647059%,19.607843%);fill-opacity:1;" d="M 1476.8125 282.628906 C 1475.628906 284.113281 1474.542969 285.636719 1473.453125 287.121094 C 1472.082031 289.140625 1470.851562 291.199219 1469.714844 293.34375 C 1468.058594 293.179688 1466.351562 293.097656 1464.648438 293.097656 C 1442.96875 293.097656 1424.792969 306.285156 1420.203125 323.964844 C 1418.640625 323.101562 1417.125 322.195312 1415.609375 321.246094 C 1413.054688 319.554688 1410.453125 317.742188 1408.273438 315.722656 C 1409.03125 315.601562 1409.648438 315.105469 1409.929688 314.488281 C 1411.351562 311.191406 1413.101562 308.097656 1415.234375 305.171875 C 1415.753906 304.472656 1415.707031 303.566406 1415.136719 302.90625 L 1408.464844 295.40625 C 1406.761719 293.46875 1406.949219 290.707031 1408.9375 288.976562 L 1415.515625 283.328125 C 1417.503906 281.597656 1420.675781 281.433594 1422.902344 282.957031 L 1431.46875 288.851562 C 1432.226562 289.386719 1433.265625 289.429688 1434.070312 288.976562 C 1437.480469 287.160156 1441.078125 285.636719 1444.863281 284.484375 C 1445.761719 284.195312 1446.378906 283.453125 1446.425781 282.628906 L 1446.425781 273.109375 C 1446.472656 270.675781 1448.601562 268.617188 1451.441406 268.328125 L 1460.578125 267.421875 C 1463.371094 267.132812 1465.972656 268.738281 1466.636719 271.089844 L 1469.191406 280.320312 C 1469.429688 281.144531 1470.234375 281.722656 1471.179688 281.84375 C 1473.121094 282.011719 1475.015625 282.296875 1476.859375 282.628906 Z M 1476.8125 282.628906 "/>
<path style=" stroke:none;fill-rule:nonzero;fill:rgb(13.333334%,13.333334%,12.941177%);fill-opacity:1;" d="M 1464.601562 350.671875 C 1463.371094 356.152344 1461.195312 361.472656 1458.257812 366.457031 C 1441.265625 363.945312 1427.539062 351.910156 1425.597656 336.246094 C 1425.363281 334.269531 1425.316406 332.332031 1425.457031 330.4375 C 1431.515625 332.414062 1437.8125 333.734375 1444.199219 334.1875 C 1444.199219 334.269531 1444.199219 334.394531 1444.199219 334.515625 C 1445.335938 343.75 1454.1875 350.550781 1464.601562 350.671875 Z M 1464.601562 350.671875 "/>
<path style=" stroke:none;fill-rule:nonzero;fill:rgb(13.333334%,13.333334%,12.941177%);fill-opacity:1;" d="M 1467.347656 298.25 C 1465.074219 303.523438 1463.558594 309.003906 1463.039062 314.570312 C 1463.039062 314.570312 1462.804688 314.570312 1462.660156 314.570312 C 1452.105469 315.558594 1444.25 323.265625 1444.105469 332.332031 C 1437.8125 331.261719 1431.65625 329.363281 1425.929688 326.808594 C 1428.816406 312.015625 1442.640625 300.0625 1460.671875 298.371094 C 1462.945312 298.167969 1465.167969 298.125 1467.347656 298.25 Z M 1467.347656 298.25 "/>
<path style=" stroke:none;fill-rule:nonzero;fill:rgb(13.333334%,13.333334%,12.941177%);fill-opacity:1;" d="M 1503.792969 338.351562 C 1500.90625 353.144531 1487.085938 365.097656 1469.097656 366.789062 C 1466.828125 366.992188 1464.601562 367.035156 1462.425781 366.910156 C 1464.695312 361.636719 1466.210938 356.152344 1466.730469 350.589844 C 1466.875 350.589844 1466.96875 350.589844 1467.109375 350.589844 C 1477.714844 349.601562 1485.570312 341.851562 1485.664062 332.828125 C 1491.960938 333.898438 1498.066406 335.792969 1503.792969 338.351562 Z M 1503.792969 338.351562 "/>
<path style=" stroke:none;fill-rule:nonzero;fill:rgb(13.333334%,13.333334%,12.941177%);fill-opacity:1;" d="M 1504.265625 334.722656 C 1498.207031 332.746094 1491.914062 331.425781 1485.523438 330.972656 C 1485.523438 330.847656 1485.523438 330.765625 1485.523438 330.644531 C 1484.386719 321.453125 1475.488281 314.609375 1465.121094 314.488281 C 1466.351562 309.003906 1468.53125 303.648438 1471.464844 298.660156 C 1488.457031 301.132812 1502.183594 313.210938 1504.125 328.871094 C 1504.363281 330.847656 1504.410156 332.785156 1504.265625 334.683594 Z M 1504.265625 334.722656 "/>
<path style=" stroke:none;fill-rule:nonzero;fill:rgb(66.274512%,17.647059%,19.607843%);fill-opacity:1;" d="M 369.25 371.566406 C 368.304688 372.929688 367.261719 374.207031 366.222656 375.484375 C 364.660156 377.253906 363.050781 379.027344 361.296875 380.675781 C 361.0625 380.636719 360.824219 380.554688 360.589844 380.46875 C 359.6875 380.222656 358.648438 380.46875 358.078125 381.128906 L 351.3125 388.589844 C 349.558594 390.527344 346.4375 390.980469 344.023438 389.703125 L 336.164062 385.539062 C 333.75 384.261719 332.804688 381.625 333.988281 379.398438 L 338.484375 370.742188 C 338.910156 369.960938 338.671875 369.09375 338.011719 368.476562 C 335.171875 366.046875 332.613281 363.367188 330.390625 360.480469 C 329.867188 359.78125 328.875 359.453125 327.929688 359.617188 L 317.324219 361.882812 C 314.582031 362.460938 311.789062 361.183594 310.792969 358.875 L 307.527344 351.375 C 306.535156 349.066406 307.667969 346.511719 310.179688 345.355469 L 319.882812 340.945312 C 320.734375 340.574219 321.207031 339.75 321.066406 338.925781 C 321.019531 338.390625 320.921875 337.894531 320.875 337.359375 C 320.78125 336.535156 320.117188 335.835938 319.171875 335.628906 L 308.617188 333.28125 C 305.871094 332.664062 304.121094 330.394531 304.449219 327.964844 L 305.632812 320.007812 C 305.964844 317.578125 308.378906 315.765625 311.171875 315.765625 L 313.917969 315.765625 C 317.183594 319.84375 322.296875 322.523438 327.027344 325.160156 C 329.207031 326.273438 331.382812 327.304688 333.703125 328.210938 C 333.515625 329.734375 333.371094 331.261719 333.371094 332.828125 C 333.371094 351.867188 348.753906 367.734375 369.296875 371.609375 Z M 369.25 371.566406 "/>
<path style=" stroke:none;fill-rule:nonzero;fill:rgb(66.274512%,17.647059%,19.607843%);fill-opacity:1;" d="M 434.429688 375.605469 L 427.851562 381.253906 C 425.863281 382.984375 422.691406 383.148438 420.464844 381.625 L 411.898438 375.730469 C 411.140625 375.195312 410.101562 375.195312 409.296875 375.605469 C 405.886719 377.421875 402.289062 378.945312 398.503906 380.097656 C 397.605469 380.386719 396.988281 381.128906 396.941406 381.953125 L 396.941406 391.476562 C 396.894531 393.90625 394.765625 395.96875 391.921875 396.253906 L 382.789062 397.164062 C 379.996094 397.449219 377.390625 395.882812 376.730469 393.496094 L 374.171875 384.261719 C 373.9375 383.4375 373.132812 382.859375 372.183594 382.738281 C 370.625 382.574219 369.109375 382.367188 367.59375 382.117188 C 368.636719 380.757812 369.628906 379.398438 370.625 378.082031 C 371.902344 376.226562 373.085938 374.289062 374.125 372.308594 C 375.6875 372.476562 377.296875 372.515625 378.90625 372.515625 C 400.871094 372.515625 419.1875 358.996094 423.496094 341.027344 C 425.199219 341.933594 426.855469 342.925781 428.417969 343.914062 C 430.738281 345.4375 433.007812 347.003906 435.042969 348.816406 C 434.289062 348.984375 433.671875 349.4375 433.386719 350.097656 C 431.96875 353.394531 430.214844 356.484375 428.085938 359.410156 C 427.566406 360.109375 427.613281 361.015625 428.179688 361.675781 L 434.855469 369.179688 C 436.558594 371.113281 436.371094 373.875 434.382812 375.605469 Z M 434.429688 375.605469 "/>
<path style=" stroke:none;fill-rule:nonzero;fill:rgb(66.274512%,17.647059%,19.607843%);fill-opacity:1;" d="M 453.269531 336.617188 L 452.085938 344.574219 C 451.753906 347.003906 449.339844 348.816406 446.546875 348.816406 L 443.992188 348.816406 C 440.726562 345.066406 435.898438 342.554688 431.449219 340.039062 C 429.128906 338.84375 426.761719 337.773438 424.300781 336.785156 C 424.488281 335.464844 424.535156 334.144531 424.535156 332.785156 C 424.535156 313.828125 409.246094 297.960938 388.800781 294.042969 C 389.839844 292.5625 391.023438 291.078125 392.207031 289.675781 C 393.863281 287.78125 395.617188 285.84375 397.554688 284.152344 C 398.359375 284.234375 399.117188 283.988281 399.640625 283.453125 L 401.910156 280.9375 L 403.046875 279.660156 L 406.359375 275.992188 C 408.113281 274.054688 411.234375 273.601562 413.648438 274.878906 L 421.507812 279.042969 C 423.921875 280.320312 424.867188 282.957031 423.683594 285.183594 L 419.1875 293.839844 C 418.761719 294.621094 419 295.488281 419.660156 296.105469 C 422.5 298.535156 425.058594 301.214844 427.28125 304.140625 C 427.800781 304.84375 428.796875 305.171875 429.742188 304.964844 L 440.347656 302.742188 C 443.089844 302.164062 445.882812 303.441406 446.878906 305.75 L 450.144531 313.25 C 451.136719 315.558594 450.003906 318.113281 447.492188 319.269531 L 437.789062 323.675781 C 436.9375 324.046875 436.464844 324.871094 436.605469 325.695312 C 436.652344 326.234375 436.75 326.726562 436.796875 327.261719 C 436.890625 328.085938 437.554688 328.789062 438.5 328.996094 L 449.101562 331.34375 C 451.847656 331.960938 453.597656 334.226562 453.269531 336.660156 Z M 453.269531 336.617188 "/>
<path style=" stroke:none;fill-rule:nonzero;fill:rgb(66.274512%,17.647059%,19.607843%);fill-opacity:1;" d="M 391.117188 282.628906 C 389.9375 284.113281 388.847656 285.636719 387.757812 287.121094 C 386.386719 289.140625 385.15625 291.199219 384.019531 293.34375 C 382.363281 293.179688 380.660156 293.097656 378.953125 293.097656 C 357.273438 293.097656 339.097656 306.285156 334.507812 323.964844 C 332.945312 323.101562 331.429688 322.195312 329.917969 321.246094 C 327.359375 319.554688 324.757812 317.742188 322.578125 315.722656 C 323.335938 315.601562 323.953125 315.105469 324.238281 314.488281 C 325.65625 311.191406 327.40625 308.097656 329.539062 305.171875 C 330.058594 304.472656 330.011719 303.566406 329.441406 302.90625 L 322.769531 295.40625 C 321.066406 293.46875 321.253906 290.707031 323.242188 288.976562 L 329.820312 283.328125 C 331.808594 281.597656 334.980469 281.433594 337.207031 282.957031 L 345.773438 288.851562 C 346.53125 289.386719 347.570312 289.429688 348.375 288.976562 C 351.785156 287.160156 355.382812 285.636719 359.167969 284.484375 C 360.066406 284.195312 360.683594 283.453125 360.730469 282.628906 L 360.730469 273.109375 C 360.777344 270.675781 362.90625 268.617188 365.75 268.328125 L 374.882812 267.421875 C 377.675781 267.132812 380.28125 268.738281 380.941406 271.089844 L 383.5 280.320312 C 383.734375 281.144531 384.539062 281.722656 385.484375 281.84375 C 387.425781 282.011719 389.320312 282.296875 391.167969 282.628906 Z M 391.117188 282.628906 "/>
<path style=" stroke:none;fill-rule:nonzero;fill:rgb(13.333334%,13.333334%,12.941177%);fill-opacity:1;" d="M 378.953125 350.671875 C 377.722656 356.152344 375.546875 361.472656 372.613281 366.457031 C 355.617188 363.945312 341.890625 351.910156 339.953125 336.246094 C 339.714844 334.269531 339.667969 332.332031 339.808594 330.4375 C 345.867188 332.414062 352.164062 333.734375 358.554688 334.1875 C 358.554688 334.269531 358.554688 334.394531 358.554688 334.515625 C 359.6875 343.75 368.539062 350.550781 378.953125 350.671875 Z M 378.953125 350.671875 "/>
<path style=" stroke:none;fill-rule:nonzero;fill:rgb(13.333334%,13.333334%,12.941177%);fill-opacity:1;" d="M 381.652344 298.25 C 379.378906 303.523438 377.867188 309.003906 377.34375 314.570312 C 377.34375 314.570312 377.109375 314.570312 376.964844 314.570312 C 366.410156 315.558594 358.554688 323.265625 358.410156 332.332031 C 352.117188 331.261719 345.960938 329.363281 340.234375 326.808594 C 343.121094 312.015625 356.945312 300.0625 374.976562 298.371094 C 377.25 298.167969 379.476562 298.125 381.652344 298.25 Z M 381.652344 298.25 "/>
<path style=" stroke:none;fill-rule:nonzero;fill:rgb(13.333334%,13.333334%,12.941177%);fill-opacity:1;" d="M 418.148438 338.351562 C 415.257812 353.144531 401.4375 365.097656 383.449219 366.789062 C 381.179688 366.992188 378.953125 367.035156 376.777344 366.910156 C 379.050781 361.636719 380.5625 356.152344 381.085938 350.589844 C 381.226562 350.589844 381.320312 350.589844 381.464844 350.589844 C 392.066406 349.601562 399.921875 341.851562 400.019531 332.828125 C 406.3125 333.898438 412.417969 335.792969 418.148438 338.351562 Z M 418.148438 338.351562 "/>
<path style=" stroke:none;fill-rule:nonzero;fill:rgb(13.333334%,13.333334%,12.941177%);fill-opacity:1;" d="M 418.621094 334.722656 C 412.5625 332.746094 406.265625 331.425781 399.875 330.972656 C 399.875 330.847656 399.875 330.765625 399.875 330.644531 C 398.738281 321.453125 389.839844 314.609375 379.476562 314.488281 C 380.707031 309.003906 382.882812 303.648438 385.816406 298.660156 C 402.808594 301.132812 416.539062 313.210938 418.476562 328.871094 C 418.714844 330.847656 418.761719 332.785156 418.621094 334.683594 Z M 418.621094 334.722656 "/>
<path style=" stroke:none;fill-rule:nonzero;fill:rgb(13.333334%,13.333334%,12.941177%);fill-opacity:1;" d="M 278.464844 392.175781 L 255.554688 392.175781 L 255.554688 297.753906 L 223.085938 297.753906 L 223.085938 277.640625 L 308.996094 277.640625 L 308.996094 297.753906 L 278.464844 297.753906 Z M 278.464844 392.175781 "/>
<path style=" stroke:none;fill-rule:nonzero;fill:rgb(13.333334%,13.333334%,12.941177%);fill-opacity:1;" d="M 692.730469 277.683594 C 732.441406 277.683594 752.277344 296.683594 752.277344 334.683594 L 752.277344 335.175781 C 751.898438 373.175781 731.96875 392.175781 692.539062 392.175781 L 638.34375 392.175781 L 638.34375 277.640625 L 692.730469 277.640625 Z M 661.441406 372.269531 L 698.269531 372.269531 C 708.679688 372.269531 716.445312 369.261719 721.554688 363.203125 C 726.667969 357.144531 729.175781 347.621094 729.175781 334.515625 C 729.175781 310.035156 718.953125 297.796875 698.457031 297.796875 L 661.441406 297.796875 Z M 661.441406 372.269531 "/>
<path style=" stroke:none;fill-rule:nonzero;fill:rgb(13.333334%,13.333334%,12.941177%);fill-opacity:1;" d="M 858.207031 312.261719 C 860.386719 311.394531 862.183594 310.160156 863.652344 308.59375 C 865.121094 307.027344 865.828125 305.503906 865.828125 303.9375 C 865.828125 302.164062 865.121094 300.679688 863.746094 299.527344 C 862.328125 298.371094 860.195312 297.796875 857.261719 297.796875 L 769.457031 297.796875 L 769.457031 277.683594 L 856.503906 277.683594 C 867.203125 277.683594 875.203125 280.113281 880.457031 284.976562 C 885.757812 289.839844 888.359375 296.1875 888.359375 303.9375 C 888.359375 305.378906 888.21875 307.191406 887.980469 309.335938 C 887.746094 311.476562 886.941406 313.785156 885.613281 316.21875 C 884.289062 318.648438 882.160156 321.082031 879.320312 323.511719 C 876.480469 325.945312 872.457031 328.167969 867.390625 330.148438 L 795.066406 357.554688 C 792.507812 358.542969 790.664062 359.78125 789.433594 361.222656 C 788.203125 362.667969 787.632812 364.148438 787.632812 365.714844 C 787.632812 367.816406 788.4375 369.425781 790.09375 370.539062 C 791.753906 371.652344 793.738281 372.1875 796.011719 372.1875 L 885.332031 372.1875 L 885.332031 392.132812 L 796.582031 392.132812 C 785.882812 392.132812 777.882812 389.703125 772.535156 384.839844 C 767.1875 379.976562 764.535156 373.710938 764.535156 366.046875 C 764.535156 364.066406 764.773438 361.882812 765.292969 359.492188 C 765.8125 357.101562 766.808594 354.710938 768.371094 352.363281 C 769.882812 349.972656 772.0625 347.664062 774.855469 345.480469 C 777.648438 343.253906 781.339844 341.316406 785.929688 339.667969 L 858.257812 312.261719 Z M 858.207031 312.261719 "/>
<path style=" stroke:none;fill-rule:nonzero;fill:rgb(13.333334%,13.333334%,12.941177%);fill-opacity:1;" d="M 977.300781 295.117188 C 979.574219 289.46875 983.359375 285.101562 988.660156 281.96875 C 993.960938 278.878906 1000.019531 277.3125 1006.882812 277.3125 C 1011.570312 277.3125 1016.019531 277.972656 1020.136719 279.289062 C 1024.253906 280.609375 1027.851562 282.503906 1030.929688 284.9375 C 1034.007812 287.367188 1036.421875 290.335938 1038.171875 293.839844 C 1039.96875 297.34375 1040.824219 301.175781 1040.824219 305.378906 L 1040.824219 363.035156 C 1040.824219 369.671875 1044.089844 373.011719 1050.574219 373.011719 C 1052.75 373.011719 1054.40625 372.433594 1055.542969 371.28125 C 1056.679688 370.125 1057.71875 368.355469 1058.574219 366.046875 L 1084.9375 295.074219 C 1087.113281 289.429688 1090.902344 285.058594 1096.296875 281.929688 C 1101.695312 278.835938 1107.800781 277.269531 1114.519531 277.269531 C 1119.207031 277.269531 1123.65625 277.929688 1127.773438 279.25 C 1131.894531 280.566406 1135.488281 282.464844 1138.566406 284.894531 C 1141.597656 287.328125 1144.058594 290.292969 1145.808594 293.796875 C 1147.605469 297.300781 1148.460938 301.132812 1148.460938 305.335938 L 1148.460938 392.09375 L 1124.035156 392.09375 L 1124.035156 307.316406 C 1124.035156 300.679688 1120.722656 297.34375 1114.09375 297.34375 C 1111.917969 297.34375 1110.308594 297.960938 1109.21875 299.238281 C 1108.132812 300.515625 1107.136719 302.328125 1106.285156 304.636719 L 1079.542969 375.441406 C 1077.742188 381.089844 1074.097656 385.5 1068.558594 388.671875 C 1063.023438 391.84375 1056.867188 393.410156 1050.148438 393.410156 C 1045.320312 393.410156 1040.871094 392.753906 1036.800781 391.433594 C 1032.726562 390.113281 1029.179688 388.21875 1026.101562 385.789062 C 1023.023438 383.355469 1020.660156 380.386719 1018.953125 376.886719 C 1017.25 373.382812 1016.398438 369.546875 1016.398438 365.34375 L 1016.398438 307.355469 C 1016.398438 300.722656 1013.085938 297.382812 1006.457031 297.382812 C 1004.28125 297.382812 1002.71875 298 1001.675781 299.277344 C 1000.636719 300.554688 999.640625 302.371094 998.648438 304.679688 L 963.527344 392.09375 L 937.585938 392.09375 L 977.300781 295.035156 Z M 977.300781 295.117188 "/>
<path style=" stroke:none;fill-rule:nonzero;fill:rgb(13.333334%,13.333334%,12.941177%);fill-opacity:1;" d="M 1239.339844 277.683594 C 1278.910156 277.683594 1298.886719 296.640625 1299.265625 334.515625 L 1299.265625 335.011719 C 1299.265625 373.132812 1279.335938 392.175781 1239.53125 392.175781 L 1229.210938 392.175781 C 1189.355469 392.175781 1169.476562 373.132812 1169.476562 335.011719 L 1169.476562 334.515625 C 1169.617188 296.640625 1189.59375 277.683594 1229.398438 277.683594 Z M 1223.53125 297.796875 C 1213.117188 297.796875 1205.308594 300.804688 1200.148438 306.78125 C 1194.988281 312.757812 1192.433594 322.234375 1192.433594 335.21875 C 1192.433594 359.945312 1202.75 372.269531 1223.339844 372.269531 L 1245.492188 372.269531 C 1266.132812 372.269531 1276.402344 359.90625 1276.402344 335.21875 C 1276.402344 322.234375 1273.800781 312.796875 1268.59375 306.78125 C 1263.386719 300.804688 1255.625 297.796875 1245.304688 297.796875 Z M 1223.53125 297.796875 "/>
<path style=" stroke:none;fill-rule:nonzero;fill:rgb(13.333334%,13.333334%,12.941177%);fill-opacity:1;" d="M 1360.941406 392.175781 L 1338.03125 392.175781 L 1338.03125 297.753906 L 1305.558594 297.753906 L 1305.558594 277.640625 L 1391.472656 277.640625 L 1391.472656 297.753906 L 1360.941406 297.753906 Z M 1360.941406 392.175781 "/>
<path style=" stroke:none;fill-rule:nonzero;fill:rgb(13.333334%,13.333334%,12.941177%);fill-opacity:1;" d="M 1792.433594 358.792969 C 1792.433594 369.878906 1788.789062 378.203125 1781.453125 383.808594 C 1774.117188 389.414062 1763.941406 392.214844 1750.828125 392.214844 L 1683.238281 392.214844 L 1683.238281 372.269531 L 1755.183594 372.269531 C 1759.253906 372.269531 1762.613281 370.910156 1765.3125 368.1875 C 1767.964844 365.46875 1769.335938 362.171875 1769.335938 358.296875 C 1769.335938 354.628906 1768.011719 351.457031 1765.3125 348.734375 C 1762.664062 346.015625 1759.253906 344.65625 1755.183594 344.65625 L 1718.167969 344.65625 C 1710.546875 344.65625 1704.0625 343.667969 1698.808594 341.648438 C 1693.507812 339.667969 1689.246094 337.03125 1686.027344 333.816406 C 1682.761719 330.601562 1680.445312 327.015625 1678.976562 323.101562 C 1677.507812 319.183594 1676.800781 315.269531 1676.800781 311.394531 C 1676.800781 306.738281 1677.554688 302.410156 1679.070312 298.332031 C 1680.585938 294.292969 1683.046875 290.707031 1686.40625 287.617188 C 1689.769531 284.523438 1694.074219 282.09375 1699.28125 280.320312 C 1704.488281 278.546875 1710.785156 277.640625 1718.167969 277.640625 L 1783.820312 277.640625 L 1783.820312 297.753906 L 1714.523438 297.753906 C 1712.488281 297.753906 1710.59375 298.125 1708.796875 298.824219 C 1706.996094 299.566406 1705.4375 300.515625 1704.109375 301.75 C 1702.785156 302.988281 1701.695312 304.390625 1700.84375 305.996094 C 1699.992188 307.605469 1699.613281 309.292969 1699.613281 311.066406 C 1699.613281 314.816406 1701.082031 318.03125 1704.015625 320.628906 C 1706.949219 323.222656 1710.5 324.542969 1714.714844 324.542969 L 1751.160156 324.542969 C 1763.894531 324.542969 1773.929688 327.34375 1781.3125 332.949219 C 1788.695312 338.554688 1792.386719 346.882812 1792.386719 357.96875 L 1792.386719 358.792969 Z M 1792.433594 358.792969 "/>
<path style=" stroke:none;fill-rule:nonzero;fill:rgb(13.333334%,13.333334%,12.941177%);fill-opacity:1;" d="M 575.722656 311.394531 C 575.722656 315.394531 574.964844 319.390625 573.542969 323.347656 C 572.074219 327.34375 569.710938 330.890625 566.394531 334.0625 C 563.082031 337.238281 558.773438 339.792969 553.519531 341.6875 C 548.410156 343.542969 542.304688 344.53125 535.15625 344.574219 C 534.871094 344.574219 534.636719 344.574219 534.351562 344.574219 L 495.539062 344.574219 C 493.453125 344.574219 491.75 346.058594 491.75 347.871094 L 491.75 392.132812 L 468.652344 392.132812 L 468.652344 334.269531 C 468.652344 328.871094 473.714844 324.460938 479.917969 324.460938 L 537.757812 324.460938 C 541.972656 324.460938 545.523438 323.183594 548.457031 320.546875 C 551.390625 317.949219 552.859375 314.773438 552.859375 310.984375 C 552.859375 309.210938 552.433594 307.523438 551.628906 305.914062 C 550.777344 304.308594 549.6875 302.90625 548.363281 301.667969 C 547.035156 300.433594 545.472656 299.484375 543.675781 298.742188 C 541.878906 298.042969 539.984375 297.671875 537.949219 297.671875 L 468.652344 297.671875 L 468.652344 277.558594 L 534.304688 277.558594 C 541.546875 277.558594 547.792969 278.425781 553 280.195312 C 558.207031 281.96875 562.515625 284.402344 565.875 287.492188 C 569.234375 290.582031 571.699219 294.167969 573.308594 298.207031 C 574.917969 302.246094 575.671875 306.574219 575.671875 311.230469 Z M 575.722656 311.394531 "/>
<path style=" stroke:none;fill-rule:nonzero;fill:rgb(13.333334%,13.333334%,12.941177%);fill-opacity:1;" d="M 1660.5625 390.402344 L 1630.269531 343.335938 C 1632.210938 342.925781 1634.105469 342.390625 1635.808594 341.769531 C 1641.109375 339.832031 1645.371094 337.277344 1648.683594 334.144531 C 1651.996094 330.972656 1654.363281 327.429688 1655.832031 323.429688 C 1657.296875 319.433594 1658.007812 315.433594 1658.007812 311.476562 C 1658.007812 306.820312 1657.203125 302.492188 1655.640625 298.453125 C 1654.03125 294.414062 1651.570312 290.828125 1648.210938 287.738281 C 1644.847656 284.648438 1640.542969 282.214844 1635.335938 280.445312 C 1630.128906 278.671875 1623.878906 277.804688 1616.636719 277.804688 L 1550.984375 277.804688 L 1550.984375 297.917969 L 1620.28125 297.917969 C 1622.316406 297.917969 1624.210938 298.289062 1626.011719 298.992188 C 1627.808594 299.730469 1629.371094 300.679688 1630.695312 301.917969 C 1632.019531 303.152344 1633.109375 304.554688 1633.960938 306.160156 C 1634.765625 307.769531 1635.191406 309.457031 1635.191406 311.230469 C 1635.191406 315.023438 1633.726562 318.195312 1630.789062 320.792969 C 1627.855469 323.390625 1624.304688 324.707031 1620.09375 324.707031 L 1562.25 324.707031 C 1556.050781 324.707031 1550.984375 329.117188 1550.984375 334.515625 L 1550.984375 392.382812 L 1574.085938 392.382812 L 1574.085938 348.117188 C 1574.085938 346.304688 1575.789062 344.820312 1577.871094 344.820312 L 1606.414062 344.820312 L 1635.855469 390.566406 L 1660.609375 390.566406 Z M 1660.5625 390.402344 "/>
<path style=" stroke:none;fill-rule:nonzero;fill:rgb(13.333334%,13.333334%,12.941177%);fill-opacity:1;" d="M 1507.628906 216.769531 C 1490.304688 213.800781 1472.835938 211.039062 1455.324219 208.648438 C 1384.558594 199.003906 1313.796875 194.84375 1242.371094 196.902344 C 1239.480469 196.984375 1234.75 197.027344 1231.863281 196.863281 C 1228.359375 196.65625 1224.902344 196.328125 1221.449219 195.871094 C 1209.332031 194.183594 1197.496094 190.722656 1185.851562 185.941406 C 1174.210938 181.199219 1162.707031 175.308594 1150.96875 169.289062 C 1136.292969 161.789062 1122.285156 153.585938 1106.851562 147.199219 C 1091.421875 140.8125 1074.949219 134.710938 1058.621094 129.351562 C 991.546875 107.34375 920.167969 95.1875 848.550781 93.167969 C 823.9375 92.46875 799.324219 92.960938 774.757812 94.691406 C 724.445312 98.238281 674.835938 107.386719 625.941406 118.019531 C 599.105469 123.832031 572.597656 130.714844 546.136719 137.597656 C 532.976562 141.183594 519.726562 144.683594 506.660156 148.519531 C 500.128906 150.414062 493.503906 152.1875 486.96875 154.125 L 467.375 159.894531 L 457.574219 162.777344 L 447.824219 165.746094 L 428.277344 171.679688 L 389.273438 183.796875 C 389.273438 183.796875 377.390625 187.300781 354.007812 188.988281 C 330.625 190.722656 279.980469 184.496094 127.515625 159.355469 C 167.515625 207.617188 253.046875 226.578125 253.046875 226.578125 L 182.566406 227.609375 C 186.117188 243.105469 207.132812 271.378906 207.132812 271.378906 C 412.230469 209.679688 584.855469 253.121094 584.855469 253.121094 C 547.226562 214.5 389.273438 212.109375 389.273438 212.109375 L 399.640625 206.546875 L 418.523438 199.539062 C 424.820312 197.191406 431.117188 194.84375 437.457031 192.617188 L 456.441406 185.898438 L 465.953125 182.5625 L 475.515625 179.347656 C 542.351562 156.429688 611.125 136.441406 681.179688 122.265625 C 725.910156 113.199219 771.589844 107.140625 817.597656 107.015625 C 886.894531 106.808594 955.480469 120.203125 1020.183594 141.265625 C 1061.035156 154.535156 1099.375 171.101562 1137.148438 190.0625 C 1149.121094 196.078125 1161.570312 202.015625 1174.917969 207.164062 C 1188.265625 212.277344 1202.796875 216.355469 1217.898438 217.964844 C 1225.425781 218.746094 1233.042969 219.035156 1240.570312 218.707031 C 1244.308594 218.539062 1248.050781 218.253906 1251.742188 217.839844 L 1261.824219 216.726562 C 1275.03125 215.324219 1288.472656 214.5 1301.960938 214.046875 C 1315.453125 213.59375 1329.039062 213.472656 1342.621094 213.59375 C 1369.839844 213.882812 1397.105469 215.492188 1424.273438 217.921875 C 1451.441406 220.355469 1478.566406 223.484375 1505.59375 227.195312 C 1519.128906 229.007812 1532.621094 231.070312 1546.0625 233.253906 C 1559.507812 235.398438 1572.949219 237.789062 1586.34375 240.179688 C 1599.738281 242.652344 1613.136719 245.246094 1626.4375 248.007812 C 1639.785156 250.730469 1653.039062 253.65625 1666.289062 256.703125 L 1659.332031 252.832031 C 1649.867188 247.515625 1639.40625 243.640625 1628.425781 241.375 C 1584.5 232.304688 1555.910156 225.300781 1507.582031 216.972656 Z M 1507.628906 216.769531 "/>
<path style=" stroke:none;fill-rule:nonzero;fill:rgb(13.333334%,13.333334%,12.941177%);fill-opacity:1;" d="M 1075.800781 229.171875 L 754.121094 240.011719 L 1118.875 240.011719 L 1034.574219 177.160156 Z M 1075.800781 229.171875 "/>
</g>
</svg>
