<?xml version="1.0" encoding="UTF-8"?>
<svg xmlns="http://www.w3.org/2000/svg" xmlns:xlink="http://www.w3.org/1999/xlink" width="171px" height="51px" viewBox="0 0 171 51" version="1.1">
<g id="surface1">
<path style=" stroke:none;fill-rule:nonzero;fill:rgb(66.274512%,17.647059%,19.607843%);fill-opacity:1;" d="M 129.582031 38.671875 C 129.496094 38.816406 129.402344 38.949219 129.3125 39.082031 C 129.171875 39.265625 129.027344 39.449219 128.871094 39.621094 C 128.851562 39.617188 128.832031 39.609375 128.808594 39.601562 C 128.730469 39.574219 128.636719 39.601562 128.585938 39.667969 L 127.984375 40.445312 C 127.828125 40.648438 127.550781 40.695312 127.335938 40.5625 L 126.632812 40.128906 C 126.417969 39.996094 126.335938 39.71875 126.441406 39.488281 L 126.839844 38.585938 C 126.878906 38.507812 126.859375 38.417969 126.796875 38.351562 C 126.546875 38.097656 126.316406 37.820312 126.121094 37.519531 C 126.074219 37.445312 125.984375 37.414062 125.902344 37.429688 L 124.957031 37.664062 C 124.710938 37.726562 124.464844 37.59375 124.375 37.351562 L 124.082031 36.570312 C 123.996094 36.332031 124.097656 36.066406 124.320312 35.945312 L 125.183594 35.484375 C 125.261719 35.449219 125.300781 35.363281 125.289062 35.277344 C 125.285156 35.21875 125.277344 35.167969 125.273438 35.113281 C 125.265625 35.027344 125.207031 34.953125 125.121094 34.933594 L 124.179688 34.6875 C 123.9375 34.625 123.78125 34.386719 123.808594 34.136719 L 123.914062 33.308594 C 123.945312 33.054688 124.160156 32.867188 124.410156 32.867188 L 124.652344 32.867188 C 124.945312 33.289062 125.398438 33.570312 125.820312 33.84375 C 126.015625 33.960938 126.207031 34.066406 126.414062 34.160156 C 126.398438 34.320312 126.386719 34.476562 126.386719 34.640625 C 126.386719 36.621094 127.753906 38.273438 129.585938 38.675781 Z M 129.582031 38.671875 "/>
<path style=" stroke:none;fill-rule:nonzero;fill:rgb(66.274512%,17.647059%,19.607843%);fill-opacity:1;" d="M 135.382812 39.09375 L 134.796875 39.679688 C 134.617188 39.863281 134.335938 39.878906 134.136719 39.71875 L 133.375 39.105469 C 133.308594 39.050781 133.214844 39.050781 133.144531 39.09375 C 132.839844 39.28125 132.519531 39.441406 132.183594 39.5625 C 132.101562 39.589844 132.046875 39.667969 132.042969 39.753906 L 132.042969 40.746094 C 132.039062 41 131.847656 41.214844 131.597656 41.242188 L 130.78125 41.335938 C 130.535156 41.367188 130.300781 41.203125 130.242188 40.957031 L 130.015625 39.996094 C 129.996094 39.910156 129.921875 39.847656 129.839844 39.835938 C 129.699219 39.820312 129.5625 39.796875 129.429688 39.773438 C 129.523438 39.628906 129.609375 39.488281 129.699219 39.351562 C 129.8125 39.15625 129.917969 38.957031 130.011719 38.75 C 130.148438 38.769531 130.292969 38.773438 130.4375 38.773438 C 132.394531 38.773438 134.023438 37.363281 134.40625 35.496094 C 134.558594 35.589844 134.707031 35.691406 134.847656 35.796875 C 135.054688 35.953125 135.253906 36.117188 135.4375 36.304688 C 135.371094 36.324219 135.3125 36.371094 135.289062 36.4375 C 135.164062 36.78125 135.007812 37.101562 134.816406 37.40625 C 134.769531 37.480469 134.773438 37.574219 134.824219 37.644531 L 135.417969 38.425781 C 135.570312 38.625 135.554688 38.914062 135.378906 39.09375 Z M 135.382812 39.09375 "/>
<path style=" stroke:none;fill-rule:nonzero;fill:rgb(66.274512%,17.647059%,19.607843%);fill-opacity:1;" d="M 137.058594 35.035156 L 136.953125 35.863281 C 136.925781 36.117188 136.710938 36.304688 136.460938 36.304688 L 136.234375 36.304688 C 135.941406 35.914062 135.511719 35.652344 135.117188 35.390625 C 134.910156 35.265625 134.699219 35.15625 134.480469 35.054688 C 134.496094 34.914062 134.5 34.777344 134.5 34.636719 C 134.5 32.664062 133.140625 31.011719 131.316406 30.605469 C 131.410156 30.449219 131.515625 30.296875 131.621094 30.148438 C 131.769531 29.953125 131.925781 29.75 132.097656 29.574219 C 132.167969 29.582031 132.238281 29.558594 132.285156 29.503906 L 132.484375 29.242188 L 132.585938 29.109375 L 132.882812 28.726562 C 133.039062 28.523438 133.316406 28.476562 133.53125 28.609375 L 134.230469 29.042969 C 134.445312 29.175781 134.53125 29.449219 134.425781 29.683594 L 134.023438 30.582031 C 133.988281 30.664062 134.007812 30.753906 134.066406 30.820312 C 134.320312 31.070312 134.546875 31.351562 134.746094 31.65625 C 134.792969 31.730469 134.878906 31.761719 134.964844 31.742188 L 135.910156 31.507812 C 136.152344 31.449219 136.402344 31.582031 136.492188 31.824219 L 136.78125 32.605469 C 136.871094 32.84375 136.769531 33.109375 136.546875 33.230469 L 135.679688 33.6875 C 135.605469 33.726562 135.5625 33.8125 135.574219 33.898438 C 135.578125 33.953125 135.589844 34.007812 135.59375 34.0625 C 135.601562 34.148438 135.660156 34.222656 135.746094 34.242188 L 136.6875 34.488281 C 136.933594 34.550781 137.089844 34.785156 137.058594 35.039062 Z M 137.058594 35.035156 "/>
<path style=" stroke:none;fill-rule:nonzero;fill:rgb(66.274512%,17.647059%,19.607843%);fill-opacity:1;" d="M 131.527344 29.417969 C 131.421875 29.570312 131.328125 29.730469 131.230469 29.882812 C 131.105469 30.09375 130.996094 30.308594 130.894531 30.53125 C 130.75 30.515625 130.597656 30.507812 130.445312 30.507812 C 128.515625 30.507812 126.894531 31.878906 126.488281 33.71875 C 126.347656 33.628906 126.210938 33.535156 126.078125 33.4375 C 125.851562 33.261719 125.617188 33.070312 125.425781 32.859375 C 125.492188 32.847656 125.546875 32.796875 125.570312 32.730469 C 125.699219 32.390625 125.855469 32.066406 126.042969 31.761719 C 126.089844 31.691406 126.085938 31.59375 126.035156 31.527344 L 125.441406 30.746094 C 125.289062 30.542969 125.304688 30.257812 125.484375 30.078125 L 126.070312 29.488281 C 126.246094 29.308594 126.527344 29.292969 126.726562 29.449219 L 127.488281 30.0625 C 127.558594 30.121094 127.648438 30.125 127.722656 30.078125 C 128.027344 29.886719 128.347656 29.730469 128.683594 29.609375 C 128.761719 29.578125 128.816406 29.503906 128.824219 29.417969 L 128.824219 28.425781 C 128.828125 28.171875 129.015625 27.957031 129.269531 27.929688 L 130.082031 27.832031 C 130.332031 27.804688 130.5625 27.972656 130.621094 28.214844 L 130.851562 29.175781 C 130.871094 29.261719 130.941406 29.320312 131.027344 29.335938 C 131.199219 29.351562 131.367188 29.382812 131.53125 29.417969 Z M 131.527344 29.417969 "/>
<path style=" stroke:none;fill-rule:nonzero;fill:rgb(13.333334%,13.333334%,12.941177%);fill-opacity:1;" d="M 130.441406 36.5 C 130.332031 37.070312 130.136719 37.621094 129.875 38.140625 C 128.363281 37.878906 127.140625 36.628906 126.96875 34.996094 C 126.945312 34.792969 126.941406 34.589844 126.953125 34.390625 C 127.496094 34.597656 128.054688 34.734375 128.625 34.78125 C 128.625 34.792969 128.625 34.804688 128.625 34.816406 C 128.726562 35.777344 129.511719 36.484375 130.441406 36.5 Z M 130.441406 36.5 "/>
<path style=" stroke:none;fill-rule:nonzero;fill:rgb(13.333334%,13.333334%,12.941177%);fill-opacity:1;" d="M 130.6875 31.042969 C 130.484375 31.589844 130.347656 32.160156 130.300781 32.742188 C 130.300781 32.742188 130.28125 32.742188 130.269531 32.742188 C 129.328125 32.84375 128.628906 33.644531 128.617188 34.589844 C 128.054688 34.476562 127.507812 34.28125 126.996094 34.015625 C 127.253906 32.476562 128.484375 31.230469 130.089844 31.054688 C 130.292969 31.035156 130.492188 31.03125 130.6875 31.042969 Z M 130.6875 31.042969 "/>
<path style=" stroke:none;fill-rule:nonzero;fill:rgb(13.333334%,13.333334%,12.941177%);fill-opacity:1;" d="M 133.933594 35.214844 C 133.675781 36.757812 132.445312 38 130.839844 38.175781 C 130.640625 38.199219 130.441406 38.203125 130.246094 38.1875 C 130.449219 37.640625 130.585938 37.070312 130.628906 36.488281 C 130.644531 36.488281 130.652344 36.488281 130.664062 36.488281 C 131.609375 36.386719 132.308594 35.582031 132.316406 34.640625 C 132.878906 34.753906 133.421875 34.949219 133.933594 35.214844 Z M 133.933594 35.214844 "/>
<path style=" stroke:none;fill-rule:nonzero;fill:rgb(13.333334%,13.333334%,12.941177%);fill-opacity:1;" d="M 133.972656 34.839844 C 133.433594 34.632812 132.875 34.496094 132.304688 34.449219 C 132.304688 34.433594 132.304688 34.425781 132.304688 34.414062 C 132.203125 33.457031 131.410156 32.746094 130.488281 32.730469 C 130.597656 32.160156 130.789062 31.605469 131.050781 31.085938 C 132.566406 31.34375 133.789062 32.597656 133.960938 34.230469 C 133.980469 34.433594 133.988281 34.636719 133.972656 34.835938 Z M 133.972656 34.839844 "/>
<path style=" stroke:none;fill-rule:nonzero;fill:rgb(66.274512%,17.647059%,19.607843%);fill-opacity:1;" d="M 32.886719 38.671875 C 32.800781 38.816406 32.710938 38.949219 32.617188 39.082031 C 32.476562 39.265625 32.335938 39.449219 32.179688 39.621094 C 32.15625 39.617188 32.136719 39.609375 32.113281 39.601562 C 32.035156 39.574219 31.941406 39.601562 31.890625 39.667969 L 31.289062 40.445312 C 31.132812 40.648438 30.855469 40.695312 30.640625 40.5625 L 29.941406 40.128906 C 29.726562 39.996094 29.640625 39.71875 29.746094 39.488281 L 30.144531 38.585938 C 30.183594 38.507812 30.164062 38.417969 30.105469 38.351562 C 29.851562 38.097656 29.625 37.820312 29.425781 37.519531 C 29.378906 37.445312 29.289062 37.414062 29.207031 37.429688 L 28.261719 37.664062 C 28.015625 37.726562 27.769531 37.59375 27.679688 37.351562 L 27.390625 36.570312 C 27.300781 36.332031 27.402344 36.066406 27.625 35.945312 L 28.488281 35.484375 C 28.566406 35.449219 28.609375 35.363281 28.59375 35.277344 C 28.589844 35.21875 28.582031 35.167969 28.578125 35.113281 C 28.570312 35.027344 28.511719 34.953125 28.425781 34.933594 L 27.484375 34.6875 C 27.242188 34.625 27.085938 34.386719 27.113281 34.136719 L 27.21875 33.308594 C 27.25 33.054688 27.464844 32.867188 27.714844 32.867188 L 27.957031 32.867188 C 28.25 33.289062 28.703125 33.570312 29.125 33.84375 C 29.320312 33.960938 29.515625 34.066406 29.71875 34.160156 C 29.703125 34.320312 29.691406 34.476562 29.691406 34.640625 C 29.691406 36.621094 31.0625 38.273438 32.890625 38.675781 Z M 32.886719 38.671875 "/>
<path style=" stroke:none;fill-rule:nonzero;fill:rgb(66.274512%,17.647059%,19.607843%);fill-opacity:1;" d="M 38.691406 39.09375 L 38.105469 39.679688 C 37.929688 39.863281 37.644531 39.878906 37.449219 39.71875 L 36.683594 39.105469 C 36.617188 39.050781 36.523438 39.050781 36.453125 39.09375 C 36.148438 39.28125 35.828125 39.441406 35.492188 39.5625 C 35.410156 39.589844 35.355469 39.667969 35.351562 39.753906 L 35.351562 40.746094 C 35.347656 41 35.160156 41.214844 34.90625 41.242188 L 34.09375 41.335938 C 33.84375 41.367188 33.613281 41.203125 33.550781 40.957031 L 33.324219 39.996094 C 33.304688 39.910156 33.230469 39.847656 33.148438 39.835938 C 33.007812 39.820312 32.875 39.796875 32.738281 39.773438 C 32.832031 39.628906 32.921875 39.488281 33.007812 39.351562 C 33.121094 39.15625 33.226562 38.957031 33.320312 38.75 C 33.460938 38.769531 33.601562 38.773438 33.746094 38.773438 C 35.703125 38.773438 37.332031 37.363281 37.71875 35.496094 C 37.871094 35.589844 38.015625 35.691406 38.15625 35.796875 C 38.363281 35.953125 38.566406 36.117188 38.746094 36.304688 C 38.679688 36.324219 38.625 36.371094 38.597656 36.4375 C 38.472656 36.78125 38.316406 37.101562 38.125 37.40625 C 38.082031 37.480469 38.085938 37.574219 38.136719 37.644531 L 38.730469 38.425781 C 38.882812 38.625 38.863281 38.914062 38.6875 39.09375 Z M 38.691406 39.09375 "/>
<path style=" stroke:none;fill-rule:nonzero;fill:rgb(66.274512%,17.647059%,19.607843%);fill-opacity:1;" d="M 40.371094 35.035156 L 40.265625 35.863281 C 40.234375 36.117188 40.019531 36.304688 39.769531 36.304688 L 39.542969 36.304688 C 39.253906 35.914062 38.820312 35.652344 38.425781 35.390625 C 38.21875 35.265625 38.007812 35.15625 37.789062 35.054688 C 37.804688 34.914062 37.808594 34.777344 37.808594 34.636719 C 37.808594 32.664062 36.449219 31.011719 34.628906 30.605469 C 34.71875 30.449219 34.824219 30.296875 34.929688 30.148438 C 35.078125 29.953125 35.234375 29.75 35.40625 29.574219 C 35.480469 29.582031 35.546875 29.558594 35.59375 29.503906 L 35.796875 29.242188 L 35.894531 29.109375 L 36.191406 28.726562 C 36.347656 28.523438 36.625 28.476562 36.839844 28.609375 L 37.539062 29.042969 C 37.753906 29.175781 37.839844 29.449219 37.734375 29.683594 L 37.332031 30.582031 C 37.296875 30.664062 37.316406 30.753906 37.375 30.820312 C 37.628906 31.070312 37.855469 31.351562 38.054688 31.65625 C 38.101562 31.730469 38.191406 31.761719 38.273438 31.742188 L 39.21875 31.507812 C 39.460938 31.449219 39.710938 31.582031 39.800781 31.824219 L 40.089844 32.605469 C 40.179688 32.84375 40.078125 33.109375 39.855469 33.230469 L 38.992188 33.6875 C 38.914062 33.726562 38.871094 33.8125 38.886719 33.898438 C 38.890625 33.953125 38.898438 34.007812 38.902344 34.0625 C 38.910156 34.148438 38.96875 34.222656 39.054688 34.242188 L 40 34.488281 C 40.242188 34.550781 40.398438 34.785156 40.371094 35.039062 Z M 40.371094 35.035156 "/>
<path style=" stroke:none;fill-rule:nonzero;fill:rgb(66.274512%,17.647059%,19.607843%);fill-opacity:1;" d="M 34.835938 29.417969 C 34.730469 29.570312 34.632812 29.730469 34.535156 29.882812 C 34.414062 30.09375 34.304688 30.308594 34.203125 30.53125 C 34.054688 30.515625 33.902344 30.507812 33.75 30.507812 C 31.820312 30.507812 30.199219 31.878906 29.792969 33.71875 C 29.652344 33.628906 29.519531 33.535156 29.382812 33.4375 C 29.15625 33.261719 28.921875 33.070312 28.730469 32.859375 C 28.796875 32.847656 28.851562 32.796875 28.878906 32.730469 C 29.003906 32.390625 29.160156 32.066406 29.347656 31.761719 C 29.394531 31.691406 29.390625 31.59375 29.339844 31.527344 L 28.746094 30.746094 C 28.59375 30.542969 28.613281 30.257812 28.789062 30.078125 L 29.375 29.488281 C 29.550781 29.308594 29.835938 29.292969 30.03125 29.449219 L 30.796875 30.0625 C 30.863281 30.121094 30.957031 30.125 31.027344 30.078125 C 31.332031 29.886719 31.652344 29.730469 31.988281 29.609375 C 32.070312 29.578125 32.125 29.503906 32.128906 29.417969 L 32.128906 28.425781 C 32.132812 28.171875 32.320312 27.957031 32.574219 27.929688 L 33.386719 27.832031 C 33.636719 27.804688 33.867188 27.972656 33.925781 28.214844 L 34.15625 29.175781 C 34.175781 29.261719 34.25 29.320312 34.332031 29.335938 C 34.503906 29.351562 34.675781 29.382812 34.839844 29.417969 Z M 34.835938 29.417969 "/>
<path style=" stroke:none;fill-rule:nonzero;fill:rgb(13.333334%,13.333334%,12.941177%);fill-opacity:1;" d="M 33.75 36.5 C 33.640625 37.070312 33.445312 37.621094 33.1875 38.140625 C 31.671875 37.878906 30.449219 36.628906 30.277344 34.996094 C 30.253906 34.792969 30.25 34.589844 30.265625 34.390625 C 30.804688 34.597656 31.363281 34.734375 31.933594 34.78125 C 31.933594 34.792969 31.933594 34.804688 31.933594 34.816406 C 32.035156 35.777344 32.824219 36.484375 33.75 36.5 Z M 33.75 36.5 "/>
<path style=" stroke:none;fill-rule:nonzero;fill:rgb(13.333334%,13.333334%,12.941177%);fill-opacity:1;" d="M 33.992188 31.042969 C 33.789062 31.589844 33.652344 32.160156 33.605469 32.742188 C 33.605469 32.742188 33.585938 32.742188 33.574219 32.742188 C 32.632812 32.84375 31.933594 33.644531 31.921875 34.589844 C 31.359375 34.476562 30.8125 34.28125 30.300781 34.015625 C 30.558594 32.476562 31.789062 31.230469 33.398438 31.054688 C 33.597656 31.035156 33.796875 31.03125 33.992188 31.042969 Z M 33.992188 31.042969 "/>
<path style=" stroke:none;fill-rule:nonzero;fill:rgb(13.333334%,13.333334%,12.941177%);fill-opacity:1;" d="M 37.242188 35.214844 C 36.984375 36.757812 35.753906 38 34.152344 38.175781 C 33.949219 38.199219 33.75 38.203125 33.558594 38.1875 C 33.757812 37.640625 33.894531 37.070312 33.941406 36.488281 C 33.953125 36.488281 33.960938 36.488281 33.972656 36.488281 C 34.917969 36.386719 35.617188 35.582031 35.625 34.640625 C 36.1875 34.753906 36.730469 34.949219 37.242188 35.214844 Z M 37.242188 35.214844 "/>
<path style=" stroke:none;fill-rule:nonzero;fill:rgb(13.333334%,13.333334%,12.941177%);fill-opacity:1;" d="M 37.285156 34.839844 C 36.742188 34.632812 36.183594 34.496094 35.613281 34.449219 C 35.613281 34.433594 35.613281 34.425781 35.613281 34.414062 C 35.511719 33.457031 34.71875 32.746094 33.796875 32.730469 C 33.90625 32.160156 34.101562 31.605469 34.363281 31.085938 C 35.875 31.34375 37.097656 32.597656 37.269531 34.230469 C 37.292969 34.433594 37.296875 34.636719 37.285156 34.835938 Z M 37.285156 34.839844 "/>
<path style=" stroke:none;fill-rule:nonzero;fill:rgb(13.333334%,13.333334%,12.941177%);fill-opacity:1;" d="M 24.800781 40.816406 L 22.761719 40.816406 L 22.761719 30.992188 L 19.867188 30.992188 L 19.867188 28.898438 L 27.519531 28.898438 L 27.519531 30.992188 L 24.800781 30.992188 Z M 24.800781 40.816406 "/>
<path style=" stroke:none;fill-rule:nonzero;fill:rgb(13.333334%,13.333334%,12.941177%);fill-opacity:1;" d="M 61.695312 28.902344 C 65.234375 28.902344 67 30.878906 67 34.835938 L 67 34.886719 C 66.964844 38.839844 65.191406 40.816406 61.679688 40.816406 L 56.851562 40.816406 L 56.851562 28.898438 L 61.695312 28.898438 Z M 58.910156 38.746094 L 62.191406 38.746094 C 63.117188 38.746094 63.808594 38.433594 64.261719 37.800781 C 64.71875 37.171875 64.941406 36.179688 64.941406 34.816406 C 64.941406 32.269531 64.03125 30.996094 62.207031 30.996094 L 58.910156 30.996094 Z M 58.910156 38.746094 "/>
<path style=" stroke:none;fill-rule:nonzero;fill:rgb(13.333334%,13.333334%,12.941177%);fill-opacity:1;" d="M 76.433594 32.5 C 76.628906 32.410156 76.789062 32.28125 76.917969 32.117188 C 77.050781 31.957031 77.113281 31.796875 77.113281 31.632812 C 77.113281 31.449219 77.050781 31.296875 76.925781 31.175781 C 76.800781 31.054688 76.609375 30.996094 76.351562 30.996094 L 68.53125 30.996094 L 68.53125 28.902344 L 76.28125 28.902344 C 77.234375 28.902344 77.949219 29.15625 78.414062 29.660156 C 78.886719 30.167969 79.121094 30.828125 79.121094 31.632812 C 79.121094 31.785156 79.105469 31.972656 79.085938 32.195312 C 79.066406 32.417969 78.992188 32.660156 78.875 32.914062 C 78.757812 33.164062 78.566406 33.417969 78.3125 33.671875 C 78.0625 33.925781 77.703125 34.15625 77.253906 34.363281 L 70.808594 37.214844 C 70.582031 37.316406 70.417969 37.445312 70.308594 37.597656 C 70.199219 37.746094 70.148438 37.902344 70.148438 38.0625 C 70.148438 38.28125 70.21875 38.449219 70.367188 38.566406 C 70.515625 38.683594 70.691406 38.738281 70.894531 38.738281 L 78.851562 38.738281 L 78.851562 40.8125 L 70.945312 40.8125 C 69.992188 40.8125 69.28125 40.5625 68.804688 40.054688 C 68.328125 39.546875 68.089844 38.898438 68.089844 38.097656 C 68.089844 37.894531 68.113281 37.664062 68.160156 37.417969 C 68.207031 37.167969 68.292969 36.917969 68.433594 36.675781 C 68.566406 36.425781 68.761719 36.183594 69.011719 35.957031 C 69.257812 35.726562 69.589844 35.523438 69.996094 35.351562 L 76.4375 32.5 Z M 76.433594 32.5 "/>
<path style=" stroke:none;fill-rule:nonzero;fill:rgb(13.333334%,13.333334%,12.941177%);fill-opacity:1;" d="M 87.039062 30.714844 C 87.242188 30.128906 87.582031 29.671875 88.050781 29.347656 C 88.523438 29.027344 89.0625 28.863281 89.675781 28.863281 C 90.09375 28.863281 90.488281 28.933594 90.855469 29.070312 C 91.222656 29.207031 91.542969 29.402344 91.816406 29.65625 C 92.089844 29.910156 92.304688 30.21875 92.460938 30.582031 C 92.621094 30.949219 92.699219 31.347656 92.699219 31.785156 L 92.699219 37.785156 C 92.699219 38.476562 92.988281 38.824219 93.566406 38.824219 C 93.761719 38.824219 93.90625 38.761719 94.007812 38.644531 C 94.109375 38.523438 94.203125 38.339844 94.277344 38.097656 L 96.628906 30.710938 C 96.820312 30.125 97.160156 29.667969 97.640625 29.34375 C 98.121094 29.023438 98.664062 28.859375 99.261719 28.859375 C 99.679688 28.859375 100.074219 28.925781 100.441406 29.066406 C 100.808594 29.203125 101.128906 29.398438 101.402344 29.652344 C 101.671875 29.90625 101.894531 30.214844 102.046875 30.578125 C 102.207031 30.945312 102.285156 31.34375 102.285156 31.78125 L 102.285156 40.808594 L 100.109375 40.808594 L 100.109375 31.984375 C 100.109375 31.296875 99.8125 30.949219 99.222656 30.949219 C 99.03125 30.949219 98.886719 31.011719 98.789062 31.144531 C 98.691406 31.277344 98.605469 31.46875 98.527344 31.707031 L 96.148438 39.078125 C 95.988281 39.664062 95.660156 40.125 95.167969 40.453125 C 94.675781 40.785156 94.128906 40.945312 93.527344 40.945312 C 93.097656 40.945312 92.703125 40.878906 92.339844 40.742188 C 91.976562 40.605469 91.660156 40.40625 91.386719 40.152344 C 91.113281 39.898438 90.902344 39.589844 90.75 39.226562 C 90.597656 38.863281 90.523438 38.464844 90.523438 38.027344 L 90.523438 31.988281 C 90.523438 31.300781 90.226562 30.953125 89.636719 30.953125 C 89.445312 30.953125 89.304688 31.015625 89.210938 31.148438 C 89.121094 31.28125 89.03125 31.472656 88.941406 31.710938 L 85.8125 40.808594 L 83.503906 40.808594 L 87.039062 30.707031 Z M 87.039062 30.714844 "/>
<path style=" stroke:none;fill-rule:nonzero;fill:rgb(13.333334%,13.333334%,12.941177%);fill-opacity:1;" d="M 110.378906 28.902344 C 113.902344 28.902344 115.683594 30.875 115.714844 34.816406 L 115.714844 34.867188 C 115.714844 38.835938 113.941406 40.816406 110.394531 40.816406 L 109.476562 40.816406 C 105.925781 40.816406 104.15625 38.835938 104.15625 34.867188 L 104.15625 34.816406 C 104.167969 30.875 105.949219 28.902344 109.492188 28.902344 Z M 108.972656 30.996094 C 108.042969 30.996094 107.347656 31.308594 106.886719 31.929688 C 106.429688 32.550781 106.199219 33.539062 106.199219 34.890625 C 106.199219 37.464844 107.121094 38.746094 108.953125 38.746094 L 110.925781 38.746094 C 112.765625 38.746094 113.679688 37.460938 113.679688 34.890625 C 113.679688 33.539062 113.449219 32.554688 112.984375 31.929688 C 112.519531 31.308594 111.828125 30.996094 110.910156 30.996094 Z M 108.972656 30.996094 "/>
<path style=" stroke:none;fill-rule:nonzero;fill:rgb(13.333334%,13.333334%,12.941177%);fill-opacity:1;" d="M 121.207031 40.816406 L 119.167969 40.816406 L 119.167969 30.992188 L 116.277344 30.992188 L 116.277344 28.898438 L 123.929688 28.898438 L 123.929688 30.992188 L 121.207031 30.992188 Z M 121.207031 40.816406 "/>
<path style=" stroke:none;fill-rule:nonzero;fill:rgb(13.333334%,13.333334%,12.941177%);fill-opacity:1;" d="M 159.640625 37.34375 C 159.640625 38.496094 159.3125 39.363281 158.660156 39.949219 C 158.007812 40.53125 157.101562 40.824219 155.933594 40.824219 L 149.914062 40.824219 L 149.914062 38.746094 L 156.320312 38.746094 C 156.683594 38.746094 156.984375 38.605469 157.222656 38.320312 C 157.460938 38.039062 157.582031 37.695312 157.582031 37.292969 C 157.582031 36.910156 157.464844 36.582031 157.222656 36.296875 C 156.988281 36.015625 156.683594 35.871094 156.320312 35.871094 L 153.023438 35.871094 C 152.34375 35.871094 151.769531 35.769531 151.300781 35.558594 C 150.828125 35.351562 150.449219 35.078125 150.160156 34.742188 C 149.871094 34.410156 149.664062 34.035156 149.535156 33.628906 C 149.402344 33.222656 149.339844 32.8125 149.339844 32.410156 C 149.339844 31.925781 149.40625 31.476562 149.542969 31.050781 C 149.675781 30.628906 149.894531 30.257812 150.195312 29.933594 C 150.496094 29.613281 150.878906 29.359375 151.34375 29.175781 C 151.804688 28.992188 152.367188 28.898438 153.023438 28.898438 L 158.871094 28.898438 L 158.871094 30.992188 L 152.699219 30.992188 C 152.519531 30.992188 152.351562 31.03125 152.191406 31.101562 C 152.03125 31.179688 151.890625 31.277344 151.773438 31.40625 C 151.65625 31.535156 151.558594 31.679688 151.480469 31.847656 C 151.40625 32.015625 151.371094 32.191406 151.371094 32.375 C 151.371094 32.765625 151.503906 33.101562 151.765625 33.371094 C 152.023438 33.640625 152.339844 33.777344 152.714844 33.777344 L 155.960938 33.777344 C 157.097656 33.777344 157.992188 34.070312 158.648438 34.652344 C 159.304688 35.238281 159.632812 36.105469 159.632812 37.257812 L 159.632812 37.34375 Z M 159.640625 37.34375 "/>
<path style=" stroke:none;fill-rule:nonzero;fill:rgb(13.333334%,13.333334%,12.941177%);fill-opacity:1;" d="M 51.273438 32.410156 C 51.273438 32.828125 51.207031 33.242188 51.082031 33.65625 C 50.949219 34.070312 50.738281 34.441406 50.445312 34.769531 C 50.148438 35.101562 49.765625 35.367188 49.296875 35.5625 C 48.84375 35.757812 48.300781 35.859375 47.664062 35.863281 C 47.636719 35.863281 47.617188 35.863281 47.589844 35.863281 L 44.132812 35.863281 C 43.949219 35.863281 43.796875 36.019531 43.796875 36.207031 L 43.796875 40.8125 L 41.738281 40.8125 L 41.738281 34.792969 C 41.738281 34.230469 42.191406 33.769531 42.742188 33.769531 L 47.894531 33.769531 C 48.269531 33.769531 48.585938 33.636719 48.847656 33.363281 C 49.109375 33.09375 49.238281 32.761719 49.238281 32.367188 C 49.238281 32.183594 49.199219 32.007812 49.128906 31.839844 C 49.054688 31.671875 48.957031 31.527344 48.839844 31.398438 C 48.71875 31.269531 48.582031 31.171875 48.421875 31.09375 C 48.261719 31.019531 48.09375 30.980469 47.910156 30.980469 L 41.738281 30.980469 L 41.738281 28.890625 L 47.585938 28.890625 C 48.230469 28.890625 48.789062 28.980469 49.25 29.164062 C 49.714844 29.347656 50.097656 29.601562 50.398438 29.921875 C 50.699219 30.246094 50.917969 30.617188 51.058594 31.039062 C 51.203125 31.457031 51.269531 31.910156 51.269531 32.394531 Z M 51.273438 32.410156 "/>
<path style=" stroke:none;fill-rule:nonzero;fill:rgb(13.333334%,13.333334%,12.941177%);fill-opacity:1;" d="M 147.894531 40.632812 L 145.195312 35.734375 C 145.367188 35.691406 145.539062 35.636719 145.6875 35.570312 C 146.160156 35.371094 146.539062 35.105469 146.835938 34.777344 C 147.132812 34.449219 147.339844 34.078125 147.472656 33.664062 C 147.601562 33.246094 147.667969 32.832031 147.667969 32.417969 C 147.667969 31.933594 147.59375 31.484375 147.457031 31.0625 C 147.3125 30.644531 147.09375 30.269531 146.792969 29.949219 C 146.496094 29.625 146.109375 29.375 145.648438 29.1875 C 145.183594 29.003906 144.625 28.914062 143.980469 28.914062 L 138.132812 28.914062 L 138.132812 31.007812 L 144.304688 31.007812 C 144.488281 31.007812 144.65625 31.046875 144.816406 31.121094 C 144.976562 31.195312 145.117188 31.296875 145.234375 31.425781 C 145.351562 31.550781 145.449219 31.699219 145.523438 31.867188 C 145.597656 32.03125 145.632812 32.207031 145.632812 32.394531 C 145.632812 32.789062 145.503906 33.117188 145.242188 33.386719 C 144.980469 33.660156 144.664062 33.796875 144.289062 33.796875 L 139.136719 33.796875 C 138.585938 33.796875 138.132812 34.253906 138.132812 34.816406 L 138.132812 40.839844 L 140.191406 40.839844 L 140.191406 36.234375 C 140.191406 36.042969 140.34375 35.890625 140.527344 35.890625 L 143.070312 35.890625 L 145.695312 40.652344 L 147.898438 40.652344 Z M 147.894531 40.632812 "/>
<path style=" stroke:none;fill-rule:nonzero;fill:rgb(13.333334%,13.333334%,12.941177%);fill-opacity:1;" d="M 134.273438 22.5625 C 132.730469 22.253906 131.175781 21.964844 129.613281 21.714844 C 123.3125 20.710938 117.011719 20.28125 110.648438 20.492188 C 110.390625 20.503906 109.96875 20.507812 109.710938 20.488281 C 109.402344 20.46875 109.09375 20.433594 108.785156 20.386719 C 107.707031 20.210938 106.652344 19.851562 105.613281 19.351562 C 104.578125 18.859375 103.554688 18.246094 102.507812 17.621094 C 101.203125 16.839844 99.953125 15.984375 98.578125 15.320312 C 97.203125 14.65625 95.738281 14.019531 94.285156 13.464844 C 88.308594 11.171875 81.953125 9.90625 75.574219 9.695312 C 73.382812 9.625 71.191406 9.675781 69.003906 9.855469 C 64.519531 10.226562 60.101562 11.175781 55.746094 12.285156 C 53.359375 12.886719 50.996094 13.605469 48.640625 14.320312 C 47.46875 14.695312 46.289062 15.058594 45.125 15.457031 C 44.542969 15.65625 43.953125 15.839844 43.371094 16.042969 L 41.625 16.640625 L 40.753906 16.941406 L 39.882812 17.25 L 38.144531 17.867188 L 34.667969 19.128906 C 34.667969 19.128906 33.613281 19.496094 31.527344 19.671875 C 29.445312 19.851562 24.9375 19.203125 11.355469 16.585938 C 14.917969 21.609375 22.535156 23.582031 22.535156 23.582031 L 16.261719 23.691406 C 16.574219 25.300781 18.449219 28.246094 18.449219 28.246094 C 36.714844 21.824219 52.089844 26.34375 52.089844 26.34375 C 48.738281 22.324219 34.667969 22.078125 34.667969 22.078125 L 35.59375 21.496094 L 37.273438 20.769531 C 37.835938 20.523438 38.394531 20.28125 38.960938 20.046875 L 40.652344 19.347656 L 41.5 19 L 42.351562 18.667969 C 48.304688 16.28125 54.429688 14.199219 60.667969 12.726562 C 64.652344 11.78125 68.71875 11.152344 72.816406 11.136719 C 78.988281 11.117188 85.097656 12.511719 90.859375 14.703125 C 94.5 16.085938 97.914062 17.808594 101.277344 19.78125 C 102.34375 20.410156 103.453125 21.027344 104.640625 21.5625 C 105.828125 22.09375 107.125 22.519531 108.46875 22.6875 C 109.140625 22.765625 109.816406 22.796875 110.488281 22.761719 C 110.820312 22.746094 111.15625 22.714844 111.484375 22.671875 L 112.382812 22.558594 C 113.558594 22.410156 114.753906 22.324219 115.957031 22.277344 C 117.15625 22.230469 118.367188 22.21875 119.578125 22.230469 C 122 22.261719 124.429688 22.429688 126.847656 22.683594 C 129.269531 22.933594 131.683594 23.261719 134.09375 23.648438 C 135.296875 23.835938 136.5 24.050781 137.695312 24.277344 C 138.894531 24.5 140.089844 24.75 141.285156 25 C 142.476562 25.253906 143.667969 25.527344 144.855469 25.8125 C 146.042969 26.097656 147.222656 26.402344 148.402344 26.71875 L 147.785156 26.316406 C 146.941406 25.761719 146.007812 25.359375 145.03125 25.121094 C 141.121094 24.179688 138.574219 23.449219 134.269531 22.582031 Z M 134.273438 22.5625 "/>
<path style=" stroke:none;fill-rule:nonzero;fill:rgb(13.333334%,13.333334%,12.941177%);fill-opacity:1;" d="M 95.8125 23.851562 L 67.164062 24.980469 L 99.648438 24.980469 L 92.140625 18.4375 Z M 95.8125 23.851562 "/>
</g>
</svg>
