<?xml version="1.0" encoding="UTF-8"?>
<svg id="Layer_1" data-name="Layer 1" xmlns="http://www.w3.org/2000/svg" viewBox="0 0 405.63 118.6">
  <defs>
    <style>
      .cls-1 {
        fill: #fff;
      }

      .cls-2 {
        fill: #222221;
      }
    </style>
  </defs>
  <g>
    <path class="cls-1" d="M306.68,89.81c-.2.32-.41.64-.64.94-.33.43-.66.86-1.03,1.25-.05-.01-.1-.03-.15-.05-.19-.06-.41,0-.53.16l-1.42,1.8c-.36.46-1.02.58-1.53.27l-1.65-1.01c-.51-.31-.7-.94-.46-1.48l.94-2.09c.09-.19.04-.4-.1-.54-.6-.59-1.13-1.24-1.6-1.93-.11-.17-.32-.25-.51-.2l-2.23.54c-.57.14-1.16-.17-1.37-.73l-.68-1.81c-.21-.55.03-1.18.55-1.45l2.03-1.06c.18-.09.28-.29.25-.49-.01-.12-.03-.25-.04-.37-.02-.2-.16-.37-.36-.42l-2.22-.57c-.57-.15-.95-.7-.87-1.28l.25-1.92c.07-.59.58-1.02,1.17-1.02h.58c.69.99,1.76,1.63,2.75,2.27.45.27.92.51,1.4.74-.04.36-.07.73-.07,1.11,0,4.59,3.23,8.42,7.54,9.35Z"/>
    <path class="cls-1" d="M320.35,90.78l-1.38,1.36c-.42.42-1.09.45-1.55.09l-1.8-1.42c-.16-.12-.38-.13-.55-.03-.71.44-1.47.8-2.26,1.08-.19.07-.32.25-.32.45v2.29c-.01.59-.46,1.09-1.05,1.16l-1.92.22c-.59.07-1.13-.31-1.27-.89l-.54-2.23c-.05-.2-.22-.34-.42-.36-.33-.04-.65-.09-.97-.15.22-.32.43-.65.63-.97.27-.45.51-.92.73-1.39.33.04.67.05,1.01.05,4.61,0,8.45-3.26,9.36-7.59.36.22.7.45,1.04.7.48.37.97.75,1.39,1.18-.16.04-.29.15-.35.31-.3.79-.67,1.54-1.11,2.25-.11.17-.1.39.02.55l1.4,1.81c.36.47.32,1.13-.1,1.55Z"/>
    <path class="cls-1" d="M324.31,81.38l-.25,1.92c-.07.59-.58,1.02-1.17,1.02h-.54c-.69-.9-1.7-1.51-2.64-2.11-.48-.28-.98-.55-1.5-.78.04-.32.05-.64.05-.96,0-4.57-3.21-8.39-7.5-9.34.22-.36.46-.71.71-1.05.35-.46.72-.92,1.13-1.34h0c.17.02.33-.04.44-.17l.48-.61.24-.31.7-.88c.37-.46,1.02-.58,1.53-.27l1.65,1.01c.51.31.7.94.46,1.48l-.94,2.08c-.09.19-.04.4.1.54.6.59,1.13,1.24,1.6,1.93.11.17.31.25.51.2l2.23-.54c.57-.14,1.16.17,1.37.72l.68,1.81c.21.55-.03,1.18-.55,1.45l-2.03,1.06c-.18.09-.28.29-.25.49.01.12.03.25.04.37.02.2.16.37.36.42l2.22.57c.57.15.95.7.87,1.28Z"/>
    <path class="cls-1" d="M311.27,68.37c-.25.36-.48.73-.71,1.08-.28.49-.55.98-.78,1.5-.35-.04-.71-.06-1.07-.06-4.55,0-8.36,3.18-9.33,7.44-.33-.2-.65-.42-.96-.65-.54-.41-1.08-.84-1.54-1.34.16-.03.29-.15.35-.3.3-.79.67-1.54,1.11-2.25.11-.17.1-.39-.02-.55l-1.4-1.81c-.36-.47-.32-1.13.1-1.55l1.38-1.36c.42-.42,1.09-.45,1.55-.09l1.8,1.42c.16.12.38.14.55.03.71-.44,1.47-.8,2.26-1.08.19-.07.32-.25.32-.45v-2.29c.01-.59.46-1.09,1.05-1.16l1.92-.22c.59-.07,1.13.31,1.27.89l.54,2.23c.05.2.22.34.42.36.41.04.8.11,1.19.19Z"/>
    <path class="cls-2" d="M308.71,84.77c-.25,1.32-.71,2.61-1.33,3.81h0c-3.57-.6-6.45-3.51-6.85-7.28-.05-.47-.06-.94-.03-1.4,1.27.48,2.59.79,3.93.91,0,.02,0,.05,0,.08.24,2.22,2.1,3.87,4.28,3.9Z"/>
    <path class="cls-2" d="M309.28,72.14c-.47,1.27-.79,2.59-.9,3.93h0s-.05,0-.08,0c-2.22.24-3.87,2.1-3.89,4.28-1.32-.25-2.61-.71-3.81-1.33.6-3.57,3.51-6.45,7.29-6.86.47-.05.94-.06,1.4-.03Z"/>
    <path class="cls-2" d="M316.94,81.79c-.6,3.57-3.51,6.45-7.28,6.86-.47.05-.94.06-1.4.03.48-1.27.79-2.59.91-3.93.03,0,.05,0,.08,0,2.22-.24,3.87-2.11,3.9-4.28,1.32.26,2.61.72,3.81,1.33Z"/>
    <path class="cls-2" d="M317.04,80.93c-1.27-.48-2.59-.79-3.93-.91,0-.03,0-.05,0-.08-.24-2.22-2.1-3.87-4.28-3.89.25-1.32.72-2.61,1.33-3.81,3.57.6,6.45,3.51,6.86,7.28.05.47.06.94.03,1.4Z"/>
  </g>
  <g>
    <path class="cls-1" d="M78.84,89.81c-.2.32-.41.64-.64.94-.33.43-.66.86-1.03,1.25-.05-.01-.1-.03-.15-.05-.19-.06-.41,0-.53.16l-1.42,1.8c-.36.46-1.02.58-1.53.27l-1.65-1.01c-.51-.31-.7-.94-.46-1.48l.94-2.09c.09-.19.04-.4-.1-.54-.6-.59-1.13-1.24-1.6-1.93-.11-.17-.32-.25-.51-.2l-2.23.54c-.57.14-1.16-.17-1.37-.73l-.68-1.81c-.21-.55.03-1.18.55-1.45l2.03-1.06c.18-.09.28-.29.25-.49-.01-.12-.03-.25-.04-.37-.02-.2-.16-.37-.36-.42l-2.22-.57c-.57-.15-.95-.7-.87-1.28l.25-1.92c.07-.59.58-1.02,1.17-1.02h.58c.69.99,1.76,1.63,2.75,2.27.45.27.92.51,1.4.74-.04.36-.07.73-.07,1.11,0,4.59,3.23,8.42,7.54,9.35Z"/>
    <path class="cls-1" d="M92.52,90.78l-1.38,1.36c-.42.42-1.09.45-1.55.09l-1.8-1.42c-.16-.12-.38-.13-.55-.03-.71.44-1.47.8-2.26,1.08-.19.07-.32.25-.32.45v2.29c-.01.59-.46,1.09-1.05,1.16l-1.92.22c-.59.07-1.13-.31-1.27-.89l-.54-2.23c-.05-.2-.22-.34-.42-.36-.33-.04-.65-.09-.97-.15.22-.32.43-.65.63-.97.27-.45.51-.92.73-1.39.33.04.67.05,1.01.05,4.61,0,8.45-3.26,9.36-7.59.36.22.7.45,1.04.7.48.37.97.75,1.39,1.18-.16.04-.29.15-.35.31-.3.79-.67,1.54-1.11,2.25-.11.17-.1.39.02.55l1.4,1.81c.36.47.32,1.13-.1,1.55Z"/>
    <path class="cls-1" d="M96.47,81.38l-.25,1.92c-.07.59-.58,1.02-1.17,1.02h-.54c-.69-.9-1.7-1.51-2.64-2.11-.48-.28-.98-.55-1.5-.78.04-.32.05-.64.05-.96,0-4.57-3.21-8.39-7.5-9.34.22-.36.46-.71.71-1.05.35-.46.72-.92,1.13-1.34h0c.17.02.33-.04.44-.17l.48-.61.24-.31.7-.88c.37-.46,1.02-.58,1.53-.27l1.65,1.01c.51.31.7.94.46,1.48l-.94,2.08c-.09.19-.04.4.1.54.6.59,1.13,1.24,1.6,1.93.11.17.31.25.51.2l2.23-.54c.57-.14,1.16.17,1.37.72l.68,1.81c.21.55-.03,1.18-.55,1.45l-2.03,1.06c-.18.09-.28.29-.25.49.01.12.03.25.04.37.02.2.16.37.36.42l2.22.57c.57.15.95.7.87,1.28Z"/>
    <path class="cls-1" d="M83.43,68.37c-.25.36-.48.73-.71,1.08-.28.49-.55.98-.78,1.5-.35-.04-.71-.06-1.07-.06-4.55,0-8.36,3.18-9.33,7.44-.33-.2-.65-.42-.96-.65-.54-.41-1.08-.84-1.54-1.34.16-.03.29-.15.35-.3.3-.79.67-1.54,1.11-2.25.11-.17.1-.39-.02-.55l-1.4-1.81c-.36-.47-.32-1.13.1-1.55l1.38-1.36c.42-.42,1.09-.45,1.55-.09l1.8,1.42c.16.12.38.14.55.03.71-.44,1.47-.8,2.26-1.08.19-.07.32-.25.32-.45v-2.29c.01-.59.46-1.09,1.05-1.16l1.92-.22c.59-.07,1.13.31,1.27.89l.54,2.23c.05.2.22.34.42.36.41.04.8.11,1.19.19Z"/>
    <path class="cls-2" d="M80.87,84.77c-.25,1.32-.71,2.61-1.33,3.81h0c-3.57-.6-6.45-3.51-6.85-7.28-.05-.47-.06-.94-.03-1.4,1.27.48,2.59.79,3.93.91,0,.02,0,.05,0,.08.24,2.22,2.1,3.87,4.28,3.9Z"/>
    <path class="cls-2" d="M81.44,72.14c-.47,1.27-.79,2.59-.9,3.93h0s-.05,0-.08,0c-2.22.24-3.87,2.1-3.89,4.28-1.32-.25-2.61-.71-3.81-1.33.6-3.57,3.51-6.45,7.29-6.86.47-.05.94-.06,1.4-.03Z"/>
    <path class="cls-2" d="M89.1,81.79c-.6,3.57-3.51,6.45-7.28,6.86-.47.05-.94.06-1.4.03.48-1.27.79-2.59.91-3.93.03,0,.05,0,.08,0,2.22-.24,3.87-2.11,3.9-4.28,1.32.26,2.61.72,3.81,1.33Z"/>
    <path class="cls-2" d="M89.2,80.93c-1.27-.48-2.59-.79-3.93-.91,0-.03,0-.05,0-.08-.24-2.22-2.1-3.87-4.28-3.89.25-1.32.72-2.61,1.33-3.81,3.57.6,6.45,3.51,6.86,7.28.05.47.06.94.03,1.4Z"/>
  </g>
  <g>
    <path class="cls-1" d="M59.78,94.78h-4.81v-22.75h-6.81v-4.85h18.03v4.85h-6.41v22.75Z"/>
    <path class="cls-1" d="M146.73,67.18c8.33,0,12.5,4.58,12.5,13.74v.12c-.08,9.16-4.26,13.74-12.54,13.74h-11.38v-27.6h11.42ZM140.16,89.97h7.73c2.19,0,3.82-.73,4.89-2.18,1.07-1.46,1.6-3.76,1.6-6.91,0-5.9-2.15-8.85-6.45-8.85h-7.77v17.95Z"/>
    <path class="cls-1" d="M181.45,75.51c.45-.21.83-.51,1.14-.88.31-.37.46-.75.46-1.12,0-.43-.15-.78-.44-1.06-.29-.28-.75-.42-1.36-.42h-18.43v-4.85h18.27c2.24,0,3.92.59,5.03,1.76,1.11,1.18,1.66,2.7,1.66,4.57,0,.35-.03.78-.08,1.3-.05.52-.22,1.08-.5,1.66-.28.59-.72,1.18-1.32,1.76-.6.59-1.44,1.12-2.5,1.6l-15.18,6.61c-.53.24-.93.53-1.18.88-.25.35-.38.71-.38,1.08,0,.51.17.9.52,1.16.35.27.76.4,1.24.4h18.75v4.81h-18.63c-2.24,0-3.93-.59-5.05-1.76-1.12-1.18-1.68-2.68-1.68-4.53,0-.48.05-1.01.16-1.58.11-.57.32-1.15.64-1.72.32-.57.77-1.13,1.36-1.66.59-.53,1.36-1,2.32-1.4l15.18-6.61Z"/>
    <path class="cls-1" d="M206.44,71.38c.48-1.36,1.27-2.42,2.38-3.16,1.11-.75,2.38-1.12,3.83-1.12.99,0,1.92.16,2.78.48.87.32,1.62.77,2.26,1.36.64.59,1.15,1.3,1.52,2.14.37.84.56,1.77.56,2.78v13.9c0,1.6.68,2.4,2.04,2.4.45,0,.8-.14,1.04-.42.24-.28.45-.7.64-1.26l5.53-17.11c.45-1.36,1.25-2.42,2.38-3.16,1.13-.75,2.41-1.12,3.83-1.12.99,0,1.92.16,2.78.48.87.32,1.62.77,2.26,1.36.64.59,1.15,1.3,1.52,2.14.37.84.56,1.77.56,2.78v20.91h-5.13v-20.43c0-1.6-.69-2.4-2.08-2.4-.45,0-.79.15-1.02.46-.23.31-.43.74-.62,1.3l-5.61,17.07c-.37,1.36-1.14,2.42-2.3,3.18s-2.45,1.14-3.87,1.14c-1.02,0-1.95-.16-2.8-.48-.86-.32-1.6-.77-2.24-1.36-.64-.59-1.14-1.3-1.5-2.14s-.54-1.77-.54-2.78v-13.98c0-1.6-.69-2.4-2.08-2.4-.45,0-.79.15-1,.46-.21.31-.43.74-.64,1.3l-7.37,21.07h-5.45l8.33-23.39Z"/>
    <path class="cls-1" d="M261.44,67.18c8.31,0,12.5,4.57,12.58,13.7v.12c0,9.19-4.18,13.78-12.54,13.78h-2.16c-8.36,0-12.54-4.59-12.54-13.78v-.12c.03-9.13,4.22-13.7,12.58-13.7h2.08ZM258.12,72.02c-2.19,0-3.83.72-4.91,2.16s-1.62,3.73-1.62,6.85c0,5.96,2.16,8.93,6.49,8.93h4.65c4.33,0,6.49-2.98,6.49-8.93,0-3.12-.55-5.41-1.64-6.85-1.1-1.44-2.72-2.16-4.89-2.16h-4.57Z"/>
    <path class="cls-1" d="M286.96,94.78h-4.81v-22.75h-6.81v-4.85h18.03v4.85h-6.41v22.75Z"/>
    <path class="cls-1" d="M377.51,86.72c0,2.67-.77,4.68-2.3,6.03-1.54,1.35-3.68,2.02-6.43,2.02h-14.18v-4.81h15.1c.85,0,1.56-.33,2.12-.98.56-.65.84-1.45.84-2.38,0-.88-.28-1.65-.84-2.3-.56-.65-1.27-.98-2.12-.98h-7.77c-1.6,0-2.96-.24-4.07-.72-1.11-.48-2-1.11-2.68-1.88-.68-.77-1.18-1.64-1.48-2.58-.31-.95-.46-1.89-.46-2.82,0-1.12.16-2.17.48-3.14.32-.97.83-1.84,1.54-2.58.71-.75,1.61-1.34,2.7-1.76,1.09-.43,2.42-.64,3.97-.64h13.78v4.85h-14.54c-.43,0-.83.09-1.2.26-.37.17-.7.41-.98.7-.28.29-.51.63-.68,1.02-.17.39-.26.79-.26,1.22,0,.91.31,1.68.92,2.3.61.63,1.36.94,2.24.94h7.65c2.67,0,4.78.67,6.33,2.02,1.55,1.35,2.32,3.36,2.32,6.03v.2Z"/>
  </g>
  <path class="cls-1" d="M122.17,75.31c0,.96-.15,1.92-.46,2.89-.31.96-.81,1.82-1.5,2.58-.7.76-1.6,1.38-2.7,1.84-1.07.45-2.35.68-3.86.7-.06,0-.11,0-.17,0h-8.14c-.44,0-.79.35-.79.79v10.67h-4.85v-13.94c0-1.31,1.06-2.36,2.36-2.36h12.14c.88,0,1.63-.31,2.24-.94.62-.63.92-1.4.92-2.3,0-.43-.09-.84-.26-1.22-.17-.39-.4-.73-.68-1.02-.28-.29-.61-.53-.98-.7-.37-.17-.77-.26-1.2-.26h-14.54v-4.85h13.78c1.52,0,2.83.21,3.92.64,1.1.43,2,1.02,2.7,1.76.71.75,1.23,1.61,1.56,2.59.33.97.5,2.02.5,3.14Z"/>
  <path class="cls-2" d="M113.65,83.32h0s-.17,0-.17,0c.06,0,.11,0,.17,0Z"/>
  <path class="cls-1" d="M349.84,94.35l-6.36-11.35c.41-.1.8-.23,1.16-.38,1.11-.47,2.01-1.08,2.7-1.84.69-.76,1.19-1.62,1.5-2.58.31-.96.46-1.92.46-2.89,0-1.12-.17-2.17-.5-3.14-.33-.97-.85-1.84-1.56-2.59-.71-.75-1.61-1.33-2.7-1.76-1.1-.43-2.4-.64-3.92-.64h-13.78v4.85h14.54c.43,0,.83.09,1.2.26.37.17.7.41.98.7.28.29.51.63.68,1.02.17.39.26.79.26,1.22,0,.91-.31,1.68-.92,2.3-.61.63-1.36.94-2.24.94h-12.14c-1.31,0-2.36,1.06-2.36,2.36v13.94h4.85v-10.67c0-.44.35-.79.79-.79h5.99l6.18,11.03h5.19Z"/>
  <g>
    <path class="cls-1" d="M317.75,52.5c-3.64-.72-7.3-1.38-10.98-1.96-14.86-2.33-29.7-3.33-44.69-2.83-.61.02-1.6.03-2.21-.01-.73-.05-1.46-.13-2.19-.24-2.55-.41-5.03-1.24-7.47-2.39-2.45-1.14-4.86-2.57-7.32-4.01-3.08-1.81-6.02-3.79-9.26-5.32s-6.69-3.01-10.12-4.3c-14.08-5.31-29.05-8.24-44.08-8.73-5.16-.17-10.33-.05-15.48.37-10.56.85-20.97,3.06-31.23,5.62-5.63,1.4-11.19,3.06-16.75,4.72-2.77.86-5.54,1.71-8.28,2.63-1.37.46-2.76.88-4.13,1.35l-4.11,1.39-2.06.7-2.05.72-4.1,1.43-8.18,2.92s-2.49.84-7.4,1.25c-4.9.42-15.54-1.08-47.53-7.15,8.39,11.63,26.34,16.2,26.34,16.2l-14.79.25c.75,3.74,5.15,10.55,5.15,10.55,43.04-14.87,79.27-4.4,79.27-4.4-7.89-9.31-41.05-9.89-41.05-9.89l2.18-1.34,3.96-1.69c1.32-.56,2.64-1.13,3.97-1.67l3.99-1.62,2-.81,2.01-.78c14.03-5.52,28.46-10.34,43.16-13.76,9.38-2.19,18.98-3.65,28.63-3.68,14.55-.05,28.94,3.18,42.52,8.25,8.57,3.2,16.62,7.19,24.54,11.76,2.52,1.45,5.12,2.88,7.93,4.12,2.8,1.23,5.85,2.22,9.02,2.6,1.58.19,3.18.26,4.75.18.79-.04,1.57-.11,2.35-.21l2.12-.27c2.77-.34,5.59-.54,8.42-.65,2.83-.11,5.68-.14,8.54-.1,5.71.07,11.43.46,17.13,1.04,5.7.59,11.4,1.34,17.07,2.23,2.84.44,5.67.94,8.49,1.47,2.83.52,5.64,1.09,8.46,1.67,2.81.59,5.62,1.22,8.41,1.89,2.8.66,5.59,1.36,8.37,2.09l-1.46-.94c-1.99-1.28-4.19-2.22-6.49-2.76-9.21-2.18-15.22-3.88-25.36-5.88Z"/>
    <polygon class="cls-1" points="227.12 55.49 159.61 58.09 236.16 58.09 218.47 42.95 227.12 55.49"/>
  </g>
</svg>