<?xml version="1.0" encoding="UTF-8"?>
<svg xmlns="http://www.w3.org/2000/svg" xmlns:xlink="http://www.w3.org/1999/xlink" width="171px" height="55px" viewBox="0 0 171 55" version="1.1">
<g id="surface1">
<path style=" stroke:none;fill-rule:nonzero;fill:rgb(100%,100%,100%);fill-opacity:1;" d="M 129.285156 41.613281 C 129.203125 41.761719 129.113281 41.910156 129.015625 42.050781 C 128.878906 42.246094 128.738281 42.445312 128.582031 42.628906 C 128.5625 42.621094 128.539062 42.613281 128.519531 42.605469 C 128.4375 42.578125 128.347656 42.605469 128.296875 42.679688 L 127.695312 43.511719 C 127.546875 43.722656 127.265625 43.777344 127.050781 43.636719 L 126.355469 43.167969 C 126.140625 43.023438 126.0625 42.734375 126.164062 42.484375 L 126.558594 41.515625 C 126.597656 41.429688 126.574219 41.332031 126.515625 41.265625 C 126.261719 40.996094 126.039062 40.695312 125.84375 40.375 C 125.796875 40.296875 125.707031 40.257812 125.625 40.28125 L 124.6875 40.53125 C 124.445312 40.597656 124.199219 40.453125 124.109375 40.195312 L 123.824219 39.355469 C 123.734375 39.101562 123.835938 38.8125 124.054688 38.6875 L 124.910156 38.195312 C 124.984375 38.152344 125.027344 38.0625 125.015625 37.96875 C 125.011719 37.914062 125.003906 37.851562 125 37.796875 C 124.992188 37.707031 124.929688 37.625 124.847656 37.601562 L 123.910156 37.339844 C 123.671875 37.269531 123.511719 37.015625 123.542969 36.746094 L 123.648438 35.859375 C 123.679688 35.585938 123.894531 35.386719 124.144531 35.386719 L 124.386719 35.386719 C 124.679688 35.84375 125.128906 36.140625 125.546875 36.4375 C 125.738281 36.5625 125.933594 36.671875 126.136719 36.78125 C 126.121094 36.945312 126.105469 37.117188 126.105469 37.292969 C 126.105469 39.417969 127.46875 41.1875 129.285156 41.617188 Z M 129.285156 41.613281 "/>
<path style=" stroke:none;fill-rule:nonzero;fill:rgb(100%,100%,100%);fill-opacity:1;" d="M 135.046875 42.0625 L 134.46875 42.691406 C 134.289062 42.886719 134.007812 42.898438 133.8125 42.734375 L 133.054688 42.078125 C 132.988281 42.019531 132.894531 42.015625 132.824219 42.0625 C 132.523438 42.265625 132.203125 42.433594 131.871094 42.5625 C 131.789062 42.59375 131.734375 42.679688 131.734375 42.769531 L 131.734375 43.828125 C 131.730469 44.101562 131.542969 44.335938 131.292969 44.367188 L 130.484375 44.46875 C 130.234375 44.5 130.007812 44.324219 129.949219 44.058594 L 129.71875 43.023438 C 129.699219 42.933594 129.628906 42.867188 129.542969 42.859375 C 129.402344 42.839844 129.269531 42.816406 129.132812 42.789062 C 129.226562 42.640625 129.316406 42.488281 129.398438 42.339844 C 129.511719 42.132812 129.613281 41.914062 129.707031 41.699219 C 129.847656 41.714844 129.988281 41.71875 130.132812 41.71875 C 132.078125 41.71875 133.695312 40.210938 134.078125 38.210938 C 134.230469 38.3125 134.375 38.417969 134.519531 38.53125 C 134.71875 38.703125 134.925781 38.878906 135.105469 39.078125 C 135.035156 39.097656 134.980469 39.148438 134.957031 39.222656 C 134.828125 39.589844 134.671875 39.933594 134.488281 40.261719 C 134.441406 40.34375 134.445312 40.445312 134.496094 40.519531 L 135.085938 41.355469 C 135.238281 41.574219 135.222656 41.878906 135.042969 42.070312 Z M 135.046875 42.0625 "/>
<path style=" stroke:none;fill-rule:nonzero;fill:rgb(100%,100%,100%);fill-opacity:1;" d="M 136.71875 37.714844 L 136.613281 38.601562 C 136.582031 38.875 136.367188 39.074219 136.121094 39.074219 L 135.890625 39.074219 C 135.601562 38.65625 135.175781 38.375 134.777344 38.097656 C 134.578125 37.96875 134.367188 37.84375 134.148438 37.738281 C 134.164062 37.589844 134.167969 37.441406 134.167969 37.292969 C 134.167969 35.179688 132.816406 33.414062 131.007812 32.972656 C 131.097656 32.804688 131.199219 32.644531 131.304688 32.488281 C 131.453125 32.273438 131.609375 32.0625 131.78125 31.867188 C 131.851562 31.875 131.921875 31.847656 131.96875 31.789062 L 132.167969 31.507812 L 132.269531 31.363281 L 132.566406 30.957031 C 132.722656 30.742188 132.996094 30.6875 133.210938 30.832031 L 133.90625 31.296875 C 134.121094 31.441406 134.203125 31.734375 134.101562 31.984375 L 133.703125 32.945312 C 133.667969 33.03125 133.6875 33.128906 133.746094 33.195312 C 134 33.46875 134.222656 33.769531 134.421875 34.085938 C 134.46875 34.167969 134.550781 34.203125 134.636719 34.179688 L 135.574219 33.929688 C 135.816406 33.867188 136.066406 34.007812 136.152344 34.261719 L 136.441406 35.101562 C 136.527344 35.355469 136.425781 35.648438 136.207031 35.769531 L 135.351562 36.261719 C 135.277344 36.304688 135.234375 36.394531 135.246094 36.488281 C 135.25 36.542969 135.257812 36.605469 135.265625 36.660156 C 135.273438 36.753906 135.332031 36.832031 135.414062 36.855469 L 136.351562 37.117188 C 136.589844 37.1875 136.75 37.441406 136.71875 37.710938 Z M 136.71875 37.714844 "/>
<path style=" stroke:none;fill-rule:nonzero;fill:rgb(100%,100%,100%);fill-opacity:1;" d="M 131.222656 31.695312 C 131.117188 31.863281 131.019531 32.035156 130.921875 32.195312 C 130.804688 32.421875 130.691406 32.648438 130.59375 32.890625 C 130.445312 32.871094 130.292969 32.863281 130.140625 32.863281 C 128.222656 32.863281 126.617188 34.332031 126.207031 36.304688 C 126.070312 36.210938 125.933594 36.109375 125.804688 36.003906 C 125.578125 35.8125 125.347656 35.613281 125.15625 35.382812 C 125.222656 35.367188 125.277344 35.3125 125.300781 35.242188 C 125.429688 34.878906 125.585938 34.53125 125.769531 34.203125 C 125.816406 34.125 125.8125 34.023438 125.761719 33.949219 L 125.171875 33.113281 C 125.019531 32.894531 125.035156 32.589844 125.214844 32.394531 L 125.796875 31.765625 C 125.972656 31.570312 126.253906 31.558594 126.449219 31.722656 L 127.207031 32.378906 C 127.273438 32.4375 127.367188 32.445312 127.441406 32.394531 C 127.738281 32.191406 128.058594 32.023438 128.390625 31.894531 C 128.472656 31.863281 128.527344 31.777344 128.527344 31.6875 L 128.527344 30.628906 C 128.53125 30.355469 128.722656 30.121094 128.96875 30.089844 L 129.777344 29.988281 C 130.027344 29.957031 130.253906 30.132812 130.316406 30.402344 L 130.542969 31.433594 C 130.5625 31.523438 130.636719 31.589844 130.71875 31.597656 C 130.890625 31.617188 131.054688 31.648438 131.222656 31.6875 Z M 131.222656 31.695312 "/>
<path style=" stroke:none;fill-rule:nonzero;fill:rgb(13.333334%,13.333334%,12.941177%);fill-opacity:1;" d="M 130.140625 39.28125 C 130.035156 39.894531 129.84375 40.488281 129.582031 41.046875 C 128.074219 40.765625 126.863281 39.421875 126.695312 37.675781 C 126.671875 37.460938 126.667969 37.242188 126.679688 37.03125 C 127.214844 37.25 127.773438 37.394531 128.335938 37.449219 C 128.335938 37.460938 128.335938 37.472656 128.335938 37.488281 C 128.4375 38.515625 129.222656 39.277344 130.140625 39.292969 Z M 130.140625 39.28125 "/>
<path style=" stroke:none;fill-rule:nonzero;fill:rgb(13.333334%,13.333334%,12.941177%);fill-opacity:1;" d="M 130.382812 33.441406 C 130.183594 34.027344 130.050781 34.636719 130.003906 35.257812 C 130.003906 35.257812 129.980469 35.257812 129.96875 35.257812 C 129.03125 35.367188 128.335938 36.230469 128.328125 37.238281 C 127.773438 37.121094 127.230469 36.910156 126.722656 36.621094 C 126.976562 34.972656 128.203125 33.640625 129.796875 33.449219 C 129.996094 33.425781 130.191406 33.421875 130.386719 33.433594 Z M 130.382812 33.441406 "/>
<path style=" stroke:none;fill-rule:nonzero;fill:rgb(13.333334%,13.333334%,12.941177%);fill-opacity:1;" d="M 133.609375 37.902344 C 133.359375 39.554688 132.132812 40.886719 130.542969 41.078125 C 130.34375 41.101562 130.144531 41.105469 129.953125 41.089844 C 130.15625 40.503906 130.285156 39.894531 130.335938 39.273438 C 130.347656 39.273438 130.355469 39.273438 130.371094 39.273438 C 131.304688 39.164062 132 38.296875 132.011719 37.292969 C 132.570312 37.414062 133.113281 37.625 133.621094 37.910156 Z M 133.609375 37.902344 "/>
<path style=" stroke:none;fill-rule:nonzero;fill:rgb(13.333334%,13.333334%,12.941177%);fill-opacity:1;" d="M 133.652344 37.507812 C 133.117188 37.285156 132.5625 37.140625 131.996094 37.085938 C 131.996094 37.070312 131.996094 37.0625 131.996094 37.046875 C 131.894531 36.019531 131.113281 35.257812 130.191406 35.25 C 130.296875 34.636719 130.496094 34.042969 130.753906 33.484375 C 132.257812 33.765625 133.472656 35.109375 133.644531 36.855469 C 133.667969 37.070312 133.671875 37.289062 133.65625 37.5 Z M 133.652344 37.507812 "/>
<path style=" stroke:none;fill-rule:nonzero;fill:rgb(100%,100%,100%);fill-opacity:1;" d="M 33.234375 41.613281 C 33.152344 41.761719 33.0625 41.910156 32.964844 42.050781 C 32.828125 42.246094 32.6875 42.445312 32.53125 42.628906 C 32.511719 42.621094 32.488281 42.613281 32.46875 42.605469 C 32.390625 42.578125 32.296875 42.605469 32.246094 42.679688 L 31.648438 43.511719 C 31.496094 43.722656 31.21875 43.777344 31.003906 43.636719 L 30.304688 43.167969 C 30.089844 43.023438 30.011719 42.734375 30.113281 42.484375 L 30.507812 41.515625 C 30.546875 41.429688 30.527344 41.332031 30.464844 41.265625 C 30.214844 40.996094 29.992188 40.695312 29.792969 40.375 C 29.746094 40.296875 29.65625 40.257812 29.578125 40.28125 L 28.636719 40.53125 C 28.398438 40.597656 28.148438 40.453125 28.058594 40.195312 L 27.773438 39.355469 C 27.683594 39.101562 27.785156 38.8125 28.003906 38.6875 L 28.859375 38.195312 C 28.9375 38.152344 28.976562 38.0625 28.964844 37.96875 C 28.960938 37.914062 28.953125 37.851562 28.949219 37.796875 C 28.941406 37.707031 28.882812 37.625 28.796875 37.601562 L 27.859375 37.339844 C 27.621094 37.269531 27.460938 37.015625 27.496094 36.746094 L 27.601562 35.859375 C 27.628906 35.585938 27.84375 35.386719 28.09375 35.386719 L 28.335938 35.386719 C 28.628906 35.84375 29.078125 36.140625 29.496094 36.4375 C 29.6875 36.5625 29.886719 36.671875 30.085938 36.78125 C 30.070312 36.945312 30.058594 37.117188 30.058594 37.292969 C 30.058594 39.417969 31.417969 41.1875 33.234375 41.617188 Z M 33.234375 41.613281 "/>
<path style=" stroke:none;fill-rule:nonzero;fill:rgb(100%,100%,100%);fill-opacity:1;" d="M 39.003906 42.0625 L 38.421875 42.691406 C 38.246094 42.886719 37.960938 42.898438 37.769531 42.734375 L 37.007812 42.078125 C 36.941406 42.019531 36.847656 42.015625 36.777344 42.0625 C 36.476562 42.265625 36.15625 42.433594 35.824219 42.5625 C 35.746094 42.59375 35.691406 42.679688 35.691406 42.769531 L 35.691406 43.828125 C 35.6875 44.101562 35.496094 44.335938 35.246094 44.367188 L 34.4375 44.46875 C 34.1875 44.5 33.960938 44.324219 33.902344 44.058594 L 33.675781 43.023438 C 33.652344 42.933594 33.582031 42.867188 33.496094 42.859375 C 33.359375 42.839844 33.222656 42.816406 33.089844 42.789062 C 33.179688 42.640625 33.269531 42.488281 33.355469 42.339844 C 33.46875 42.132812 33.570312 41.914062 33.660156 41.699219 C 33.800781 41.714844 33.945312 41.71875 34.085938 41.71875 C 36.03125 41.71875 37.648438 40.210938 38.035156 38.210938 C 38.183594 38.3125 38.328125 38.417969 38.472656 38.53125 C 38.675781 38.703125 38.882812 38.878906 39.058594 39.078125 C 38.992188 39.097656 38.9375 39.148438 38.910156 39.222656 C 38.785156 39.589844 38.628906 39.933594 38.441406 40.261719 C 38.394531 40.34375 38.402344 40.445312 38.449219 40.519531 L 39.042969 41.355469 C 39.191406 41.574219 39.175781 41.878906 39 42.070312 Z M 39.003906 42.0625 "/>
<path style=" stroke:none;fill-rule:nonzero;fill:rgb(100%,100%,100%);fill-opacity:1;" d="M 40.667969 37.714844 L 40.5625 38.601562 C 40.535156 38.875 40.320312 39.074219 40.070312 39.074219 L 39.84375 39.074219 C 39.550781 38.65625 39.125 38.375 38.730469 38.097656 C 38.527344 37.96875 38.316406 37.84375 38.097656 37.738281 C 38.113281 37.589844 38.117188 37.441406 38.117188 37.292969 C 38.117188 35.179688 36.765625 33.414062 34.957031 32.972656 C 35.050781 32.804688 35.148438 32.644531 35.253906 32.488281 C 35.402344 32.273438 35.558594 32.0625 35.730469 31.867188 C 35.804688 31.875 35.871094 31.847656 35.917969 31.789062 L 36.121094 31.507812 L 36.222656 31.363281 L 36.515625 30.957031 C 36.671875 30.742188 36.945312 30.6875 37.160156 30.832031 L 37.855469 31.296875 C 38.070312 31.441406 38.152344 31.734375 38.050781 31.984375 L 37.65625 32.945312 C 37.617188 33.03125 37.636719 33.128906 37.695312 33.195312 C 37.949219 33.46875 38.171875 33.769531 38.371094 34.085938 C 38.417969 34.167969 38.5 34.203125 38.585938 34.179688 L 39.527344 33.929688 C 39.765625 33.867188 40.015625 34.007812 40.105469 34.261719 L 40.390625 35.101562 C 40.480469 35.355469 40.378906 35.648438 40.160156 35.769531 L 39.300781 36.261719 C 39.226562 36.304688 39.183594 36.394531 39.195312 36.488281 C 39.203125 36.542969 39.210938 36.605469 39.214844 36.660156 C 39.222656 36.753906 39.28125 36.832031 39.367188 36.855469 L 40.300781 37.117188 C 40.542969 37.1875 40.703125 37.441406 40.667969 37.710938 Z M 40.667969 37.714844 "/>
<path style=" stroke:none;fill-rule:nonzero;fill:rgb(100%,100%,100%);fill-opacity:1;" d="M 35.171875 31.695312 C 35.066406 31.863281 34.96875 32.035156 34.871094 32.195312 C 34.753906 32.421875 34.640625 32.648438 34.542969 32.890625 C 34.394531 32.871094 34.242188 32.863281 34.09375 32.863281 C 32.175781 32.863281 30.566406 34.332031 30.160156 36.304688 C 30.019531 36.210938 29.886719 36.109375 29.753906 36.003906 C 29.527344 35.8125 29.300781 35.613281 29.105469 35.382812 C 29.171875 35.367188 29.226562 35.3125 29.253906 35.242188 C 29.378906 34.878906 29.535156 34.53125 29.71875 34.203125 C 29.765625 34.125 29.761719 34.023438 29.710938 33.949219 L 29.121094 33.113281 C 28.96875 32.894531 28.988281 32.589844 29.164062 32.394531 L 29.746094 31.765625 C 29.921875 31.570312 30.207031 31.558594 30.398438 31.722656 L 31.15625 32.378906 C 31.226562 32.4375 31.316406 32.445312 31.390625 32.394531 C 31.6875 32.191406 32.007812 32.023438 32.34375 31.894531 C 32.421875 31.863281 32.476562 31.777344 32.476562 31.6875 L 32.476562 30.628906 C 32.480469 30.355469 32.671875 30.121094 32.921875 30.089844 L 33.730469 29.988281 C 33.976562 29.957031 34.207031 30.132812 34.265625 30.402344 L 34.492188 31.433594 C 34.511719 31.523438 34.585938 31.589844 34.667969 31.597656 C 34.84375 31.617188 35.007812 31.648438 35.171875 31.6875 Z M 35.171875 31.695312 "/>
<path style=" stroke:none;fill-rule:nonzero;fill:rgb(13.333334%,13.333334%,12.941177%);fill-opacity:1;" d="M 34.09375 39.28125 C 33.988281 39.894531 33.792969 40.488281 33.53125 41.046875 C 32.027344 40.765625 30.8125 39.421875 30.644531 37.675781 C 30.621094 37.460938 30.617188 37.242188 30.632812 37.03125 C 31.167969 37.25 31.722656 37.394531 32.289062 37.449219 C 32.289062 37.460938 32.289062 37.472656 32.289062 37.488281 C 32.390625 38.515625 33.171875 39.277344 34.09375 39.292969 Z M 34.09375 39.28125 "/>
<path style=" stroke:none;fill-rule:nonzero;fill:rgb(13.333334%,13.333334%,12.941177%);fill-opacity:1;" d="M 34.332031 33.441406 C 34.132812 34.027344 34 34.636719 33.953125 35.257812 C 33.953125 35.257812 33.933594 35.257812 33.917969 35.257812 C 32.984375 35.367188 32.289062 36.230469 32.28125 37.238281 C 31.722656 37.121094 31.179688 36.910156 30.671875 36.621094 C 30.925781 34.972656 32.152344 33.640625 33.746094 33.449219 C 33.945312 33.425781 34.144531 33.421875 34.335938 33.433594 Z M 34.332031 33.441406 "/>
<path style=" stroke:none;fill-rule:nonzero;fill:rgb(13.333334%,13.333334%,12.941177%);fill-opacity:1;" d="M 37.5625 37.902344 C 37.308594 39.554688 36.082031 40.886719 34.492188 41.078125 C 34.292969 41.101562 34.097656 41.105469 33.902344 41.089844 C 34.105469 40.503906 34.234375 39.894531 34.285156 39.273438 C 34.296875 39.273438 34.308594 39.273438 34.320312 39.273438 C 35.253906 39.164062 35.953125 38.296875 35.964844 37.292969 C 36.519531 37.414062 37.0625 37.625 37.570312 37.910156 Z M 37.5625 37.902344 "/>
<path style=" stroke:none;fill-rule:nonzero;fill:rgb(13.333334%,13.333334%,12.941177%);fill-opacity:1;" d="M 37.605469 37.507812 C 37.066406 37.285156 36.511719 37.140625 35.945312 37.085938 C 35.945312 37.070312 35.945312 37.0625 35.945312 37.046875 C 35.847656 36.019531 35.0625 35.257812 34.144531 35.25 C 34.25 34.636719 34.445312 34.042969 34.703125 33.484375 C 36.207031 33.765625 37.421875 35.109375 37.59375 36.855469 C 37.617188 37.070312 37.621094 37.289062 37.609375 37.5 Z M 37.605469 37.507812 "/>
<path style=" stroke:none;fill-rule:nonzero;fill:rgb(100%,100%,100%);fill-opacity:1;" d="M 25.203125 43.914062 L 23.171875 43.914062 L 23.171875 33.390625 L 20.300781 33.390625 L 20.300781 31.144531 L 27.902344 31.144531 L 27.902344 33.390625 L 25.203125 33.390625 Z M 25.203125 43.914062 "/>
<path style=" stroke:none;fill-rule:nonzero;fill:rgb(100%,100%,100%);fill-opacity:1;" d="M 61.855469 31.144531 C 65.367188 31.144531 67.125 33.265625 67.125 37.5 L 67.125 37.558594 C 67.09375 41.792969 65.332031 43.914062 61.839844 43.914062 L 57.042969 43.914062 L 57.042969 31.144531 Z M 59.085938 41.6875 L 62.34375 41.6875 C 63.269531 41.6875 63.957031 41.351562 64.40625 40.679688 C 64.859375 40.003906 65.082031 38.941406 65.082031 37.484375 C 65.082031 34.753906 64.175781 33.390625 62.363281 33.390625 L 59.085938 33.390625 L 59.085938 41.691406 Z M 59.085938 41.6875 "/>
<path style=" stroke:none;fill-rule:nonzero;fill:rgb(100%,100%,100%);fill-opacity:1;" d="M 76.492188 35 C 76.683594 34.902344 76.84375 34.761719 76.972656 34.589844 C 77.105469 34.421875 77.167969 34.246094 77.167969 34.074219 C 77.167969 33.875 77.105469 33.710938 76.980469 33.582031 C 76.859375 33.453125 76.667969 33.390625 76.410156 33.390625 L 68.640625 33.390625 L 68.640625 31.144531 L 76.339844 31.144531 C 77.285156 31.144531 77.992188 31.417969 78.460938 31.960938 C 78.929688 32.503906 79.160156 33.207031 79.160156 34.074219 C 79.160156 34.234375 79.148438 34.433594 79.128906 34.675781 C 79.105469 34.914062 79.035156 35.175781 78.917969 35.441406 C 78.800781 35.714844 78.613281 35.988281 78.359375 36.257812 C 78.109375 36.53125 77.753906 36.773438 77.308594 36.996094 L 70.90625 40.054688 C 70.683594 40.167969 70.515625 40.300781 70.410156 40.460938 C 70.304688 40.625 70.25 40.789062 70.25 40.960938 C 70.25 41.199219 70.320312 41.378906 70.46875 41.5 C 70.617188 41.625 70.789062 41.683594 70.992188 41.683594 L 78.894531 41.683594 L 78.894531 43.910156 L 71.042969 43.910156 C 70.097656 43.910156 69.386719 43.636719 68.914062 43.09375 C 68.441406 42.546875 68.207031 41.855469 68.207031 41 C 68.207031 40.777344 68.226562 40.53125 68.273438 40.269531 C 68.320312 40.003906 68.40625 39.734375 68.542969 39.472656 C 68.675781 39.207031 68.867188 38.949219 69.117188 38.703125 C 69.363281 38.460938 69.6875 38.242188 70.09375 38.058594 Z M 76.492188 35 "/>
<path style=" stroke:none;fill-rule:nonzero;fill:rgb(100%,100%,100%);fill-opacity:1;" d="M 87.027344 33.089844 C 87.230469 32.460938 87.5625 31.96875 88.03125 31.625 C 88.5 31.28125 89.035156 31.109375 89.644531 31.109375 C 90.0625 31.109375 90.457031 31.183594 90.816406 31.332031 C 91.183594 31.476562 91.5 31.6875 91.769531 31.960938 C 92.039062 32.234375 92.253906 32.5625 92.410156 32.949219 C 92.566406 33.339844 92.648438 33.769531 92.648438 34.234375 L 92.648438 40.664062 C 92.648438 41.40625 92.933594 41.777344 93.507812 41.777344 C 93.699219 41.777344 93.84375 41.710938 93.945312 41.582031 C 94.046875 41.453125 94.136719 41.257812 94.214844 41 L 96.546875 33.082031 C 96.738281 32.453125 97.074219 31.964844 97.550781 31.621094 C 98.027344 31.273438 98.566406 31.105469 99.164062 31.105469 C 99.582031 31.105469 99.972656 31.175781 100.335938 31.324219 C 100.703125 31.472656 101.019531 31.683594 101.289062 31.953125 C 101.558594 32.226562 101.773438 32.554688 101.929688 32.945312 C 102.085938 33.332031 102.167969 33.765625 102.167969 34.230469 L 102.167969 43.902344 L 100.003906 43.902344 L 100.003906 34.453125 C 100.003906 33.710938 99.714844 33.34375 99.128906 33.34375 C 98.9375 33.34375 98.792969 33.414062 98.695312 33.554688 C 98.601562 33.699219 98.515625 33.898438 98.4375 34.15625 L 96.070312 42.054688 C 95.914062 42.683594 95.589844 43.171875 95.101562 43.523438 C 94.613281 43.875 94.066406 44.050781 93.46875 44.050781 C 93.039062 44.050781 92.648438 43.976562 92.289062 43.828125 C 91.925781 43.683594 91.613281 43.472656 91.34375 43.199219 C 91.074219 42.929688 90.863281 42.597656 90.710938 42.210938 C 90.5625 41.824219 90.484375 41.390625 90.484375 40.925781 L 90.484375 34.457031 C 90.484375 33.71875 90.195312 33.347656 89.609375 33.347656 C 89.417969 33.347656 89.273438 33.417969 89.1875 33.558594 C 89.097656 33.703125 89.003906 33.902344 88.917969 34.160156 L 85.808594 43.910156 L 83.511719 43.910156 L 87.023438 33.089844 Z M 87.027344 33.089844 "/>
<path style=" stroke:none;fill-rule:nonzero;fill:rgb(100%,100%,100%);fill-opacity:1;" d="M 110.214844 31.144531 C 113.71875 31.144531 115.484375 33.257812 115.519531 37.484375 L 115.519531 37.539062 C 115.519531 41.789062 113.753906 43.914062 110.230469 43.914062 L 109.320312 43.914062 C 105.796875 43.914062 104.035156 41.789062 104.035156 37.539062 L 104.035156 37.484375 C 104.046875 33.257812 105.8125 31.144531 109.335938 31.144531 Z M 108.816406 33.382812 C 107.890625 33.382812 107.199219 33.71875 106.746094 34.382812 C 106.289062 35.050781 106.0625 36.109375 106.0625 37.550781 C 106.0625 40.308594 106.972656 41.683594 108.796875 41.683594 L 110.757812 41.683594 C 112.582031 41.683594 113.492188 40.304688 113.492188 37.550781 C 113.492188 36.109375 113.261719 35.050781 112.804688 34.382812 C 112.339844 33.71875 111.65625 33.382812 110.742188 33.382812 Z M 108.816406 33.382812 "/>
<path style=" stroke:none;fill-rule:nonzero;fill:rgb(100%,100%,100%);fill-opacity:1;" d="M 120.972656 43.914062 L 118.945312 43.914062 L 118.945312 33.390625 L 116.074219 33.390625 L 116.074219 31.144531 L 123.675781 31.144531 L 123.675781 33.390625 L 120.972656 33.390625 Z M 120.972656 43.914062 "/>
<path style=" stroke:none;fill-rule:nonzero;fill:rgb(100%,100%,100%);fill-opacity:1;" d="M 159.144531 40.183594 C 159.144531 41.417969 158.820312 42.351562 158.175781 42.972656 C 157.527344 43.597656 156.625 43.910156 155.464844 43.910156 L 149.488281 43.910156 L 149.488281 41.683594 L 155.851562 41.683594 C 156.210938 41.683594 156.511719 41.53125 156.746094 41.230469 C 156.984375 40.929688 157.101562 40.558594 157.101562 40.128906 C 157.101562 39.722656 156.984375 39.367188 156.746094 39.066406 C 156.511719 38.765625 156.210938 38.613281 155.851562 38.613281 L 152.578125 38.613281 C 151.902344 38.613281 151.328125 38.5 150.863281 38.277344 C 150.394531 38.058594 150.019531 37.765625 149.730469 37.410156 C 149.445312 37.054688 149.234375 36.648438 149.109375 36.214844 C 148.976562 35.777344 148.914062 35.339844 148.914062 34.910156 C 148.914062 34.394531 148.980469 33.90625 149.117188 33.457031 C 149.25 33.007812 149.464844 32.605469 149.765625 32.265625 C 150.066406 31.917969 150.445312 31.644531 150.902344 31.449219 C 151.363281 31.25 151.925781 31.15625 152.578125 31.15625 L 158.386719 31.15625 L 158.386719 33.398438 L 152.257812 33.398438 C 152.074219 33.398438 151.90625 33.441406 151.75 33.519531 C 151.59375 33.597656 151.457031 33.707031 151.339844 33.84375 C 151.21875 33.976562 151.125 34.132812 151.050781 34.3125 C 150.980469 34.496094 150.941406 34.679688 150.941406 34.878906 C 150.941406 35.300781 151.074219 35.65625 151.328125 35.941406 C 151.585938 36.234375 151.902344 36.378906 152.273438 36.378906 L 155.5 36.378906 C 156.625 36.378906 157.515625 36.6875 158.167969 37.3125 C 158.820312 37.9375 159.144531 38.867188 159.144531 40.101562 L 159.144531 40.195312 Z M 159.144531 40.183594 "/>
<path style=" stroke:none;fill-rule:nonzero;fill:rgb(100%,100%,100%);fill-opacity:1;" d="M 51.503906 34.90625 C 51.503906 35.351562 51.441406 35.792969 51.308594 36.242188 C 51.179688 36.6875 50.96875 37.085938 50.675781 37.4375 C 50.382812 37.789062 50.003906 38.074219 49.539062 38.289062 C 49.085938 38.496094 48.546875 38.601562 47.910156 38.613281 C 47.886719 38.613281 47.863281 38.613281 47.839844 38.613281 L 44.40625 38.613281 C 44.222656 38.613281 44.074219 38.773438 44.074219 38.976562 L 44.074219 43.914062 L 42.03125 43.914062 L 42.03125 37.464844 C 42.03125 36.859375 42.476562 36.371094 43.023438 36.371094 L 48.144531 36.371094 C 48.515625 36.371094 48.828125 36.230469 49.085938 35.9375 C 49.347656 35.648438 49.476562 35.289062 49.476562 34.875 C 49.476562 34.675781 49.4375 34.484375 49.367188 34.308594 C 49.292969 34.128906 49.195312 33.972656 49.078125 33.835938 C 48.960938 33.703125 48.820312 33.59375 48.664062 33.515625 C 48.507812 33.433594 48.339844 33.394531 48.160156 33.394531 L 42.03125 33.394531 L 42.03125 31.148438 L 47.839844 31.148438 C 48.480469 31.148438 49.03125 31.246094 49.492188 31.445312 C 49.957031 31.644531 50.335938 31.917969 50.628906 32.261719 C 50.929688 32.605469 51.148438 33.003906 51.289062 33.457031 C 51.425781 33.90625 51.5 34.394531 51.5 34.910156 Z M 51.503906 34.90625 "/>
<path style=" stroke:none;fill-rule:nonzero;fill:rgb(100%,100%,100%);fill-opacity:1;" d="M 147.480469 43.714844 L 144.800781 38.464844 C 144.972656 38.417969 145.136719 38.355469 145.289062 38.289062 C 145.757812 38.070312 146.136719 37.789062 146.425781 37.4375 C 146.71875 37.085938 146.929688 36.6875 147.058594 36.242188 C 147.191406 35.800781 147.253906 35.355469 147.253906 34.90625 C 147.253906 34.386719 147.179688 33.902344 147.042969 33.453125 C 146.902344 33.003906 146.683594 32.601562 146.382812 32.253906 C 146.085938 31.910156 145.707031 31.640625 145.246094 31.441406 C 144.78125 31.242188 144.234375 31.144531 143.59375 31.144531 L 137.785156 31.144531 L 137.785156 33.390625 L 143.914062 33.390625 C 144.09375 33.390625 144.265625 33.429688 144.421875 33.507812 C 144.578125 33.589844 144.714844 33.699219 144.832031 33.832031 C 144.953125 33.96875 145.046875 34.125 145.121094 34.304688 C 145.191406 34.484375 145.230469 34.671875 145.230469 34.871094 C 145.230469 35.289062 145.097656 35.648438 144.84375 35.933594 C 144.585938 36.226562 144.269531 36.367188 143.898438 36.367188 L 138.78125 36.367188 C 138.226562 36.367188 137.785156 36.859375 137.785156 37.460938 L 137.785156 43.910156 L 139.828125 43.910156 L 139.828125 38.972656 C 139.828125 38.769531 139.976562 38.605469 140.164062 38.605469 L 142.6875 38.605469 L 145.292969 43.710938 L 147.480469 43.710938 Z M 147.480469 43.714844 "/>
<path style=" stroke:none;fill-rule:nonzero;fill:rgb(100%,100%,100%);fill-opacity:1;" d="M 133.953125 24.355469 C 132.417969 24.019531 130.875 23.714844 129.324219 23.449219 C 123.058594 22.371094 116.804688 21.90625 110.484375 22.136719 C 110.226562 22.148438 109.808594 22.152344 109.550781 22.132812 C 109.246094 22.109375 108.9375 22.074219 108.628906 22.023438 C 107.554688 21.832031 106.507812 21.449219 105.480469 20.917969 C 104.449219 20.390625 103.429688 19.726562 102.394531 19.0625 C 101.097656 18.226562 99.855469 17.308594 98.492188 16.601562 C 97.125 15.894531 95.671875 15.207031 94.222656 14.613281 C 88.289062 12.15625 81.976562 10.800781 75.640625 10.574219 C 73.464844 10.496094 71.285156 10.550781 69.117188 10.746094 C 64.664062 11.136719 60.277344 12.160156 55.949219 13.34375 C 53.578125 13.992188 51.234375 14.761719 48.890625 15.527344 C 47.722656 15.925781 46.554688 16.320312 45.398438 16.746094 C 44.820312 16.957031 44.234375 17.152344 43.65625 17.367188 L 41.925781 18.011719 L 41.054688 18.335938 L 38.464844 19.332031 L 35.015625 20.679688 C 35.015625 20.679688 33.964844 21.070312 31.894531 21.257812 C 29.828125 21.453125 25.34375 20.761719 11.859375 17.953125 C 15.394531 23.332031 22.960938 25.445312 22.960938 25.445312 L 16.726562 25.5625 C 17.042969 27.292969 18.898438 30.441406 18.898438 30.441406 C 37.042969 23.5625 52.316406 28.40625 52.316406 28.40625 C 48.992188 24.101562 35.011719 23.832031 35.011719 23.832031 L 35.929688 23.210938 L 37.597656 22.429688 C 38.15625 22.171875 38.710938 21.90625 39.273438 21.65625 L 40.957031 20.90625 L 41.796875 20.53125 L 42.644531 20.171875 C 48.558594 17.617188 54.644531 15.390625 60.839844 13.808594 C 64.792969 12.792969 68.84375 12.117188 72.910156 12.105469 C 79.042969 12.082031 85.109375 13.574219 90.835938 15.921875 C 94.449219 17.402344 97.839844 19.246094 101.179688 21.359375 C 102.242188 22.03125 103.339844 22.695312 104.523438 23.265625 C 105.703125 23.835938 106.988281 24.292969 108.324219 24.46875 C 108.992188 24.558594 109.667969 24.589844 110.328125 24.554688 C 110.660156 24.535156 110.988281 24.503906 111.320312 24.457031 L 112.210938 24.332031 C 113.378906 24.175781 114.570312 24.082031 115.761719 24.03125 C 116.957031 23.980469 118.15625 23.964844 119.363281 23.984375 C 121.769531 24.015625 124.179688 24.195312 126.582031 24.464844 C 128.988281 24.738281 131.390625 25.085938 133.78125 25.496094 C 134.976562 25.699219 136.171875 25.933594 137.359375 26.175781 C 138.550781 26.417969 139.738281 26.679688 140.925781 26.949219 C 142.109375 27.222656 143.292969 27.515625 144.472656 27.824219 C 145.652344 28.128906 146.828125 28.453125 148 28.789062 L 147.382812 28.355469 C 146.546875 27.765625 145.617188 27.328125 144.648438 27.078125 C 140.765625 26.070312 138.230469 25.285156 133.957031 24.359375 Z M 133.953125 24.355469 "/>
<path style=" stroke:none;fill-rule:nonzero;fill:rgb(100%,100%,100%);fill-opacity:1;" d="M 95.746094 25.738281 L 67.285156 26.941406 L 99.558594 26.941406 L 92.101562 19.9375 Z M 95.746094 25.738281 "/>
</g>
</svg>
